<svg width="83" height="77" viewBox="0 0 83 77" fill="none" xmlns="http://www.w3.org/2000/svg">
<path d="M2.86475 30.2258C2.85825 30.245 2.85041 30.264 2.84424 30.2834C2.77025 30.5171 2.73323 30.739 2.71826 30.9436C2.91034 31.1083 3.12494 31.2517 3.35205 31.3713C3.65004 30.8237 4.1024 30.3035 4.771 29.9231C4.41006 29.797 4.00529 29.7011 3.59131 29.6526C3.58096 29.6514 3.57031 29.6499 3.56006 29.6487M2.86475 30.2258L3.56006 29.6487M2.86475 30.2258L3.56006 29.6487M2.86475 30.2258C2.94284 29.9956 3.04346 29.7896 3.15869 29.6067C3.28264 29.6192 3.41646 29.632 3.56006 29.6487M35.2407 57.3137C35.0696 57.2518 34.8165 57.0134 34.603 56.7122L34.5005 56.5579C34.2379 56.1331 34.3915 55.7854 34.8413 55.7854L34.9243 55.7893C35.3355 55.829 35.6587 56.1595 35.6587 56.5579L35.6519 56.7122C35.6201 57.0633 35.4827 57.33 35.3188 57.3303L35.2407 57.3137ZM25.2017 41.4983C25.5529 41.4518 25.9055 41.6839 26.3423 42.2102C27.7879 43.952 27.0745 45.1469 25.3892 44.01L25.2231 43.8928C25.0868 43.7922 24.9649 43.6948 24.856 43.6018C25.0859 43.0882 25.2173 42.5108 25.2173 41.8831C25.2173 41.7593 25.2115 41.6305 25.2017 41.4983ZM20.5981 41.8831C20.6809 41.7491 20.7748 41.6231 20.8696 41.5129C20.7712 41.8813 20.7233 42.2534 20.7271 42.6223C20.469 42.5345 20.3938 42.2755 20.5542 41.9612L20.5981 41.8831Z" fill="#F6CB79" stroke="#FFC727" stroke-width="6.92098"/>
<mask id="path-2-inside-1_282_275" fill="white">
<path d="M15.5775 71.4238C14.0009 70.6362 12.3281 68.9467 11.5638 67.3701C10.843 65.8833 9.86791 64.2265 9.39694 63.6882C7.34377 61.3415 0.711993 49.0106 0.368125 46.9003C0.0952447 45.2257 0.76533 43.0937 2.7784 39.2315C5.67904 33.6666 5.68543 33.7501 2.20779 31.7638C1.43877 31.3246 0.921431 30.3844 1.05815 29.6744C1.27674 28.5393 2.3771 28.4148 10.1799 28.6418C15.0601 28.7836 19.4379 29.2156 19.9083 29.6016C20.3787 29.9876 22.5724 33.4782 24.7831 37.3584C27.717 42.5082 28.572 44.6439 27.9491 45.2668C27.3262 45.8897 26.4606 45.7556 24.7439 44.7703C23.4503 44.0279 22.0679 43.6208 21.6718 43.8656C20.6771 44.4803 16.366 52.0939 16.3571 53.2515C16.3518 53.933 19.076 54.2538 26.1973 54.4101L36.0449 54.6261L36.2625 63.7013L36.48 72.7764L27.3804 72.7749C20.2645 72.7743 17.6914 72.4798 15.5775 71.4238ZM33.9562 64.4023C34.0977 60.8862 33.8417 58.3182 33.2823 57.6442C32.6126 56.8373 30.3116 56.5571 24.3536 56.5571H16.3271L14.7967 59.0673C11.8603 63.8832 13.531 68.4444 18.6855 69.6843C20.162 70.0395 24.1506 70.2723 27.549 70.2017L33.7278 70.0732L33.9562 64.4023ZM14.8051 55.2823C14.8051 53.4256 13.0775 54.4958 11.7609 57.1681C11.0989 58.512 10.1227 59.6194 9.59175 59.629C8.16165 59.6553 8.42126 61.7721 9.96013 62.6333C11.0661 63.2522 11.5939 62.788 13.0496 59.9165C14.0151 58.0117 14.8051 55.9263 14.8051 55.2823ZM14.8362 49.4911C17.5747 44.7067 20.3789 40.7198 21.1467 40.519C22.9205 40.0551 22.8863 39.5112 20.8591 35.9408C18.4785 31.7482 17.3454 31.0695 12.7266 31.0695C9.16513 31.0695 8.62629 31.2688 8.62629 32.5876C8.62629 33.4226 7.40984 36.3187 5.92305 39.0236C4.43627 41.7285 3.21982 44.732 3.21982 45.698C3.21982 47.4253 8.58561 58.0866 9.46001 58.0967C9.70615 58.0996 12.1255 54.227 14.8362 49.4911ZM35.6587 56.5571C35.6587 56.1323 35.2906 55.7847 34.8407 55.7847C34.3909 55.7847 34.2376 56.1323 34.5002 56.5571C34.7627 56.9819 35.1308 57.3295 35.3181 57.3295C35.5054 57.3295 35.6587 56.9819 35.6587 56.5571ZM26.3417 42.2099C25.6346 41.3578 25.1478 41.275 24.5309 41.9017C23.9188 42.5235 24.1087 43.0698 25.223 43.892C27.0261 45.2225 27.8339 44.0079 26.3417 42.2099ZM21.7563 41.8824C21.7563 41.4576 21.6031 41.1101 21.4157 41.1101C21.2284 41.1101 20.8603 41.4576 20.5978 41.8824C20.3352 42.3072 20.4885 42.6548 20.9384 42.6548C21.3882 42.6548 21.7563 42.3072 21.7563 41.8824ZM7.85395 33.8183C7.85395 33.6309 7.5064 33.2629 7.0816 33.0004C6.65681 32.738 6.30924 32.8912 6.30924 33.341C6.30924 33.7909 6.65681 34.1589 7.0816 34.1589C7.5064 34.1589 7.85395 34.0057 7.85395 33.8183ZM6.12096 30.8764C5.9466 30.3454 4.80786 29.7945 3.59044 29.6522C1.64658 29.4248 1.50071 29.5424 2.39296 30.6176C3.5999 32.0719 6.58147 32.279 6.12096 30.8764Z"/>
</mask>
<path d="M15.5775 71.4238C14.0009 70.6362 12.3281 68.9467 11.5638 67.3701C10.843 65.8833 9.86791 64.2265 9.39694 63.6882C7.34377 61.3415 0.711993 49.0106 0.368125 46.9003C0.0952447 45.2257 0.76533 43.0937 2.7784 39.2315C5.67904 33.6666 5.68543 33.7501 2.20779 31.7638C1.43877 31.3246 0.921431 30.3844 1.05815 29.6744C1.27674 28.5393 2.3771 28.4148 10.1799 28.6418C15.0601 28.7836 19.4379 29.2156 19.9083 29.6016C20.3787 29.9876 22.5724 33.4782 24.7831 37.3584C27.717 42.5082 28.572 44.6439 27.9491 45.2668C27.3262 45.8897 26.4606 45.7556 24.7439 44.7703C23.4503 44.0279 22.0679 43.6208 21.6718 43.8656C20.6771 44.4803 16.366 52.0939 16.3571 53.2515C16.3518 53.933 19.076 54.2538 26.1973 54.4101L36.0449 54.6261L36.2625 63.7013L36.48 72.7764L27.3804 72.7749C20.2645 72.7743 17.6914 72.4798 15.5775 71.4238ZM33.9562 64.4023C34.0977 60.8862 33.8417 58.3182 33.2823 57.6442C32.6126 56.8373 30.3116 56.5571 24.3536 56.5571H16.3271L14.7967 59.0673C11.8603 63.8832 13.531 68.4444 18.6855 69.6843C20.162 70.0395 24.1506 70.2723 27.549 70.2017L33.7278 70.0732L33.9562 64.4023ZM14.8051 55.2823C14.8051 53.4256 13.0775 54.4958 11.7609 57.1681C11.0989 58.512 10.1227 59.6194 9.59175 59.629C8.16165 59.6553 8.42126 61.7721 9.96013 62.6333C11.0661 63.2522 11.5939 62.788 13.0496 59.9165C14.0151 58.0117 14.8051 55.9263 14.8051 55.2823ZM14.8362 49.4911C17.5747 44.7067 20.3789 40.7198 21.1467 40.519C22.9205 40.0551 22.8863 39.5112 20.8591 35.9408C18.4785 31.7482 17.3454 31.0695 12.7266 31.0695C9.16513 31.0695 8.62629 31.2688 8.62629 32.5876C8.62629 33.4226 7.40984 36.3187 5.92305 39.0236C4.43627 41.7285 3.21982 44.732 3.21982 45.698C3.21982 47.4253 8.58561 58.0866 9.46001 58.0967C9.70615 58.0996 12.1255 54.227 14.8362 49.4911ZM35.6587 56.5571C35.6587 56.1323 35.2906 55.7847 34.8407 55.7847C34.3909 55.7847 34.2376 56.1323 34.5002 56.5571C34.7627 56.9819 35.1308 57.3295 35.3181 57.3295C35.5054 57.3295 35.6587 56.9819 35.6587 56.5571ZM26.3417 42.2099C25.6346 41.3578 25.1478 41.275 24.5309 41.9017C23.9188 42.5235 24.1087 43.0698 25.223 43.892C27.0261 45.2225 27.8339 44.0079 26.3417 42.2099ZM21.7563 41.8824C21.7563 41.4576 21.6031 41.1101 21.4157 41.1101C21.2284 41.1101 20.8603 41.4576 20.5978 41.8824C20.3352 42.3072 20.4885 42.6548 20.9384 42.6548C21.3882 42.6548 21.7563 42.3072 21.7563 41.8824ZM7.85395 33.8183C7.85395 33.6309 7.5064 33.2629 7.0816 33.0004C6.65681 32.738 6.30924 32.8912 6.30924 33.341C6.30924 33.7909 6.65681 34.1589 7.0816 34.1589C7.5064 34.1589 7.85395 34.0057 7.85395 33.8183ZM6.12096 30.8764C5.9466 30.3454 4.80786 29.7945 3.59044 29.6522C1.64658 29.4248 1.50071 29.5424 2.39296 30.6176C3.5999 32.0719 6.58147 32.279 6.12096 30.8764Z" fill="#FFC727"/>
<path d="M15.5775 71.4238L12.4845 77.6152L12.4846 77.6152L15.5775 71.4238ZM11.5638 67.3701L17.7915 64.351L17.7915 64.3509L11.5638 67.3701ZM9.39694 63.6882L14.6057 59.1309L14.6057 59.1308L9.39694 63.6882ZM0.368125 46.9003L7.19901 45.7873L7.19901 45.7872L0.368125 46.9003ZM2.7784 39.2315L8.91571 42.4305L8.91571 42.4305L2.7784 39.2315ZM2.20779 31.7638L-1.22481 37.7736L-1.22473 37.7736L2.20779 31.7638ZM1.05815 29.6744L7.85424 30.9833L7.85427 30.9831L1.05815 29.6744ZM10.1799 28.6418L9.9787 35.5598L9.9788 35.5598L10.1799 28.6418ZM19.9083 29.6016L24.2986 24.2513L24.2984 24.2511L19.9083 29.6016ZM24.7831 37.3584L30.7965 33.9324L30.7965 33.9324L24.7831 37.3584ZM27.9491 45.2668L32.843 50.1607L32.843 50.1607L27.9491 45.2668ZM24.7439 44.7703L28.1889 38.7677L28.1889 38.7676L24.7439 44.7703ZM21.6718 43.8656L25.3103 49.753L25.3105 49.7528L21.6718 43.8656ZM16.3571 53.2515L23.2779 53.3049L23.2779 53.3048L16.3571 53.2515ZM26.1973 54.4101L26.0455 61.3294L26.0455 61.3294L26.1973 54.4101ZM36.0449 54.6261L42.9638 54.4602L42.8054 47.8518L36.1967 47.7068L36.0449 54.6261ZM36.2625 63.7013L43.1814 63.5354L43.1814 63.5354L36.2625 63.7013ZM36.48 72.7764L36.4789 79.6974L43.569 79.6986L43.399 72.6105L36.48 72.7764ZM27.3804 72.7749L27.3815 65.8539L27.381 65.8539L27.3804 72.7749ZM33.9562 64.4023L40.8715 64.6808L40.8715 64.6807L33.9562 64.4023ZM33.2823 57.6442L27.9566 62.0642L27.9566 62.0642L33.2823 57.6442ZM16.3271 56.5571V49.6361H12.441L10.4179 52.9542L16.3271 56.5571ZM14.7967 59.0673L8.88746 55.4643L8.88744 55.4643L14.7967 59.0673ZM18.6855 69.6843L17.0669 76.4133L17.0669 76.4133L18.6855 69.6843ZM27.549 70.2017L27.6927 77.1212L27.6928 77.1212L27.549 70.2017ZM33.7278 70.0732L33.8717 76.9927L40.3812 76.8574L40.6432 70.3517L33.7278 70.0732ZM11.7609 57.1681L5.55254 54.1094L5.55253 54.1095L11.7609 57.1681ZM9.59175 59.629L9.46621 52.7092L9.46462 52.7092L9.59175 59.629ZM9.96013 62.6333L6.58022 68.6729L6.58032 68.6729L9.96013 62.6333ZM13.0496 59.9165L19.2226 63.0459L19.2227 63.0458L13.0496 59.9165ZM14.8362 49.4911L20.8428 52.9291L20.8428 52.9291L14.8362 49.4911ZM21.1467 40.519L22.8976 47.2148L22.8977 47.2148L21.1467 40.519ZM20.8591 35.9408L14.8406 39.3581L14.8406 39.3581L20.8591 35.9408ZM9.46001 58.0967L9.54209 51.1762L9.53972 51.1762L9.46001 58.0967ZM34.5002 56.5571L28.6128 60.1957L28.6129 60.1958L34.5002 56.5571ZM26.3417 42.2099L21.0159 46.6298L21.0159 46.6299L26.3417 42.2099ZM24.5309 41.9017L19.5987 37.0465L19.5986 37.0465L24.5309 41.9017ZM25.223 43.892L29.3323 38.3231L29.3323 38.323L25.223 43.892ZM20.5978 41.8824L26.485 45.5211L26.4851 45.521L20.5978 41.8824ZM7.0816 33.0004L10.72 27.113L10.7191 27.1124L7.0816 33.0004ZM6.12096 30.8764L12.6966 28.7174L12.6965 28.7172L6.12096 30.8764ZM3.59044 29.6522L2.78627 36.5263L2.78673 36.5263L3.59044 29.6522ZM2.39296 30.6176L-2.93303 35.0373L-2.93281 35.0375L2.39296 30.6176ZM15.5775 71.4238L18.6705 65.2324C18.7108 65.2525 18.6663 65.2341 18.5536 65.1493C18.4458 65.0682 18.3167 64.9571 18.1841 64.8232C18.0514 64.6893 17.9428 64.5602 17.8648 64.4541C17.7829 64.343 17.7683 64.3032 17.7915 64.351L11.5638 67.3701L5.33599 70.3891C6.7708 73.3488 9.55026 76.1493 12.4845 77.6152L15.5775 71.4238ZM11.5638 67.3701L17.7915 64.3509C17.3461 63.4322 16.8336 62.4826 16.3514 61.6631C15.9612 61.0001 15.3136 59.94 14.6057 59.1309L9.39694 63.6882L4.18821 68.2455C4.00235 68.033 3.95204 67.9366 4.06798 68.1111C4.15012 68.2348 4.27122 68.4276 4.42196 68.6837C4.72516 69.1989 5.06063 69.8211 5.33603 70.3892L11.5638 67.3701ZM9.39694 63.6882L14.6057 59.1308C14.6506 59.1822 14.5212 59.0324 14.1863 58.5317C13.8871 58.0844 13.5184 57.4999 13.0954 56.7983C12.251 55.3978 11.2754 53.6724 10.3369 51.9274C9.39676 50.1794 8.53074 48.4801 7.89543 47.1325C7.57538 46.4536 7.34216 45.9236 7.19343 45.5531C6.97305 45.0041 7.10594 45.2161 7.19901 45.7873L0.368125 46.9003L-6.46276 48.0134C-6.28373 49.1121 -5.86837 50.1711 -5.65223 50.7095C-5.36445 51.4264 -5.00711 52.2244 -4.62499 53.0349C-3.85597 54.6662 -2.87125 56.592 -1.85381 58.4838C-0.834696 60.3787 0.25404 62.3079 1.24132 63.9454C2.12464 65.4104 3.21456 67.1327 4.18823 68.2455L9.39694 63.6882ZM0.368125 46.9003L7.19901 45.7872C7.29313 46.3649 7.13142 46.5569 7.31858 45.9614C7.52124 45.3166 7.97197 44.2411 8.91571 42.4305L2.7784 39.2315L-3.3589 36.0326C-5.27091 39.7008 -7.15257 43.7801 -6.46276 48.0134L0.368125 46.9003ZM2.7784 39.2315L8.91571 42.4305C9.58553 41.1454 10.2673 39.8519 10.738 38.7812C11.1284 37.893 11.9625 35.9403 11.7858 33.6284C11.5535 30.5884 9.82002 28.653 8.52463 27.6051C7.53468 26.8043 6.25996 26.1079 5.64031 25.754L2.20779 31.7638L-1.22473 37.7736C-0.74981 38.0449 -0.470716 38.2038 -0.24412 38.3415C-0.0132003 38.4818 -0.0457044 38.4761 -0.180669 38.367C-0.323184 38.2517 -0.768221 37.8727 -1.19106 37.1947C-1.66329 36.4375 -1.94854 35.5647 -2.01591 34.683C-2.07628 33.8928 -1.94317 33.3329 -1.89551 33.1551C-1.84894 32.9814 -1.82723 32.9686 -1.93398 33.2115C-2.03455 33.4403 -2.19205 33.7688 -2.44289 34.2633C-2.69221 34.7548 -2.98758 35.3202 -3.3589 36.0326L2.7784 39.2315ZM2.20779 31.7638L5.64039 25.7541C6.46504 26.2251 7.01082 26.8551 7.357 27.4842C7.66152 28.0377 8.18161 29.2834 7.85424 30.9833L1.05815 29.6744L-5.73794 28.3656C-6.20203 30.7754 -5.49162 32.8462 -4.77036 34.157C-4.00743 35.5436 -2.81847 36.8633 -1.22481 37.7736L2.20779 31.7638ZM1.05815 29.6744L7.85427 30.9831C7.785 31.3429 7.61072 32.0418 7.14414 32.8278C6.64514 33.6684 5.98041 34.3264 5.27357 34.7899C4.62939 35.2123 4.07715 35.3906 3.82828 35.4595C3.57698 35.529 3.45397 35.5356 3.55345 35.5244C3.78127 35.4986 4.33123 35.4663 5.47916 35.4687C6.58239 35.471 8.03395 35.5032 9.9787 35.5598L10.1799 28.6418L10.3811 21.7237C6.68392 21.6162 3.87813 21.5573 1.99645 21.7703C1.11891 21.8696 -0.6448 22.1183 -2.31682 23.2147C-4.56481 24.6888 -5.43956 26.8161 -5.73796 28.3657L1.05815 29.6744ZM10.1799 28.6418L9.9788 35.5598C12.2937 35.6271 14.4451 35.7624 16.0183 35.9177C16.8193 35.9967 17.3705 36.0712 17.6801 36.1256C17.8466 36.1548 17.822 36.1573 17.681 36.1176C17.6115 36.0981 17.4081 36.0391 17.1338 35.9259C16.9464 35.8485 16.2635 35.5635 15.5183 34.952L19.9083 29.6016L24.2984 24.2511C22.9901 23.1776 21.5446 22.8253 21.4299 22.793C20.9404 22.6553 20.4584 22.5596 20.0721 22.4919C19.2761 22.3522 18.3396 22.2375 17.3774 22.1426C15.4239 21.9499 12.9463 21.7983 10.381 21.7237L10.1799 28.6418ZM19.9083 29.6016L15.5181 34.9518C15.1392 34.6409 14.8985 34.3695 14.8452 34.3096C14.7585 34.2121 14.7096 34.149 14.7077 34.1467C14.7039 34.1418 14.7537 34.2064 14.8686 34.3723C15.0923 34.6951 15.4185 35.1924 15.8332 35.8522C16.6545 37.1591 17.7042 38.9145 18.7696 40.7845L24.7831 37.3584L30.7965 33.9324C29.6512 31.9221 28.4988 29.9921 27.553 28.4871C27.0841 27.741 26.6356 27.0508 26.2465 26.4892C26.0552 26.213 25.8391 25.9112 25.6167 25.6264C25.514 25.495 25.0141 24.8384 24.2986 24.2513L19.9083 29.6016ZM24.7831 37.3584L18.7696 40.7845C20.2335 43.354 20.966 44.8114 21.2747 45.5825C21.4444 46.0063 21.3069 45.7926 21.2461 45.2104C21.194 44.7107 21.0511 42.377 23.0553 40.3729L27.9491 45.2668L32.843 50.1607C35.1586 47.8451 35.1424 45.0109 35.0134 43.7746C34.8759 42.4559 34.458 41.2695 34.1251 40.4379C33.4285 38.698 32.2666 36.5126 30.7965 33.9324L24.7831 37.3584ZM27.9491 45.2668L23.0553 40.3729C23.5846 39.8436 24.3701 39.287 25.4085 38.9704C26.416 38.6632 27.2785 38.6989 27.816 38.7822C28.078 38.8228 28.2749 38.876 28.3939 38.9129C28.5134 38.9498 28.582 38.9788 28.5911 38.9827C28.5962 38.9848 28.4773 38.9332 28.1889 38.7677L24.7439 44.7703L21.2988 50.7729C22.2737 51.3324 23.8519 52.1752 25.6973 52.461C28.1797 52.8455 30.828 52.1756 32.843 50.1607L27.9491 45.2668ZM24.7439 44.7703L28.1889 38.7676C27.1391 38.1652 25.9723 37.6461 24.8265 37.3087C24.2689 37.1445 23.5101 36.9616 22.6524 36.8975C22.1273 36.8583 20.0823 36.7118 18.0332 37.9783L21.6718 43.8656L25.3105 49.7528C24.2734 50.3938 23.3196 50.5892 22.8147 50.6591C22.2723 50.7343 21.8497 50.7181 21.6216 50.701C21.1749 50.6677 20.9168 50.587 20.916 50.5868C20.8839 50.5773 21.0551 50.633 21.2988 50.773L24.7439 44.7703ZM21.6718 43.8656L18.0334 37.9782C16.7401 38.7774 15.8865 39.9066 15.7311 40.103C15.3529 40.5809 14.9854 41.107 14.66 41.5962C13.9982 42.5914 13.2782 43.7864 12.6223 44.9448C11.9664 46.103 11.3123 47.3348 10.7999 48.4134C10.5481 48.9434 10.2861 49.5294 10.071 50.1001C9.9859 50.3259 9.44818 51.657 9.43632 53.1983L16.3571 53.2515L23.2779 53.3048C23.2716 54.1196 23.1078 54.6966 23.0884 54.7683C23.0431 54.9361 23.0096 55.0187 23.0235 54.982C23.0497 54.9124 23.1337 54.7089 23.3029 54.3527C23.6324 53.6589 24.1199 52.7318 24.6673 51.7652C25.2146 50.7986 25.7595 49.9026 26.186 49.2611C26.4049 48.9321 26.5374 48.7534 26.5854 48.6927C26.6106 48.661 26.5589 48.7298 26.4411 48.8524C26.3902 48.9056 25.9893 49.3333 25.3103 49.753L21.6718 43.8656ZM16.3571 53.2515L9.43632 53.1982C9.41524 55.9329 10.8789 57.813 12.0184 58.7762C13.0335 59.6342 14.0695 60.0428 14.6003 60.229C15.7155 60.6201 16.9029 60.7962 17.7955 60.9012C19.7278 61.1288 22.4849 61.2512 26.0455 61.3294L26.1973 54.4101L26.3492 47.4908C22.7884 47.4126 20.6228 47.2966 19.414 47.1542C18.736 47.0744 18.7983 47.0327 19.1817 47.1672C19.3465 47.225 20.1149 47.4955 20.9542 48.205C21.9179 49.0196 23.2976 50.7406 23.2779 53.3049L16.3571 53.2515ZM26.1973 54.4101L26.0455 61.3294L35.8931 61.5454L36.0449 54.6261L36.1967 47.7068L26.3491 47.4908L26.1973 54.4101ZM36.0449 54.6261L29.1259 54.792L29.3435 63.8672L36.2625 63.7013L43.1814 63.5354L42.9638 54.4602L36.0449 54.6261ZM36.2625 63.7013L29.3435 63.8672L29.5611 72.9423L36.48 72.7764L43.399 72.6105L43.1814 63.5354L36.2625 63.7013ZM36.48 72.7764L36.4812 65.8554L27.3815 65.8539L27.3804 72.7749L27.3792 79.6959L36.4789 79.6974L36.48 72.7764ZM27.3804 72.7749L27.381 65.8539C19.9469 65.8533 19.0769 65.4354 18.6704 65.2323L15.5775 71.4238L12.4846 77.6152C16.3059 79.5241 20.5821 79.6953 27.3798 79.6959L27.3804 72.7749ZM33.9562 64.4023L40.8715 64.6807C40.9503 62.725 40.9275 60.8609 40.7689 59.2708C40.6905 58.4847 40.5647 57.6149 40.3462 56.7657C40.1815 56.1255 39.7562 54.6076 38.608 53.2242L33.2823 57.6442L27.9566 62.0642C27.4564 61.4615 27.2082 60.9261 27.1094 60.6941C26.9976 60.4314 26.9508 60.2532 26.9408 60.2144C26.9232 60.1461 26.9574 60.2644 26.9953 60.6441C27.0692 61.3855 27.1036 62.5634 27.0408 64.1238L33.9562 64.4023ZM33.2823 57.6442L38.6081 53.2242C37.323 51.6758 35.7433 50.9532 34.71 50.5949C33.6479 50.2266 32.5666 50.0409 31.6376 49.9278C29.7793 49.7016 27.3457 49.6361 24.3536 49.6361V56.5571V63.4781C27.3195 63.4781 29.0154 63.5527 29.9646 63.6683C30.4392 63.7261 30.4312 63.7617 30.1751 63.6729C29.9478 63.5941 28.9068 63.2092 27.9566 62.0642L33.2823 57.6442ZM24.3536 56.5571V49.6361H16.3271V56.5571V63.4781H24.3536V56.5571ZM16.3271 56.5571L10.4179 52.9542L8.88746 55.4643L14.7967 59.0673L20.7059 62.6702L22.2363 60.1601L16.3271 56.5571ZM14.7967 59.0673L8.88744 55.4643C6.64252 59.1463 5.59958 63.7053 7.20825 68.0972C8.86083 72.609 12.7346 75.3712 17.0669 76.4133L18.6855 69.6843L20.3041 62.9553C19.8664 62.85 19.77 62.7394 19.8481 62.8027C19.8864 62.8338 19.9532 62.8966 20.0258 62.9971C20.0989 63.0983 20.1611 63.2146 20.2057 63.3364C20.2501 63.4575 20.2675 63.5577 20.2731 63.6225C20.2785 63.6858 20.2714 63.6986 20.2786 63.6526C20.2937 63.5559 20.3709 63.2196 20.7059 62.6702L14.7967 59.0673ZM18.6855 69.6843L17.0669 76.4133C18.4643 76.7495 20.3809 76.9178 21.9932 77.0119C23.7709 77.1157 25.8004 77.1605 27.6927 77.1212L27.549 70.2017L27.4052 63.2822C25.8991 63.3135 24.2352 63.2772 22.7999 63.1935C22.0843 63.1517 21.4662 63.1004 20.9814 63.0464C20.4417 62.9864 20.2523 62.9428 20.3041 62.9552L18.6855 69.6843ZM27.549 70.2017L27.6928 77.1212L33.8717 76.9927L33.7278 70.0732L33.5839 63.1538L27.4051 63.2822L27.549 70.2017ZM33.7278 70.0732L40.6432 70.3517L40.8715 64.6808L33.9562 64.4023L27.0408 64.1238L26.8124 69.7948L33.7278 70.0732ZM14.8051 55.2823H21.7261C21.7261 54.4225 21.6408 50.802 18.2946 48.6203C14.5655 46.189 11.006 48.1019 10.132 48.6433C7.8908 50.0317 6.41457 52.3597 5.55254 54.1094L11.7609 57.1681L17.9693 60.2268C18.1221 59.9168 18.2373 59.757 18.259 59.7291C18.3394 59.6254 18.0914 59.9954 17.4215 60.4103C17.144 60.5823 14.0987 62.4087 10.7346 60.2154C9.19217 59.2098 8.48806 57.847 8.19146 56.9943C7.90428 56.1686 7.88415 55.5243 7.88415 55.2823H14.8051ZM11.7609 57.1681L5.55253 54.1095C5.45885 54.2996 5.37757 54.3879 5.4353 54.3224C5.45648 54.2984 5.65087 54.0749 6.03716 53.7988C6.23639 53.6564 6.58751 53.4274 7.08018 53.2159C7.55351 53.0127 8.38184 52.7289 9.46621 52.7092L9.59175 59.629L9.71728 66.5489C11.966 66.5081 13.5404 65.45 14.086 65.06C14.8254 64.5316 15.4047 63.9454 15.8191 63.4754C16.6631 62.5178 17.401 61.3805 17.9693 60.2268L11.7609 57.1681ZM9.59175 59.629L9.46462 52.7092C7.23812 52.7501 4.78603 53.7234 3.18196 55.9879C1.74943 58.0102 1.61274 60.19 1.79306 61.6605C2.14957 64.5678 3.95511 67.2038 6.58022 68.6729L9.96013 62.6333L13.34 56.5938C14.4263 57.2017 15.3326 58.3487 15.5321 59.9757C15.6339 60.806 15.6043 62.3978 14.4772 63.989C13.1786 65.8222 11.2303 66.5211 9.71887 66.5488L9.59175 59.629ZM9.96013 62.6333L6.58032 68.6729C7.25424 69.0501 8.75003 69.8064 10.7458 69.7946C13.0318 69.781 14.7932 68.7932 15.9442 67.781C16.9359 66.9088 17.5986 65.9181 17.9897 65.2875C18.4213 64.5917 18.8344 63.8117 19.2226 63.0459L13.0496 59.9165L6.87646 56.7871C6.53686 57.4571 6.33812 57.8119 6.22679 57.9914C6.07497 58.2362 6.26362 57.8612 6.80321 57.3867C7.5021 56.772 8.83313 55.9638 10.6636 55.9529C12.2039 55.9437 13.219 56.526 13.34 56.5937L9.96013 62.6333ZM13.0496 59.9165L19.2227 63.0458C19.8105 61.8863 20.3508 60.6628 20.7616 59.5785C20.9655 59.0401 21.1666 58.4596 21.3273 57.8904C21.4327 57.5171 21.7261 56.4726 21.7261 55.2823H14.8051H7.88415C7.88415 54.9842 7.906 54.7505 7.92257 54.6098C7.94 54.4619 7.95966 54.3499 7.97237 54.2837C7.99662 54.1573 8.01463 54.0992 8.00589 54.1301C7.98827 54.1925 7.93156 54.3732 7.8173 54.6748C7.5917 55.2703 7.25422 56.0419 6.87641 56.7872L13.0496 59.9165ZM14.8362 49.4911L20.8428 52.9291C22.1302 50.6799 23.4015 48.6753 24.3914 47.2678C24.8971 46.5489 25.2534 46.0944 25.4495 45.8685C25.5556 45.7461 25.516 45.8056 25.3533 45.9496C25.2703 46.0229 25.0684 46.196 24.7639 46.3949C24.512 46.5594 23.8587 46.9635 22.8976 47.2148L21.1467 40.519L19.3959 33.8231C17.5884 34.2958 16.4055 35.3842 16.1816 35.5823C15.7079 36.0014 15.3018 36.4427 14.9943 36.7971C14.363 37.5247 13.7032 38.4036 13.0695 39.3045C11.7808 41.1368 10.2807 43.5178 8.82956 46.053L14.8362 49.4911ZM21.1467 40.519L22.8977 47.2148C23.3686 47.0917 24.9963 46.6868 26.4643 45.5099C27.3409 44.8071 28.1991 43.8092 28.7563 42.4747C29.3005 41.1713 29.3967 39.9326 29.3356 38.9608C29.2295 37.2718 28.6024 35.8629 28.2843 35.1788C27.8949 34.3416 27.3899 33.426 26.8775 32.5235L20.8591 35.9408L14.8406 39.3581C15.3418 40.2409 15.6013 40.7321 15.7331 41.0156C15.9361 41.4521 15.5868 40.8777 15.5209 39.8289C15.48 39.1772 15.5368 38.2101 15.9831 37.1413C16.4424 36.0413 17.1439 35.241 17.806 34.7102C18.4083 34.2274 18.9387 33.997 19.1465 33.9136C19.3648 33.8258 19.4845 33.8 19.3957 33.8232L21.1467 40.519ZM20.8591 35.9408L26.8775 32.5236C25.709 30.4655 24.0716 27.7225 21.1886 25.9956C18.2415 24.2303 15.0496 24.1485 12.7266 24.1485V31.0695V37.9905C13.7733 37.9905 14.2652 38.034 14.4986 38.072C14.6524 38.0971 14.4207 38.0769 14.0757 37.8702C13.7418 37.6702 13.6447 37.4999 13.7912 37.6864C13.9789 37.9254 14.293 38.3937 14.8406 39.3581L20.8591 35.9408ZM12.7266 31.0695V24.1485C11.8141 24.1485 10.9044 24.1598 10.0914 24.2178C9.36849 24.2693 8.17218 24.3867 6.93809 24.8435C5.46159 25.3901 3.71221 26.5119 2.62589 28.6007C1.72421 30.3345 1.70531 31.986 1.70531 32.5876H8.62629H15.5473C15.5473 32.6308 15.5473 32.8926 15.4853 33.2688C15.4207 33.661 15.2721 34.2842 14.9064 34.9874C14.0324 36.6679 12.6403 37.4926 11.7437 37.8245C11.0895 38.0667 10.6957 38.0518 11.0754 38.0247C11.3652 38.0041 11.8584 37.9905 12.7266 37.9905V31.0695ZM8.62629 32.5876H1.70531C1.70531 31.9671 1.80294 31.5461 1.8118 31.5058C1.83475 31.4015 1.84538 31.38 1.81814 31.4656C1.76404 31.6355 1.64778 31.9563 1.45124 32.4243C1.06284 33.349 0.494784 34.5312 -0.142062 35.6898L5.92305 39.0236L11.9882 42.3574C12.8381 40.8112 13.6217 39.1928 14.2132 37.7845C14.5066 37.0859 14.7874 36.3571 15.0078 35.6646C15.1489 35.2216 15.5473 33.9744 15.5473 32.5876H8.62629ZM5.92305 39.0236L-0.142062 35.6898C-1.00924 37.2674 -1.80353 38.9398 -2.40092 40.4148C-2.69813 41.1486 -2.97956 41.9145 -3.19848 42.6476C-3.35942 43.1866 -3.70116 44.3795 -3.70116 45.698H3.21982H10.1408C10.1408 46.2214 10.0682 46.569 10.0602 46.6092C10.043 46.6946 10.0371 46.7009 10.0647 46.6083C10.1204 46.422 10.236 46.0869 10.4287 45.611C10.8112 44.6665 11.3686 43.4847 11.9882 42.3574L5.92305 39.0236ZM3.21982 45.698H-3.70116C-3.70116 47.1361 -3.2667 48.4447 -3.13019 48.8649C-2.90286 49.5645 -2.61399 50.3096 -2.31857 51.02C-1.72121 52.4565 -0.947875 54.1074 -0.17012 55.6527C0.603212 57.1893 1.44807 58.755 2.20504 59.9979C2.56803 60.594 3.00924 61.2793 3.48035 61.8843C3.69975 62.166 4.08442 62.6379 4.60098 63.1056C4.85863 63.3388 5.30682 63.7162 5.92317 64.0695C6.4669 64.3812 7.69362 64.9978 9.3803 65.0172L9.46001 58.0967L9.53972 51.1762C11.1718 51.195 12.3351 51.7901 12.8072 52.0607C13.3519 52.373 13.7204 52.6898 13.8907 52.8439C14.0833 53.0183 14.2145 53.1612 14.2783 53.2331C14.3476 53.311 14.3893 53.3641 14.4013 53.3794C14.4116 53.3927 14.2902 53.23 14.0272 52.7981C13.5321 51.9853 12.8716 50.7758 12.1942 49.4298C11.5212 48.0927 10.8984 46.7538 10.4623 45.7052C10.2411 45.173 10.1039 44.8017 10.0344 44.5877C9.99933 44.4799 10.0061 44.4868 10.0275 44.5805C10.032 44.6003 10.1408 45.0428 10.1408 45.698H3.21982ZM9.46001 58.0967L9.37794 65.0172C11.4102 65.0413 12.8177 64.166 13.1439 63.9631C13.6693 63.6365 14.0407 63.3082 14.2179 63.1451C14.59 62.8027 14.8614 62.4809 14.9836 62.3331C15.2631 61.9952 15.5175 61.6399 15.704 61.3718C16.1044 60.7963 16.5846 60.0525 17.0936 59.2379C18.1273 57.5832 19.4565 55.3513 20.8428 52.9291L14.8362 49.4911L8.82957 46.053C7.50519 48.3668 6.26929 50.4392 5.35419 51.904C4.88868 52.6491 4.54855 53.1689 4.34138 53.4667C4.22411 53.6353 4.22797 53.619 4.31739 53.5109C4.34465 53.4779 4.53618 53.2436 4.84445 52.9599C4.98975 52.8262 5.33329 52.5201 5.83486 52.2082C6.09363 52.0473 6.50516 51.8151 7.04559 51.6127C7.56683 51.4175 8.43725 51.1631 9.54209 51.1762L9.46001 58.0967ZM35.6587 56.5571H42.5797C42.5797 51.9416 38.7339 48.8638 34.8407 48.8638V55.7847V62.7057C31.8473 62.7057 28.7377 60.323 28.7377 56.5571H35.6587ZM34.8407 55.7847V48.8638C32.9033 48.8638 29.602 49.7464 28.0707 53.2192C26.7176 56.2875 27.8656 58.9867 28.6128 60.1957L34.5002 56.5571L40.3875 52.9185C40.8721 53.7027 41.9655 56.0157 40.7359 58.8041C39.328 61.9968 36.3283 62.7057 34.8407 62.7057V55.7847ZM34.5002 56.5571L28.6129 60.1958C29.0315 60.873 29.5615 61.5452 30.1856 62.1346C30.4922 62.4242 30.9574 62.8228 31.5705 63.1931C32.0058 63.4559 33.3811 64.2504 35.3181 64.2504V57.3295V50.4085C36.3278 50.4085 37.121 50.6339 37.5987 50.8071C38.0974 50.9879 38.4785 51.1946 38.7259 51.344C39.2091 51.6358 39.5307 51.921 39.6891 52.0706C40.0167 52.38 40.2314 52.666 40.3874 52.9184L34.5002 56.5571ZM35.3181 57.3295V64.2504C37.6542 64.2504 39.3318 63.1394 40.2522 62.2527C41.142 61.3954 41.6304 60.4866 41.8912 59.8951C42.4219 58.6918 42.5797 57.508 42.5797 56.5571H35.6587H28.7377C28.7377 56.031 28.8189 55.2334 29.226 54.3101C29.4251 53.8586 29.8401 53.0632 30.6484 52.2844C31.4874 51.4761 33.0757 50.4085 35.3181 50.4085V57.3295ZM26.3417 42.2099L31.6675 37.79C31.1937 37.219 29.5021 35.1785 26.5638 34.6784C22.9205 34.0583 20.4755 36.1557 19.5987 37.0465L24.5309 41.9017L29.4631 46.7569C29.2032 47.021 27.31 48.8465 24.2411 48.3241C22.9579 48.1057 22.0835 47.5472 21.6546 47.2207C21.2364 46.9023 21.0215 46.6365 21.0159 46.6298L26.3417 42.2099ZM24.5309 41.9017L19.5986 37.0465C19.0119 37.6426 18.1631 38.6669 17.663 40.1568C17.1076 41.8112 17.1513 43.5383 17.6925 45.0949C18.5606 47.5912 20.5075 49.0137 21.1137 49.461L25.223 43.892L29.3323 38.323C29.2397 38.2547 29.3843 38.3488 29.6161 38.5969C29.8291 38.8249 30.393 39.4742 30.7666 40.5486C31.1976 41.788 31.2389 43.2106 30.7852 44.562C30.3868 45.7489 29.7438 46.4717 29.4632 46.7568L24.5309 41.9017ZM25.223 43.892L21.1137 49.461C22.0529 50.154 23.5041 51.0167 25.3582 51.2902C27.3326 51.5815 30.696 51.1916 32.7809 48.0569C34.5517 45.3944 34.0528 42.6496 33.6676 41.3918C33.2188 39.9261 32.4362 38.7162 31.6675 37.79L26.3417 42.2099L21.0159 46.6299C20.9933 46.6026 20.6694 46.2188 20.4324 45.4449C20.2591 44.879 19.7253 42.6918 21.2553 40.3914C23.0993 37.6188 26.016 37.3955 27.3784 37.5965C28.6206 37.7797 29.2946 38.2953 29.3323 38.3231L25.223 43.892ZM21.7563 41.8824H28.6773C28.6773 40.9316 28.5195 39.7479 27.9889 38.5445C27.7281 37.953 27.2397 37.0441 26.3498 36.1868C25.4293 35.3 23.7517 34.1891 21.4157 34.1891V41.1101V48.031C19.1735 48.031 17.5853 46.9636 16.7461 46.1552C15.9377 45.3764 15.5228 44.5809 15.3236 44.1294C14.9165 43.206 14.8353 42.4084 14.8353 41.8824H21.7563ZM21.4157 41.1101V34.1891C19.4787 34.1891 18.1034 34.9836 17.6682 35.2464C17.0552 35.6166 16.59 36.0153 16.2834 36.3048C15.6592 36.8942 15.1291 37.5664 14.7105 38.2438L20.5978 41.8824L26.4851 45.521C26.329 45.7736 26.1142 46.0597 25.7866 46.3691C25.6281 46.5187 25.3066 46.8038 24.8234 47.0956C24.5761 47.245 24.1949 47.4517 23.6963 47.6325C23.2187 47.8056 22.4255 48.031 21.4157 48.031V41.1101ZM20.5978 41.8824L14.7105 38.2438C13.9632 39.4528 12.8152 42.1521 14.1683 45.2205C15.6997 48.6931 19.0009 49.5758 20.9384 49.5758V42.6548V35.7338C22.426 35.7338 25.4256 36.4427 26.8335 39.6353C28.0632 42.4238 26.9698 44.7369 26.485 45.5211L20.5978 41.8824ZM20.9384 42.6548V49.5758C24.8313 49.5758 28.6773 46.4982 28.6773 41.8824H21.7563H14.8353C14.8353 38.1163 17.9452 35.7338 20.9384 35.7338V42.6548ZM7.85395 33.8183H14.7749C14.7749 31.8818 13.9808 30.5067 13.7177 30.0709C13.3473 29.4576 12.9486 28.9923 12.6589 28.6856C12.0693 28.0613 11.3971 27.5314 10.72 27.113L7.0816 33.0004L3.44323 38.8879C3.19093 38.7319 2.90483 38.5172 2.59526 38.1894C2.44558 38.0309 2.16023 37.7092 1.86834 37.2258C1.7189 36.9783 1.51214 36.5971 1.33139 36.0984C1.15821 35.6206 0.932971 34.8276 0.932971 33.8183H7.85395ZM7.0816 33.0004L10.7191 27.1124C9.50994 26.3654 6.81133 25.2184 3.74381 26.5709C0.271626 28.102 -0.611738 31.4026 -0.611738 33.341H6.30924H13.2302C13.2302 34.8296 12.5206 37.8288 9.32844 39.2363C6.5409 40.4654 4.22848 39.373 3.44411 38.8884L7.0816 33.0004ZM6.30924 33.341H-0.611738C-0.611738 37.2346 2.46656 41.0798 7.0816 41.0798V34.1589V27.2379C10.8471 27.2379 13.2302 30.3471 13.2302 33.341H6.30924ZM7.0816 34.1589V41.0798C8.03219 41.0798 9.21593 40.9222 10.4193 40.3915C11.0109 40.1307 11.9199 39.6423 12.7773 38.7523C13.6643 37.8316 14.7749 36.154 14.7749 33.8183H7.85395H0.932971C0.932971 31.5763 2.00019 29.9881 2.80874 29.1488C3.58769 28.3402 4.38323 27.9252 4.8348 27.7261C5.75824 27.319 6.55581 27.2379 7.0816 27.2379V34.1589ZM6.12096 30.8764L12.6965 28.7172C12.1001 26.901 10.9618 25.7689 10.3215 25.2213C9.60078 24.6049 8.8618 24.179 8.26086 23.8883C7.05718 23.306 5.71398 22.9323 4.39414 22.778L3.59044 29.6522L2.78673 36.5263C2.68432 36.5143 2.51919 36.4873 2.23283 36.3487C2.09055 36.2799 1.74504 36.1002 1.32489 35.7409C0.985235 35.4504 0.0545914 34.5862 -0.454588 33.0356L6.12096 30.8764ZM3.59044 29.6522L4.3946 22.7781C3.91318 22.7217 3.22514 22.6458 2.56301 22.6357C2.23275 22.6307 1.65373 22.6354 0.979843 22.7481C0.422671 22.8413 -1.01736 23.131 -2.41573 24.2584C-4.20283 25.6992 -5.08476 27.8137 -5.05295 29.8859C-5.0281 31.5048 -4.45628 32.6947 -4.22728 33.1409C-3.75177 34.0676 -3.11417 34.819 -2.93303 35.0373L2.39296 30.6176L7.71894 26.1979C7.45396 25.8786 7.7752 26.2121 8.08786 26.8214C8.23544 27.109 8.76421 28.1653 8.78737 29.6734C8.81748 31.6348 7.97519 33.6613 6.27205 35.0344C4.95763 36.0941 3.64588 36.3364 3.26426 36.4003C2.76593 36.4836 2.40975 36.4769 2.35258 36.476C2.23662 36.4743 2.29577 36.4689 2.78627 36.5263L3.59044 29.6522ZM2.39296 30.6176L-2.93281 35.0375C-0.84776 37.5499 2.15181 38.5663 4.40281 38.7227C5.44338 38.7949 7.6367 38.7882 9.73049 37.3981C10.9331 36.5997 12.1468 35.292 12.7406 33.4169C13.3199 31.5872 13.0892 29.9134 12.6966 28.7174L6.12096 30.8764L-0.454665 33.0353C-0.732205 32.19 -0.955334 30.8165 -0.455609 29.2383C0.0585367 27.6146 1.10547 26.5095 2.07444 25.8662C3.70098 24.7864 5.15982 24.8999 5.3617 24.914C5.93531 24.9538 6.84061 25.1395 7.71872 26.1976L2.39296 30.6176Z" fill="#FFC727" mask="url(#path-2-inside-1_282_275)"/>
<path d="M44.2461 25.2563C44.7327 23.795 47.1433 23.587 47.1436 25.0063L47.1357 25.1382C47.0598 25.7834 46.4236 26.2221 45.5342 26.2222L45.3623 26.2173C44.5826 26.1745 44.1328 25.8371 44.2197 25.3608L44.2461 25.2563ZM66.5996 13.7573C66.2255 13.3832 66.0069 12.9847 65.8838 12.6079C66.3618 11.954 67.5739 11.2721 68.3857 11.1714C68.6327 11.4379 68.8814 11.8089 69.0225 12.2876C68.6186 13.0397 67.5924 13.8638 66.7432 13.8638C66.7324 13.8638 66.7217 13.862 66.7109 13.8618C66.6739 13.8282 66.6362 13.794 66.5996 13.7573Z" fill="#F6CB79" stroke="#FFC727" stroke-width="6.92098"/>
<mask id="path-5-inside-2_282_275" fill="white">
<path d="M22.2352 24.4501C17.7146 21.7693 15.4771 19.9807 15.4771 19.0479C15.4771 17.1203 22.0953 5.81951 24.8199 3.09491C26.791 1.12382 27.6971 0.830536 32.5147 0.604099C35.518 0.463105 41.9233 0.521204 46.7487 0.733717C56.7809 1.17532 58.0681 1.86574 61.5268 8.66075L63.3995 12.3398L65.66 11.1709C68.3571 9.77613 70.3142 9.66202 70.3142 10.8994C70.3142 11.9205 63.6977 23.5883 61.9541 25.642C60.9806 26.7886 59.4188 26.9936 51.658 26.9936C44.2001 26.9936 42.5094 26.7876 42.5094 25.8788C42.5094 25.2656 43.5521 24.148 44.8265 23.3952C46.1009 22.6424 47.13 21.667 47.1135 21.2275C47.0681 20.0214 42.1912 12.0819 41.3302 11.8124C40.9168 11.6831 38.8408 14.571 36.7168 18.2302C32.5417 25.423 30.3408 28.5615 29.5165 28.4981C29.2287 28.4747 25.9521 26.6544 22.2352 24.4501ZM47.1436 25.0062C47.1436 24.287 46.6181 23.893 45.8559 24.0408C43.9183 24.4165 43.6522 26.2213 45.5345 26.2213C46.4832 26.2213 47.1436 25.7227 47.1436 25.0062ZM33.8205 17.6632C36.0506 13.8172 37.8753 10.018 37.8753 9.22069C37.8753 7.0474 34.7137 3.88156 32.0301 3.36764C30.1858 3.01443 29.1276 3.36181 27.2557 4.93741C25.0871 6.76224 18.5665 16.9363 18.5665 18.4952C18.5665 19.1949 27.7608 24.6129 28.9932 24.6395C29.418 24.6482 31.5903 21.5093 33.8205 17.6632ZM61.8022 21.008C64.5141 16.6894 64.6043 16.0728 62.6988 14.8828C61.9087 14.3894 60.1844 12.0758 58.867 9.74153C55.5315 3.83145 54.1586 3.05072 47.1004 3.05072C43.8674 3.05072 41.0289 3.24399 40.7926 3.48038C40.5563 3.71683 42.2221 7.00861 44.4944 10.7958C49.8278 19.6848 51.0417 22.0657 50.511 22.5964C49.3632 23.7442 51.5086 24.6766 55.2974 24.6766C59.4708 24.6766 59.5135 24.6533 61.8022 21.008ZM68.6682 12.8272C69.1413 12.2571 69.312 11.5742 69.0474 11.3096C68.4195 10.6817 65.68 12.1533 65.68 13.1185C65.68 14.2182 67.6751 14.0237 68.6682 12.8272ZM41.7371 9.01522C41.7371 8.47255 41.1348 7.1692 40.3987 6.11889C39.6626 5.06859 39.1631 3.60102 39.2887 2.85763C39.4569 1.86256 38.995 1.50604 37.5377 1.50604C35.0539 1.50604 35.0426 2.47772 37.4891 5.68532C38.5511 7.07766 39.42 8.61847 39.42 9.10938C39.42 9.60026 39.9414 10.0019 40.5786 10.0019C41.2157 10.0019 41.7371 9.55789 41.7371 9.01522Z"/>
</mask>
<path d="M22.2352 24.4501C17.7146 21.7693 15.4771 19.9807 15.4771 19.0479C15.4771 17.1203 22.0953 5.81951 24.8199 3.09491C26.791 1.12382 27.6971 0.830536 32.5147 0.604099C35.518 0.463105 41.9233 0.521204 46.7487 0.733717C56.7809 1.17532 58.0681 1.86574 61.5268 8.66075L63.3995 12.3398L65.66 11.1709C68.3571 9.77613 70.3142 9.66202 70.3142 10.8994C70.3142 11.9205 63.6977 23.5883 61.9541 25.642C60.9806 26.7886 59.4188 26.9936 51.658 26.9936C44.2001 26.9936 42.5094 26.7876 42.5094 25.8788C42.5094 25.2656 43.5521 24.148 44.8265 23.3952C46.1009 22.6424 47.13 21.667 47.1135 21.2275C47.0681 20.0214 42.1912 12.0819 41.3302 11.8124C40.9168 11.6831 38.8408 14.571 36.7168 18.2302C32.5417 25.423 30.3408 28.5615 29.5165 28.4981C29.2287 28.4747 25.9521 26.6544 22.2352 24.4501ZM47.1436 25.0062C47.1436 24.287 46.6181 23.893 45.8559 24.0408C43.9183 24.4165 43.6522 26.2213 45.5345 26.2213C46.4832 26.2213 47.1436 25.7227 47.1436 25.0062ZM33.8205 17.6632C36.0506 13.8172 37.8753 10.018 37.8753 9.22069C37.8753 7.0474 34.7137 3.88156 32.0301 3.36764C30.1858 3.01443 29.1276 3.36181 27.2557 4.93741C25.0871 6.76224 18.5665 16.9363 18.5665 18.4952C18.5665 19.1949 27.7608 24.6129 28.9932 24.6395C29.418 24.6482 31.5903 21.5093 33.8205 17.6632ZM61.8022 21.008C64.5141 16.6894 64.6043 16.0728 62.6988 14.8828C61.9087 14.3894 60.1844 12.0758 58.867 9.74153C55.5315 3.83145 54.1586 3.05072 47.1004 3.05072C43.8674 3.05072 41.0289 3.24399 40.7926 3.48038C40.5563 3.71683 42.2221 7.00861 44.4944 10.7958C49.8278 19.6848 51.0417 22.0657 50.511 22.5964C49.3632 23.7442 51.5086 24.6766 55.2974 24.6766C59.4708 24.6766 59.5135 24.6533 61.8022 21.008ZM68.6682 12.8272C69.1413 12.2571 69.312 11.5742 69.0474 11.3096C68.4195 10.6817 65.68 12.1533 65.68 13.1185C65.68 14.2182 67.6751 14.0237 68.6682 12.8272ZM41.7371 9.01522C41.7371 8.47255 41.1348 7.1692 40.3987 6.11889C39.6626 5.06859 39.1631 3.60102 39.2887 2.85763C39.4569 1.86256 38.995 1.50604 37.5377 1.50604C35.0539 1.50604 35.0426 2.47772 37.4891 5.68532C38.5511 7.07766 39.42 8.61847 39.42 9.10938C39.42 9.60026 39.9414 10.0019 40.5786 10.0019C41.2157 10.0019 41.7371 9.55789 41.7371 9.01522Z" fill="#FFC727"/>
<path d="M22.2352 24.4501L25.7655 18.4972L25.7654 18.4972L22.2352 24.4501ZM24.8199 3.09491L19.9261 -1.79897L19.926 -1.79894L24.8199 3.09491ZM32.5147 0.604099L32.1901 -6.30926L32.1897 -6.30924L32.5147 0.604099ZM46.7487 0.733717L46.4442 7.64799L46.4443 7.648L46.7487 0.733717ZM61.5268 8.66075L67.6947 5.5212L67.6947 5.52119L61.5268 8.66075ZM63.3995 12.3398L57.2316 15.4794L60.3914 21.687L66.5786 18.4874L63.3995 12.3398ZM65.66 11.1709L68.839 17.3185L68.8391 17.3185L65.66 11.1709ZM61.9541 25.642L67.23 30.1214L67.23 30.1213L61.9541 25.642ZM44.8265 23.3952L41.3065 17.4362L41.3064 17.4362L44.8265 23.3952ZM47.1135 21.2275L40.1974 21.4878L40.1974 21.4878L47.1135 21.2275ZM41.3302 11.8124L43.3976 5.20742L43.3965 5.20709L41.3302 11.8124ZM36.7168 18.2302L42.7025 21.7046L42.7025 21.7046L36.7168 18.2302ZM29.5165 28.4981L28.9567 35.3964L28.9712 35.3975L28.9857 35.3987L29.5165 28.4981ZM45.8559 24.0408L44.5383 17.2464L44.5383 17.2464L45.8559 24.0408ZM33.8205 17.6632L27.8332 14.1915L27.8332 14.1915L33.8205 17.6632ZM32.0301 3.36764L30.7284 10.1651L30.7284 10.1651L32.0301 3.36764ZM27.2557 4.93741L31.7118 10.233L31.7126 10.2323L27.2557 4.93741ZM28.9932 24.6395L28.8441 31.5588L28.8506 31.559L28.9932 24.6395ZM61.8022 21.008L55.941 17.3274L55.9407 17.3279L61.8022 21.008ZM62.6988 14.8828L66.3649 9.01254L66.3648 9.01251L62.6988 14.8828ZM58.867 9.74153L52.8396 13.1432L52.8396 13.1432L58.867 9.74153ZM40.7926 3.48038L35.8977 -1.41249L35.8972 -1.41198L40.7926 3.48038ZM44.4944 10.7958L50.4291 7.23498L50.4291 7.23498L44.4944 10.7958ZM50.511 22.5964L45.6172 17.7025L45.6171 17.7025L50.511 22.5964ZM68.6682 12.8272L73.9939 17.2472L73.9939 17.2472L68.6682 12.8272ZM69.0474 11.3096L73.9413 6.41578L73.9412 6.41576L69.0474 11.3096ZM41.7371 9.01522L34.8161 9.01522L34.8161 9.01526L41.7371 9.01522ZM39.2887 2.85763L32.4645 1.70432L32.4645 1.70441L39.2887 2.85763ZM37.4891 5.68532L31.9862 9.88262L31.9862 9.88262L37.4891 5.68532ZM22.2352 24.4501L25.7654 18.4972C23.5949 17.21 22.2301 16.2852 21.4823 15.6874C21.0923 15.3757 21.0871 15.3233 21.2414 15.5107C21.325 15.6123 21.5632 15.9137 21.8014 16.4016C22.0327 16.8753 22.398 17.7993 22.398 19.0479H15.4771H8.55608C8.55608 21.7956 10.0412 23.6841 10.5532 24.3063C11.2683 25.1752 12.1051 25.9125 12.8395 26.4995C14.3406 27.6995 16.3549 29.0094 18.7049 30.403L22.2352 24.4501ZM15.4771 19.0479H22.398C22.398 20.1917 22.0553 20.8643 22.2503 20.3422C22.3331 20.1205 22.5027 19.7217 22.7861 19.1347C23.3444 17.9786 24.1608 16.4698 25.0989 14.8679C26.0319 13.2749 27.0305 11.6832 27.9299 10.3634C28.3795 9.70367 28.7814 9.14559 29.1194 8.70668C29.2873 8.48869 29.4268 8.3166 29.5375 8.18647C29.5921 8.12232 29.6352 8.07362 29.6671 8.0386C29.6995 8.00306 29.7149 7.98772 29.7138 7.98876L24.8199 3.09491L19.926 -1.79894C17.8459 0.281188 15.1044 4.54343 13.1546 7.87266C12.0976 9.6775 11.0892 11.5256 10.3213 13.1157C9.94174 13.9018 9.573 14.7233 9.28319 15.4993C9.1056 15.9748 8.55608 17.4222 8.55608 19.0479H15.4771ZM24.8199 3.09491L29.7138 7.98879C30.1107 7.59193 30.2088 7.53117 30.1629 7.56351C30.044 7.64729 29.869 7.73528 29.7313 7.77985C29.6653 7.80121 29.7926 7.7504 30.3386 7.68835C30.8919 7.62548 31.6611 7.57283 32.8396 7.51744L32.5147 0.604099L32.1897 -6.30924C29.9435 -6.20367 27.5724 -6.07037 25.4684 -5.38933C22.847 -4.54077 21.1942 -3.06709 19.9261 -1.79897L24.8199 3.09491ZM32.5147 0.604099L32.8392 7.51746C35.547 7.39034 41.7198 7.43993 46.4442 7.64799L46.7487 0.733717L47.0532 -6.18056C42.1268 -6.39752 35.489 -6.46413 32.1901 -6.30926L32.5147 0.604099ZM46.7487 0.733717L46.4443 7.648C48.9489 7.75825 50.5962 7.87396 51.7975 8.0505C52.9696 8.22275 53.3065 8.40035 53.3313 8.41366C53.3319 8.41398 53.3245 8.40757 53.3367 8.41864C53.3585 8.43832 53.45 8.52476 53.6156 8.74743C54.0015 9.26648 54.5069 10.1264 55.3589 11.8003L61.5268 8.66075L67.6947 5.52119C66.0438 2.27788 64.0282 -1.55608 59.8743 -3.78424C56.2067 -5.75156 51.6442 -5.97847 47.0531 -6.18056L46.7487 0.733717ZM61.5268 8.66075L55.3589 11.8003L57.2316 15.4794L63.3995 12.3398L69.5674 9.20027L67.6947 5.5212L61.5268 8.66075ZM63.3995 12.3398L66.5786 18.4874L68.839 17.3185L65.66 11.1709L62.4809 5.02327L60.2204 6.19219L63.3995 12.3398ZM65.66 11.1709L68.8391 17.3185C69.8341 16.8039 69.9864 16.9232 69.4015 16.9573C69.1605 16.9714 67.8094 17.0406 66.2887 16.0867C65.4438 15.5568 64.6433 14.762 64.0898 13.7019C63.5487 12.6656 63.3932 11.6645 63.3932 10.8994H70.3142H77.2352C77.2352 8.4673 76.0981 5.90004 73.6438 4.3606C71.6719 3.12374 69.6629 3.07661 68.5955 3.13886C66.3578 3.26937 64.1829 4.14309 62.4809 5.02327L65.66 11.1709ZM70.3142 10.8994H63.3932C63.3932 10.1293 63.5298 9.55754 63.5674 9.40174C63.6229 9.1719 63.6766 9.01257 63.6952 8.95843C63.7327 8.84939 63.7433 8.83647 63.6871 8.96473C63.5818 9.20513 63.3861 9.61535 63.0878 10.2002C62.5023 11.3482 61.6739 12.8713 60.7676 14.4695C59.8644 16.0623 58.9194 17.6667 58.1107 18.9737C57.7053 19.6288 57.3529 20.1788 57.0693 20.6007C56.7485 21.0782 56.6322 21.2168 56.6781 21.1627L61.9541 25.642L67.23 30.1213C68.0577 29.1464 69.0611 27.5828 69.8812 26.2576C70.8034 24.7673 71.8395 23.0059 72.8083 21.2974C73.7741 19.5943 74.7088 17.8807 75.4184 16.4896C75.7676 15.8049 76.1025 15.12 76.3659 14.5189C76.494 14.2264 76.6484 13.8561 76.7837 13.4629C76.8196 13.3586 77.2352 12.2531 77.2352 10.8994H70.3142ZM61.9541 25.642L56.6781 21.1626C57.0493 20.7255 57.5887 20.2918 58.2067 20.0162C58.6615 19.8133 58.8693 19.8307 58.4505 19.8857C58.052 19.938 57.3688 19.991 56.1989 20.0257C55.0517 20.0597 53.5819 20.0726 51.658 20.0726V26.9936V33.9146C55.4203 33.9146 58.2336 33.8749 60.2521 33.6099C62.5831 33.3039 65.1771 32.5393 67.23 30.1214L61.9541 25.642ZM51.658 26.9936V20.0726C47.8227 20.0726 45.9814 20.0113 45.1242 19.9068C44.9546 19.8862 44.9637 19.8791 45.0862 19.9091C45.184 19.9331 45.6052 20.0398 46.1545 20.3336C46.7271 20.6399 47.6402 21.259 48.3823 22.3894C49.1693 23.5883 49.4304 24.8521 49.4304 25.8788H42.5094H35.5885C35.5885 27.1327 35.9024 28.6018 36.811 29.9858C37.6747 31.3015 38.7781 32.0858 39.6258 32.5392C41.1036 33.3296 42.6423 33.5488 43.4498 33.6472C45.3025 33.8729 48.0354 33.9146 51.658 33.9146V26.9936ZM42.5094 25.8788H49.4304C49.4304 26.7569 49.2496 27.4443 49.1059 27.8649C48.9575 28.299 48.7904 28.6186 48.6784 28.8115C48.4624 29.1838 48.2798 29.3793 48.2507 29.4105C48.1875 29.4784 48.2382 29.4181 48.3466 29.3541L44.8265 23.3952L41.3064 17.4362C40.1404 18.125 39.0326 19 38.1294 19.9682C37.6803 20.4495 37.1575 21.0865 36.7061 21.8643C36.3336 22.5063 35.5885 23.9497 35.5885 25.8788H42.5094ZM44.8265 23.3952L48.3465 29.3541C49.3633 28.7535 50.3701 28.0179 51.2151 27.2171C51.6247 26.8288 52.155 26.2762 52.6353 25.5815C52.9014 25.1966 54.1231 23.4533 54.0296 20.9673L47.1135 21.2275L40.1974 21.4878C40.1492 20.2069 40.482 19.2414 40.6772 18.7696C40.8899 18.2556 41.1213 17.8953 41.2494 17.71C41.3887 17.5084 41.5053 17.3717 41.5676 17.3018C41.634 17.2273 41.6789 17.184 41.6931 17.1706C41.709 17.1555 41.5641 17.284 41.3065 17.4362L44.8265 23.3952ZM47.1135 21.2275L54.0296 20.9673C53.9703 19.3912 53.3656 18.0401 53.2718 17.8159C53.0291 17.2361 52.7358 16.6382 52.4533 16.0945C51.8786 14.9885 51.1495 13.7258 50.425 12.5463C49.7024 11.37 48.9125 10.1593 48.1999 9.17335C47.854 8.69476 47.4455 8.15649 47.0193 7.67228C46.8124 7.43714 46.5016 7.10026 46.1152 6.75931C45.9213 6.58833 44.9307 5.68731 43.3976 5.20742L41.3302 11.8124L39.2627 18.4174C38.4303 18.1568 37.8493 17.7954 37.5862 17.6202C37.2848 17.4195 37.0707 17.2388 36.9579 17.1393C36.8358 17.0316 36.7507 16.9463 36.7073 16.9017C36.6612 16.8542 36.6344 16.8239 36.6287 16.8174C36.6202 16.8078 36.6492 16.8405 36.7198 16.9311C36.7871 17.0175 36.8744 17.1337 36.9815 17.2819C37.4269 17.898 38.0205 18.7981 38.6304 19.7912C39.2385 20.781 39.7909 21.7462 40.1703 22.4764C40.3649 22.8509 40.4667 23.0733 40.5028 23.1595C40.5218 23.2048 40.4875 23.1296 40.4375 22.9673C40.4113 22.8826 40.3661 22.7269 40.3221 22.5176C40.2818 22.3257 40.2153 21.9619 40.1974 21.4878L47.1135 21.2275ZM41.3302 11.8124L43.3965 5.20709C41.2379 4.53182 39.4557 5.08852 38.7257 5.37235C37.9041 5.69177 37.3103 6.09764 37.0056 6.3213C36.3776 6.78214 35.9044 7.27397 35.6484 7.55135C35.0807 8.16625 34.5256 8.89268 34.0453 9.56092C33.0445 10.9532 31.8728 12.7889 30.7311 14.7558L36.7168 18.2302L42.7025 21.7046C43.6848 20.0123 44.6131 18.5745 45.2846 17.6403C45.4477 17.4134 45.5811 17.2366 45.6836 17.1066C45.7921 16.969 45.8351 16.9231 45.8189 16.9407C45.8089 16.9516 45.7607 17.0034 45.6783 17.081C45.6044 17.1507 45.4392 17.3015 45.1952 17.4806C44.9909 17.6305 44.4862 17.984 43.7415 18.2736C43.0883 18.5275 41.3707 19.0768 39.2638 18.4177L41.3302 11.8124ZM36.7168 18.2302L30.7311 14.7558C28.6599 18.3241 27.189 20.692 26.1936 22.1115C25.6753 22.8505 25.4434 23.1039 25.4451 23.1021C25.4609 23.0859 25.5216 23.0244 25.6247 22.936C25.7233 22.8515 25.9077 22.7018 26.1726 22.5331C26.5243 22.309 27.9518 21.4363 30.0472 21.5975L29.5165 28.4981L28.9857 35.3987C31.2872 35.5757 32.9638 34.6188 33.61 34.2071C34.3877 33.7117 34.9795 33.1515 35.3593 32.7618C36.136 31.9646 36.8697 30.9957 37.5267 30.0589C38.8815 28.1268 40.5986 25.3291 42.7025 21.7046L36.7168 18.2302ZM29.5165 28.4981L30.0763 21.5998C30.7275 21.6526 31.2165 21.7889 31.3744 21.8338C31.5923 21.8958 31.7578 21.9553 31.8423 21.9867C32.0114 22.0497 32.1204 22.0995 32.1278 22.1029C32.1551 22.1153 32.1049 22.0929 31.942 22.0093C31.6341 21.8511 31.1566 21.5942 30.5241 21.2426C29.2733 20.5474 27.5823 19.5747 25.7655 18.4972L22.2352 24.4501L18.7049 30.403C20.605 31.5298 22.4107 32.5694 23.7994 33.3413C24.4867 33.7233 25.1146 34.0635 25.6181 34.3222C25.861 34.4469 26.143 34.5878 26.4191 34.7128C26.5509 34.7725 26.7633 34.866 27.0139 34.9592C27.0328 34.9663 27.8764 35.3087 28.9567 35.3964L29.5165 28.4981ZM47.1436 25.0062H54.0645C54.0645 22.9013 53.2271 20.3778 50.9374 18.661C48.7477 17.0192 46.2867 16.9073 44.5383 17.2464L45.8559 24.0408L47.1735 30.8352C46.1873 31.0264 44.3701 31.0376 42.6337 29.7357C40.7973 28.3587 40.2226 26.3919 40.2226 25.0062H47.1436ZM45.8559 24.0408L44.5383 17.2464C42.0774 17.7236 38.0931 19.6679 37.4158 24.2626C37.0347 26.8478 37.9873 29.4951 40.0799 31.244C41.9492 32.8063 44.08 33.1423 45.5345 33.1423V26.2213V19.3004C46.0479 19.3004 47.506 19.4108 48.9565 20.623C50.6301 22.0217 51.4174 24.1943 51.1097 26.2813C50.5793 29.8797 47.6969 30.7337 47.1736 30.8351L45.8559 24.0408ZM45.5345 26.2213V33.1423C47.1557 33.1423 49.123 32.7215 50.8656 31.4055C52.7332 29.9952 54.0645 27.7139 54.0645 25.0062H47.1436H40.2226C40.2226 23.015 41.2237 21.3413 42.524 20.3594C43.6993 19.4719 44.862 19.3004 45.5345 19.3004V26.2213ZM33.8205 17.6632L39.8077 21.135C40.9982 19.0819 42.0987 17.0111 42.9229 15.2951C43.3305 14.4464 43.7099 13.6029 44.004 12.8484C44.1491 12.476 44.3084 12.0363 44.4414 11.5763C44.5285 11.2749 44.7963 10.3462 44.7963 9.22069H37.8753H30.9543C30.9543 8.67093 31.0262 8.26261 31.057 8.10177C31.0941 7.9083 31.1308 7.77757 31.1437 7.73299C31.1682 7.64833 31.1675 7.66638 31.1067 7.82237C30.989 8.12459 30.7728 8.62079 30.4455 9.30231C29.7998 10.6467 28.8729 12.3985 27.8332 14.1915L33.8205 17.6632ZM37.8753 9.22069H44.7963C44.7963 7.09047 44.0591 5.30882 43.3928 4.10657C42.6876 2.8342 41.7868 1.71312 40.8562 0.78133C39.1301 -0.94715 36.4828 -2.8264 33.3319 -3.42981L32.0301 3.36764L30.7284 10.1651C30.5498 10.1309 30.4523 10.0918 30.4383 10.0861C30.4217 10.0793 30.452 10.0905 30.5228 10.1329C30.6758 10.2244 30.8757 10.376 31.0619 10.5625C31.2572 10.758 31.3145 10.868 31.286 10.8166C31.2675 10.7832 31.1964 10.6501 31.124 10.417C31.0531 10.1882 30.9543 9.77686 30.9543 9.22069H37.8753ZM32.0301 3.36764L33.3319 -3.42981C31.7108 -3.74025 29.7083 -3.87415 27.4921 -3.14568C25.4865 -2.48646 23.937 -1.31554 22.7988 -0.357501L27.2557 4.93741L31.7126 10.2323C32.047 9.95088 32.2055 9.84355 32.2439 9.81916C32.2659 9.80517 32.1112 9.90656 31.8144 10.0041C31.4939 10.1095 31.1721 10.1568 30.9034 10.162C30.6706 10.1665 30.5808 10.1368 30.7284 10.1651L32.0301 3.36764ZM27.2557 4.93741L22.7997 -0.358225C21.5568 0.687603 20.3066 2.29439 19.4252 3.4822C18.3952 4.87026 17.2869 6.49632 16.2709 8.08151C15.2595 9.6596 14.2772 11.2945 13.5217 12.7016C13.1496 13.3945 12.777 14.1348 12.478 14.8407C12.3295 15.1912 12.1575 15.6305 12.0124 16.1133C11.9001 16.4865 11.6455 17.3841 11.6455 18.4952H18.5665H25.4874C25.4874 19.4115 25.2837 20.0469 25.2681 20.0989C25.2195 20.2605 25.1897 20.3196 25.2238 20.2392C25.2899 20.0831 25.4436 19.7586 25.7167 19.2499C26.2516 18.2539 27.035 16.9389 27.9248 15.5505C28.8101 14.1693 29.7385 12.8122 30.5411 11.7307C31.4922 10.4489 31.8703 10.0996 31.7118 10.233L27.2557 4.93741ZM18.5665 18.4952H11.6455C11.6455 20.2613 12.3116 21.5278 12.5712 21.986C12.8963 22.5599 13.238 22.9788 13.4378 23.2095C13.8439 23.6785 14.2506 24.0366 14.4886 24.2383C15.004 24.6752 15.5885 25.0967 16.0974 25.4472C17.1592 26.1782 18.4967 27.0121 19.804 27.7825C21.1169 28.5562 22.5182 29.3357 23.7253 29.945C24.3189 30.2447 24.9555 30.5489 25.5567 30.7964C25.8537 30.9187 26.2326 31.0648 26.6484 31.192C26.9337 31.2792 27.7843 31.536 28.8441 31.5588L28.9932 24.6395L29.1424 17.7201C29.6675 17.7314 30.0657 17.8045 30.254 17.8434C30.4669 17.8873 30.6218 17.9323 30.6977 17.9556C30.8434 18.0001 30.8984 18.0264 30.8261 17.9966C30.6885 17.94 30.4046 17.8112 29.9629 17.5882C29.0995 17.1523 27.9711 16.5286 26.8314 15.857C25.6861 15.1822 24.6479 14.5287 23.9472 14.0463C23.5749 13.7899 23.4315 13.6731 23.4393 13.6797C23.4516 13.6901 23.4965 13.7285 23.5633 13.792C23.6243 13.85 23.7489 13.9719 23.9023 14.149C24.0344 14.3015 24.3243 14.6503 24.6146 15.1627C24.7653 15.4288 24.9652 15.8245 25.1353 16.3318C25.3028 16.8317 25.4874 17.5765 25.4874 18.4952H18.5665ZM28.9932 24.6395L28.8506 31.559C30.816 31.5995 32.2087 30.802 32.6068 30.5674C33.1764 30.2318 33.5941 29.8811 33.8208 29.6802C34.2893 29.2651 34.6652 28.8384 34.9007 28.5595C35.4072 27.9598 35.9327 27.2409 36.4211 26.5351C37.4257 25.0833 38.6251 23.1745 39.8077 21.135L33.8205 17.6632L27.8332 14.1915C26.7857 15.998 25.7838 17.5817 25.0386 18.6587C24.6521 19.2173 24.4154 19.5219 24.3255 19.6284C24.2628 19.7026 24.3818 19.5498 24.6415 19.3197C24.7638 19.2113 25.0891 18.931 25.5791 18.6422C25.8329 18.4926 26.2341 18.2792 26.7599 18.0959C27.2708 17.9177 28.0971 17.6985 29.1359 17.7199L28.9932 24.6395ZM61.8022 21.008L67.6633 24.6885C68.342 23.6079 68.9828 22.5616 69.4781 21.6212C69.9201 20.7818 70.5913 19.4058 70.83 17.7746C71.1347 15.6933 70.6989 13.4931 69.302 11.6105C68.2418 10.1817 66.8898 9.34036 66.3649 9.01254L62.6988 14.8828L59.0327 20.753C59.1702 20.8389 59.1263 20.8195 59.0045 20.7224C58.8811 20.6241 58.5446 20.3421 58.1859 19.8587C57.7964 19.3338 57.4301 18.6373 57.231 17.7922C57.0365 16.9667 57.0626 16.2581 57.134 15.7698C57.2494 14.9813 57.5086 14.6435 57.2306 15.1715C57.0057 15.5985 56.6184 16.2487 55.941 17.3274L61.8022 21.008ZM62.6988 14.8828L66.3648 9.01251C66.7629 9.2611 66.9986 9.47794 67.0413 9.51716C67.11 9.58026 67.1221 9.59797 67.0736 9.5446C66.9749 9.43595 66.7886 9.21368 66.5299 8.86658C66.015 8.1758 65.4135 7.25977 64.8943 6.33989L58.867 9.74153L52.8396 13.1432C53.6379 14.5576 54.5572 15.9655 55.4314 17.1384C55.8672 17.7231 56.3424 18.3177 56.8304 18.8545C57.2071 19.269 57.9888 20.1011 59.0328 20.7531L62.6988 14.8828ZM58.867 9.74153L64.8943 6.33991C63.293 3.50247 61.3105 0.159263 57.8008 -1.83648C54.3554 -3.79565 50.4493 -3.87025 47.1004 -3.87025V3.05072V9.9717C48.8064 9.9717 49.8123 10.0239 50.4807 10.1182C51.0764 10.2022 51.1114 10.283 50.9586 10.1962C50.7939 10.1025 50.8479 10.0651 51.1645 10.4695C51.536 10.9439 52.0382 11.7231 52.8396 13.1432L58.867 9.74153ZM47.1004 3.05072V-3.87025C45.3651 -3.87025 43.6862 -3.81891 42.3524 -3.72807C41.7029 -3.68384 41.0233 -3.62293 40.4179 -3.53406C40.1321 -3.4921 39.7057 -3.4217 39.2451 -3.30106C39.0196 -3.24197 38.6417 -3.134 38.2047 -2.95192C37.9148 -2.83109 36.8818 -2.39702 35.8977 -1.41249L40.7926 3.48038L45.6874 8.37325C45.154 8.90685 44.6435 9.24005 44.333 9.42279C44.0029 9.61708 43.7184 9.74616 43.5289 9.82512C43.1611 9.9784 42.8716 10.058 42.7525 10.0892C42.505 10.154 42.3644 10.1705 42.4285 10.1611C42.5228 10.1472 42.7992 10.1155 43.293 10.0819C44.2459 10.017 45.6027 9.9717 47.1004 9.9717V3.05072ZM40.7926 3.48038L35.8972 -1.41198C33.8594 0.627051 33.852 3.06938 33.8494 3.51899C33.8446 4.32025 33.977 4.95731 34.0428 5.24607C34.187 5.87817 34.3924 6.4236 34.515 6.73379C34.7892 7.4279 35.1572 8.19982 35.5275 8.93155C36.2929 10.4442 37.3638 12.3635 38.5597 14.3566L44.4944 10.7958L50.4291 7.23498C49.3527 5.44095 48.4545 3.82068 47.8781 2.68158C47.5774 2.0874 47.4312 1.75534 47.3885 1.6474C47.3526 1.55656 47.4489 1.77643 47.5383 2.16846C47.5768 2.33719 47.6954 2.87558 47.6911 3.6008C47.6889 3.97479 47.6544 4.61186 47.4418 5.3733C47.229 6.13492 46.7568 7.30317 45.6879 8.37274L40.7926 3.48038ZM44.4944 10.7958L38.5597 14.3566C41.2505 18.8412 42.7596 21.4514 43.5359 22.9741C43.9553 23.7965 43.9547 23.9105 43.881 23.6479C43.8455 23.5212 43.6621 22.8669 43.7127 21.929C43.7698 20.8697 44.1577 19.1619 45.6172 17.7025L50.511 22.5964L55.4048 27.4904C56.997 25.8982 57.4631 24 57.5345 22.6742C57.5995 21.4697 57.3666 20.4729 57.2086 19.9095C56.8899 18.7734 56.3521 17.6371 55.8676 16.6868C54.8363 14.6641 53.0718 11.6394 50.4291 7.23498L44.4944 10.7958ZM50.511 22.5964L45.6171 17.7025C44.2999 19.0198 42.2823 22.1185 43.8105 25.9625C44.9595 28.8528 47.4284 30.038 48.2944 30.4144C50.4681 31.3591 53.0874 31.5976 55.2974 31.5976V24.6766V17.7556C53.7186 17.7556 53.3708 17.5279 53.8115 17.7195C53.9819 17.7935 54.3955 17.9888 54.8855 18.3868C55.3674 18.7783 56.1617 19.5623 56.6732 20.8488C57.2361 22.2647 57.2542 23.7934 56.8167 25.1457C56.4232 26.3618 55.7674 27.1278 55.4049 27.4903L50.511 22.5964ZM55.2974 24.6766V31.5976C56.2238 31.5976 57.3796 31.6029 58.403 31.5063C59.5373 31.3993 61.0751 31.1293 62.656 30.2379C64.2204 29.3557 65.245 28.192 65.9184 27.3055C66.5374 26.4906 67.1504 25.5055 67.6637 24.688L61.8022 21.008L55.9407 17.3279C55.6479 17.7942 55.4308 18.1389 55.2428 18.4267C55.0544 18.715 54.9498 18.8618 54.8959 18.9326C54.7872 19.0757 55.1112 18.6013 55.8572 18.1807C56.2204 17.9758 56.5566 17.8551 56.8102 17.7877C57.0399 17.7268 57.1647 17.7198 57.1023 17.7256C57.0352 17.732 56.876 17.7425 56.5488 17.7488C56.2218 17.755 55.8326 17.7556 55.2974 17.7556V24.6766ZM68.6682 12.8272L73.9939 17.2472C74.7837 16.2956 75.4902 15.0673 75.8489 13.6317C76.0863 12.6819 76.7396 9.21409 73.9413 6.41578L69.0474 11.3096L64.1535 16.2035C62.8556 14.9056 62.4216 13.4158 62.2991 12.4395C62.1788 11.4799 62.3089 10.7203 62.4199 10.276C62.6412 9.39056 63.0258 8.78878 63.3424 8.40723L68.6682 12.8272ZM69.0474 11.3096L73.9412 6.41576C72.4545 4.92905 70.7317 4.45293 69.6356 4.30704C68.5383 4.16098 67.599 4.27327 66.9803 4.38933C65.7377 4.62242 64.6536 5.08964 63.8531 5.51968C63.0361 5.95856 62.095 6.58435 61.2495 7.42119C60.7333 7.93199 58.7591 9.93596 58.7591 13.1185H65.68H72.601C72.601 14.6102 72.0886 15.6878 71.7872 16.2079C71.4685 16.7579 71.1446 17.103 70.9863 17.2596C70.674 17.5686 70.4571 17.6848 70.4034 17.7136C70.3662 17.7336 70.0847 17.8904 69.5324 17.994C69.2588 18.0453 68.6365 18.1381 67.8092 18.028C66.9831 17.918 65.4833 17.5333 64.1535 16.2035L69.0474 11.3096ZM65.68 13.1185H58.7591C58.7591 15.8863 60.2191 18.3462 62.5297 19.689C64.4261 20.7911 66.3238 20.8343 67.4733 20.7223C69.8172 20.4938 72.2724 19.3215 73.9939 17.2472L68.6682 12.8272L63.3425 8.40717C64.0709 7.52947 65.032 7.05269 66.1302 6.94563C66.6567 6.8943 67.9936 6.85469 69.4849 7.72136C70.2972 8.19343 71.1396 8.93607 71.7575 10.0035C72.3784 11.0762 72.601 12.1805 72.601 13.1185H65.68ZM41.7371 9.01522H48.6581C48.6581 7.81908 48.3701 6.83659 48.2303 6.39458C48.0515 5.82914 47.834 5.30312 47.6266 4.85423C47.213 3.95933 46.6733 3.01275 46.0663 2.1467L40.3987 6.11889L34.7311 10.0911C34.7869 10.1707 34.8524 10.273 34.9178 10.3868C34.9835 10.5012 35.0322 10.5977 35.0613 10.6606C35.0965 10.7367 35.0755 10.7039 35.0326 10.5683C35.0103 10.4977 34.9656 10.3477 34.9229 10.134C34.8847 9.94271 34.8161 9.54511 34.8161 9.01522H41.7371ZM40.3987 6.11889L46.0663 2.1467C46.0999 2.19467 46.1017 2.20442 46.0879 2.17677C46.0748 2.15051 46.0692 2.13367 46.0724 2.14324C46.0749 2.15039 46.0834 2.17594 46.0949 2.22107C46.1061 2.26469 46.1247 2.34428 46.1426 2.45781C46.1599 2.56776 46.1822 2.74591 46.1886 2.98053C46.1947 3.20701 46.1883 3.56494 46.1129 4.01086L39.2887 2.85763L32.4645 1.70441C32.1083 3.81235 32.6639 5.70764 32.9687 6.6031C33.3617 7.75779 33.9548 8.9835 34.7311 10.0911L40.3987 6.11889ZM39.2887 2.85763L46.1129 4.01095C46.3587 2.55636 46.5559 -1.11953 43.2516 -3.67004C40.9453 -5.45027 38.2665 -5.41494 37.5377 -5.41494V1.50604V8.42701C37.6689 8.42701 37.4707 8.43931 37.0964 8.36466C36.7436 8.29432 35.7999 8.06397 34.7939 7.28741C33.6342 6.39226 32.8815 5.1513 32.5684 3.87187C32.3018 2.78251 32.4223 1.95379 32.4645 1.70432L39.2887 2.85763ZM37.5377 1.50604V-5.41494C36.7327 -5.41494 35.0126 -5.37912 33.2853 -4.59764C32.2954 -4.14976 31.0673 -3.35222 30.1067 -1.97326C29.1161 -0.551126 28.7594 0.98796 28.744 2.31242C28.718 4.55195 29.6629 6.32324 30.0794 7.0655C30.6202 8.02947 31.3075 8.99287 31.9862 9.88262L37.4891 5.68532L42.9921 1.48802C42.4475 0.773969 42.2187 0.413055 42.1512 0.292694C41.9593 -0.0493712 42.6036 0.877575 42.585 2.47323C42.5734 3.47576 42.2975 4.74303 41.4647 5.93853C40.662 7.09085 39.6689 7.70694 38.9911 8.0136C37.8881 8.51266 37.1008 8.42701 37.5377 8.42701V1.50604ZM37.4891 5.68532L31.9862 9.88262C32.3421 10.3493 32.6451 10.8171 32.8243 11.135C32.9179 11.3009 32.9212 11.3262 32.8794 11.2258C32.8586 11.1758 32.7902 11.0083 32.7182 10.7526C32.681 10.6202 32.6312 10.4234 32.5888 10.176C32.5479 9.93805 32.499 9.56888 32.499 9.10938H39.42H46.341C46.341 7.48944 45.7747 6.18528 45.6559 5.90031C45.418 5.32949 45.1377 4.79045 44.8813 4.33579C44.3606 3.41241 43.6981 2.41369 42.9921 1.48802L37.4891 5.68532ZM39.42 9.10938H32.499C32.499 11.9597 34.0248 14.0577 35.5364 15.2223C37.0473 16.3863 38.8499 16.9229 40.5786 16.9229V10.0019V3.08095C41.67 3.08095 42.8933 3.41671 43.9842 4.25716C45.076 5.09824 46.341 6.7499 46.341 9.10938H39.42ZM40.5786 10.0019V16.9229C43.9546 16.9229 48.6581 14.3804 48.6581 9.01518L41.7371 9.01522L34.8161 9.01526C34.8161 4.73533 38.4769 3.08095 40.5786 3.08095V10.0019Z" fill="#FFC727" mask="url(#path-5-inside-2_282_275)"/>
<path d="M52.3359 49.5266C52.4096 49.5507 52.4844 49.5742 52.5615 49.593C52.6197 49.6072 52.6776 49.616 52.7334 49.6262C53.1538 49.2945 53.5364 48.6074 53.6836 47.8792L53.7148 47.6985C53.7613 47.3808 53.7762 47.115 53.7627 46.9006C53.4841 46.7164 53.1641 46.57 52.8066 46.4827C52.7477 46.4683 52.6893 46.4588 52.6328 46.4485C52.2834 46.7248 51.9614 47.2474 51.7783 47.8342L52.3359 49.5266ZM52.3359 49.5266L51.7783 47.8352C51.7233 48.0117 51.6811 48.194 51.6543 48.3772L51.626 48.593C51.6012 48.8164 51.5943 49.0096 51.6045 49.1731C51.8234 49.3181 52.0678 49.4388 52.3359 49.5266ZM71.8066 26.925L71.8037 26.4934L71.8027 26.4944L71.8066 26.925ZM71.8066 26.925L71.6074 26.7981C70.6174 26.1583 70.645 26.0475 71.7998 26.0374C72.5432 26.0315 73.1514 26.3733 73.1514 26.7981L73.1455 27.1067C73.111 27.6916 72.9073 27.6304 71.8066 26.925ZM51.834 74.3723C51.0343 72.2883 51.959 71.0624 52.9434 72.9016C53.539 74.0147 53.5815 74.7548 53.0674 75.0725L52.9854 75.1155C52.5978 75.2846 52.134 75.0215 51.8838 74.4905L51.834 74.3723Z" fill="#F6CB79" stroke="#FFC727" stroke-width="6.92098"/>
<mask id="path-8-inside-3_282_275" fill="white">
<path d="M50.4923 74.082C49.504 72.5015 47.3955 68.8706 45.8067 66.0136L42.918 60.819L46.6792 54.4283C48.7478 50.9134 50.6736 47.4294 50.9588 46.686C51.244 45.9426 52.1634 45.3344 53.0019 45.3344C54.2433 45.3344 54.5705 45.944 54.7639 48.6169L55.0014 51.8994L59.8312 52.1294C67.5169 52.4954 67.572 52.294 62.3317 43.0066C59.8183 38.5521 57.7536 34.3863 57.7435 33.7491C57.7225 32.4138 71.3708 24.225 72.741 24.7508C73.2363 24.9408 75.4992 28.3151 77.7698 32.2493C82.9287 41.1882 83.6234 45.3303 80.5721 48.9566C79.4645 50.273 78.5582 51.7182 78.5582 52.1681C78.5582 53.6933 69.2896 68.3393 67.9338 68.9564C67.1929 69.2936 63.98 69.7644 60.794 70.0027L55.0014 70.4359L54.7657 73.2659C54.4329 77.2607 52.688 77.5939 50.4923 74.082ZM52.9432 72.9011C52.3584 71.8085 51.923 71.5614 51.7097 72.2012C51.226 73.6523 52.1618 75.6316 53.0671 75.072C53.5813 74.7543 53.539 74.0144 52.9432 72.9011ZM52.2982 68.5843C52.2982 68.2031 55.2162 67.7685 58.7826 67.6188C63.7482 67.4103 65.6381 67.0105 66.8512 65.9123C68.2346 64.6599 73.9241 55.8284 73.9241 54.9334C73.9241 54.7516 69.1834 54.6026 63.3893 54.6026C54.629 54.6026 52.7026 54.3947 51.952 53.3682C51.1834 52.317 50.6911 52.8064 48.6335 56.6669L46.2174 61.1998L48.5492 65.2385C50.6699 68.9117 52.2982 70.3649 52.2982 68.5843ZM77.7858 51.8048C77.7858 50.6498 75.9528 50.4863 71.4139 51.2365C67.6008 51.8668 67.6973 53.0579 71.5614 53.0579C73.2355 53.0579 74.8305 53.4223 75.1058 53.8677C75.7419 54.8971 77.7858 53.3238 77.7858 51.8048ZM53.7148 47.698C53.8901 46.4999 53.6425 46.0436 52.9424 46.2743C52.3757 46.4611 51.7958 47.4074 51.6539 48.3772C51.4785 49.5754 51.7261 50.0317 52.4263 49.8009C52.993 49.6141 53.5728 48.6678 53.7148 47.698ZM76.2411 48.969C77.3031 48.4319 78.649 46.9975 79.2321 45.7816C80.2288 43.7029 80.0711 43.1343 76.5951 36.2699C74.5618 32.2545 72.4553 28.7992 71.9139 28.5915C71.0173 28.2474 60.794 33.4258 60.794 34.224C60.794 34.412 62.7797 38.0315 65.2066 42.2672C69.2778 49.3727 69.8006 49.9676 71.9647 49.9571C73.2547 49.9512 75.1791 49.5062 76.2411 48.969ZM73.1517 26.7979C73.1517 26.3731 72.5435 26.0309 71.8001 26.0374C70.645 26.0461 70.6169 26.1579 71.607 26.7979C73.0646 27.7399 73.1517 27.7399 73.1517 26.7979Z"/>
</mask>
<path d="M50.4923 74.082C49.504 72.5015 47.3955 68.8706 45.8067 66.0136L42.918 60.819L46.6792 54.4283C48.7478 50.9134 50.6736 47.4294 50.9588 46.686C51.244 45.9426 52.1634 45.3344 53.0019 45.3344C54.2433 45.3344 54.5705 45.944 54.7639 48.6169L55.0014 51.8994L59.8312 52.1294C67.5169 52.4954 67.572 52.294 62.3317 43.0066C59.8183 38.5521 57.7536 34.3863 57.7435 33.7491C57.7225 32.4138 71.3708 24.225 72.741 24.7508C73.2363 24.9408 75.4992 28.3151 77.7698 32.2493C82.9287 41.1882 83.6234 45.3303 80.5721 48.9566C79.4645 50.273 78.5582 51.7182 78.5582 52.1681C78.5582 53.6933 69.2896 68.3393 67.9338 68.9564C67.1929 69.2936 63.98 69.7644 60.794 70.0027L55.0014 70.4359L54.7657 73.2659C54.4329 77.2607 52.688 77.5939 50.4923 74.082ZM52.9432 72.9011C52.3584 71.8085 51.923 71.5614 51.7097 72.2012C51.226 73.6523 52.1618 75.6316 53.0671 75.072C53.5813 74.7543 53.539 74.0144 52.9432 72.9011ZM52.2982 68.5843C52.2982 68.2031 55.2162 67.7685 58.7826 67.6188C63.7482 67.4103 65.6381 67.0105 66.8512 65.9123C68.2346 64.6599 73.9241 55.8284 73.9241 54.9334C73.9241 54.7516 69.1834 54.6026 63.3893 54.6026C54.629 54.6026 52.7026 54.3947 51.952 53.3682C51.1834 52.317 50.6911 52.8064 48.6335 56.6669L46.2174 61.1998L48.5492 65.2385C50.6699 68.9117 52.2982 70.3649 52.2982 68.5843ZM77.7858 51.8048C77.7858 50.6498 75.9528 50.4863 71.4139 51.2365C67.6008 51.8668 67.6973 53.0579 71.5614 53.0579C73.2355 53.0579 74.8305 53.4223 75.1058 53.8677C75.7419 54.8971 77.7858 53.3238 77.7858 51.8048ZM53.7148 47.698C53.8901 46.4999 53.6425 46.0436 52.9424 46.2743C52.3757 46.4611 51.7958 47.4074 51.6539 48.3772C51.4785 49.5754 51.7261 50.0317 52.4263 49.8009C52.993 49.6141 53.5728 48.6678 53.7148 47.698ZM76.2411 48.969C77.3031 48.4319 78.649 46.9975 79.2321 45.7816C80.2288 43.7029 80.0711 43.1343 76.5951 36.2699C74.5618 32.2545 72.4553 28.7992 71.9139 28.5915C71.0173 28.2474 60.794 33.4258 60.794 34.224C60.794 34.412 62.7797 38.0315 65.2066 42.2672C69.2778 49.3727 69.8006 49.9676 71.9647 49.9571C73.2547 49.9512 75.1791 49.5062 76.2411 48.969ZM73.1517 26.7979C73.1517 26.3731 72.5435 26.0309 71.8001 26.0374C70.645 26.0461 70.6169 26.1579 71.607 26.7979C73.0646 27.7399 73.1517 27.7399 73.1517 26.7979Z" fill="#FFC727"/>
<path d="M50.4923 74.082L56.3606 70.4129L56.3606 70.4129L50.4923 74.082ZM45.8067 66.0136L39.7581 69.3773L39.7581 69.3773L45.8067 66.0136ZM42.918 60.819L36.9533 57.3086L34.9446 60.7216L36.8693 64.1826L42.918 60.819ZM46.6792 54.4283L52.6438 57.9388L52.6438 57.9387L46.6792 54.4283ZM50.9588 46.686L57.4206 49.1648L57.4206 49.1648L50.9588 46.686ZM54.7639 48.6169L47.861 49.1163L47.861 49.1163L54.7639 48.6169ZM55.0014 51.8994L48.0985 52.3988L48.5414 58.5206L54.6722 58.8125L55.0014 51.8994ZM59.8312 52.1294L59.502 59.0426L59.502 59.0426L59.8312 52.1294ZM62.3317 43.0066L68.3593 39.6055L68.3593 39.6055L62.3317 43.0066ZM57.7435 33.7491L50.8234 33.858L50.8234 33.8585L57.7435 33.7491ZM72.741 24.7508L70.2615 31.2124L70.2617 31.2124L72.741 24.7508ZM77.7698 32.2493L83.7641 28.7898L83.7641 28.7898L77.7698 32.2493ZM80.5721 48.9566L75.2765 44.5006L75.2765 44.5006L80.5721 48.9566ZM67.9338 68.9564L65.0666 62.6572L65.0666 62.6573L67.9338 68.9564ZM60.794 70.0027L60.2779 63.101L60.2779 63.101L60.794 70.0027ZM55.0014 70.4359L54.4852 63.5342L48.5947 63.9747L48.1043 69.8614L55.0014 70.4359ZM54.7657 73.2659L61.6627 73.8405L61.6627 73.8405L54.7657 73.2659ZM52.9432 72.9011L46.8411 76.1668L46.8411 76.1668L52.9432 72.9011ZM51.7097 72.2012L58.2755 74.3898L58.2755 74.3898L51.7097 72.2012ZM53.0671 75.072L56.7057 80.9594L56.7058 80.9593L53.0671 75.072ZM58.7826 67.6188L58.4924 60.7039L58.4922 60.7039L58.7826 67.6188ZM66.8512 65.9123L62.2063 60.7816L62.2063 60.7816L66.8512 65.9123ZM51.952 53.3682L57.5389 49.2833L57.5388 49.2831L51.952 53.3682ZM48.6335 56.6669L54.741 59.9222L54.7411 59.9222L48.6335 56.6669ZM46.2174 61.1998L40.1098 57.9444L38.3032 61.3339L40.2237 64.6602L46.2174 61.1998ZM48.5492 65.2385L54.543 61.778L54.5429 61.778L48.5492 65.2385ZM77.7858 51.8048L84.7068 51.8048V51.8048H77.7858ZM71.4139 51.2365L70.2853 44.4082L70.2852 44.4082L71.4139 51.2365ZM75.1058 53.8677L69.2184 57.5062L69.2184 57.5063L75.1058 53.8677ZM53.7148 47.698L60.5628 48.7003L60.5628 48.7002L53.7148 47.698ZM52.9424 46.2743L50.776 39.7012L50.7756 39.7013L52.9424 46.2743ZM51.6539 48.3772L44.8059 47.375L44.8059 47.375L51.6539 48.3772ZM52.4263 49.8009L54.5927 56.3741L54.5931 56.374L52.4263 49.8009ZM76.2411 48.969L79.3649 55.145L79.365 55.1449L76.2411 48.969ZM79.2321 45.7816L85.4727 48.7739L85.4727 48.7739L79.2321 45.7816ZM76.5951 36.2699L70.4207 39.3965L70.4207 39.3966L76.5951 36.2699ZM71.9139 28.5915L69.4343 35.053L69.4344 35.0531L71.9139 28.5915ZM65.2066 42.2672L59.2015 45.7079L59.2015 45.7079L65.2066 42.2672ZM71.9647 49.9571L71.9334 43.0362L71.9311 43.0362L71.9647 49.9571ZM71.8001 26.0374L71.8525 32.9581L71.8607 32.9581L71.8001 26.0374ZM71.607 26.7979L67.8499 32.6103L67.8505 32.6107L71.607 26.7979ZM50.4923 74.082L56.3606 70.4129C55.4647 68.98 53.4224 65.468 51.8553 62.65L45.8067 66.0136L39.7581 69.3773C41.3686 72.2733 43.5434 76.0229 44.624 77.7512L50.4923 74.082ZM45.8067 66.0136L51.8553 62.65L48.9666 57.4554L42.918 60.819L36.8693 64.1826L39.7581 69.3773L45.8067 66.0136ZM42.918 60.819L48.8826 64.3294L52.6438 57.9388L46.6792 54.4283L40.7145 50.9179L36.9533 57.3086L42.918 60.819ZM46.6792 54.4283L52.6438 57.9387C53.7056 56.1346 54.7355 54.3305 55.545 52.866C56.2147 51.6545 57.0636 50.0955 57.4206 49.1648L50.9588 46.686L44.497 44.2071C44.5899 43.965 44.604 43.9769 44.3214 44.52C44.1048 44.936 43.8029 45.4961 43.4306 46.1697C42.6887 47.5118 41.7214 49.2072 40.7145 50.9179L46.6792 54.4283ZM50.9588 46.686L57.4206 49.1648C56.9302 50.4433 56.1204 51.1536 55.5914 51.5036C55.0445 51.8654 54.1776 52.2554 53.0019 52.2554V45.3344V38.4134C50.9876 38.4134 49.2418 39.1074 47.9542 39.9592C46.6846 40.7991 45.2726 42.1852 44.497 44.2071L50.9588 46.686ZM53.0019 45.3344V52.2554C52.8393 52.2554 51.9203 52.253 50.8046 51.7232C49.4948 51.1011 48.6428 50.1127 48.1779 49.2466C47.8083 48.558 47.7454 48.0641 47.7682 48.1921C47.7821 48.2701 47.8184 48.5281 47.861 49.1163L54.7639 48.6169L61.6668 48.1175C61.6127 47.3693 61.5355 46.5487 61.3949 45.7606C61.2632 45.0225 61.0046 43.875 60.3738 42.6999C59.6478 41.3473 58.4692 40.0395 56.7428 39.2196C55.2106 38.492 53.7851 38.4134 53.0019 38.4134V45.3344ZM54.7639 48.6169L47.861 49.1163L48.0985 52.3988L55.0014 51.8994L61.9043 51.3999L61.6668 48.1174L54.7639 48.6169ZM55.0014 51.8994L54.6722 58.8125L59.502 59.0426L59.8312 52.1294L60.1604 45.2163L55.3306 44.9863L55.0014 51.8994ZM59.8312 52.1294L59.502 59.0426C61.2182 59.1243 63.2954 59.2302 64.972 59.0423C65.8274 58.9465 67.2637 58.7144 68.7115 57.9198C70.4361 56.9733 71.9699 55.3292 72.6035 53.0175C73.1396 51.0615 72.8258 49.3351 72.5744 48.3535C72.3044 47.2994 71.8912 46.3094 71.5114 45.4904C70.7585 43.8665 69.6229 41.8449 68.3593 39.6055L62.3317 43.0066L56.304 46.4077C57.6607 48.812 58.4832 50.2983 58.9537 51.3129C59.1856 51.8131 59.2003 51.9249 59.1654 51.7885C59.149 51.7246 58.8775 50.7319 59.2539 49.3586C59.4598 48.6074 59.8336 47.844 60.3985 47.1607C60.9508 46.4927 61.5559 46.0574 62.0517 45.7853C62.9267 45.3051 63.5791 45.2698 63.4304 45.2865C63.3634 45.294 63.0937 45.3131 62.4686 45.3033C61.8669 45.2939 61.1289 45.2624 60.1604 45.2163L59.8312 52.1294ZM62.3317 43.0066L68.3593 39.6055C67.1508 37.4637 66.0664 35.4194 65.3 33.873C64.9121 33.0903 64.6392 32.5025 64.4783 32.125C64.3945 31.9283 64.3776 31.8737 64.3941 31.9222C64.402 31.9455 64.4444 32.0707 64.4919 32.2648C64.5207 32.3824 64.6521 32.9137 64.6636 33.6396L57.7435 33.7491L50.8234 33.8585C50.8439 35.1569 51.2427 36.2419 51.2869 36.372C51.428 36.7877 51.5937 37.1979 51.7442 37.551C52.0518 38.2729 52.454 39.1245 52.8977 40.0197C53.7945 41.8292 54.9991 44.095 56.304 46.4077L62.3317 43.0066ZM57.7435 33.7491L64.6636 33.6401C64.6853 35.018 64.28 36.0388 64.0634 36.5076C63.824 37.0256 63.5724 37.3838 63.4452 37.5547C63.1954 37.8904 63.0101 38.0527 63.0605 38.0054C63.1304 37.9398 63.4045 37.7056 63.9652 37.2964C65.0397 36.5123 66.598 35.4967 68.2813 34.4868C69.9629 33.4778 71.6094 32.5704 72.8395 31.9732C73.4762 31.664 73.8475 31.5135 73.9852 31.4654C74.0677 31.4365 73.8996 31.5034 73.5681 31.5629C73.3978 31.5934 73.0509 31.6467 72.5894 31.6475C72.1761 31.6482 71.3 31.6109 70.2615 31.2124L72.741 24.7508L75.2205 18.2892C73.2454 17.5313 71.4804 17.8745 71.125 17.9382C70.4431 18.0605 69.8413 18.2507 69.4195 18.3981C68.5486 18.7024 67.629 19.1158 66.7938 19.5212C65.0801 20.3533 63.0589 21.4779 61.1598 22.6173C59.2624 23.7558 57.3269 25.0049 55.8054 26.1153C55.0682 26.6534 54.2687 27.2738 53.5909 27.9096C53.2674 28.213 52.7898 28.6877 52.3416 29.2897C52.1574 29.5372 50.7829 31.2828 50.8234 33.858L57.7435 33.7491ZM72.741 24.7508L70.2617 31.2124C69.2755 30.834 68.6426 30.319 68.4831 30.1891C68.2371 29.9887 68.0764 29.8246 68.0198 29.7657C67.9036 29.6451 67.8793 29.6042 67.9705 29.7205C68.1368 29.9325 68.4295 30.3363 68.8416 30.9508C69.6491 32.1549 70.7004 33.846 71.7755 35.7088L77.7698 32.2493L83.7641 28.7898C82.5686 26.7184 81.3531 24.7553 80.3377 23.2412C79.8384 22.4966 79.3305 21.7753 78.8623 21.1782C78.6362 20.89 78.3362 20.5236 77.9926 20.1667C77.8222 19.9897 77.56 19.7298 77.2252 19.4571C76.9771 19.255 76.2684 18.6913 75.2204 18.2892L72.741 24.7508ZM77.7698 32.2493L71.7755 35.7088C74.3124 40.1046 75.2081 42.4517 75.4242 43.74C75.5091 44.2462 75.4431 44.3506 75.4703 44.2506C75.4989 44.146 75.5216 44.2092 75.2765 44.5006L80.5721 48.9566L85.8678 53.4126C88.7008 50.0457 89.8479 46.0558 89.0754 41.4503C88.4172 37.5263 86.3861 33.333 83.7641 28.7898L77.7698 32.2493ZM80.5721 48.9566L75.2765 44.5006C74.5392 45.3768 73.8408 46.3262 73.2864 47.2103C73.0146 47.6436 72.7087 48.1701 72.4445 48.7367C72.3377 48.9658 71.6372 50.3775 71.6372 52.1681H78.5582H85.4791C85.4791 52.6968 85.4152 53.1207 85.363 53.39C85.3086 53.6708 85.245 53.8937 85.1977 54.043C85.1064 54.3315 85.019 54.5235 84.9896 54.5865C84.93 54.7144 84.9199 54.713 85.0132 54.5642C85.1888 54.2841 85.4974 53.8527 85.8678 53.4125L80.5721 48.9566ZM78.5582 52.1681H71.6372C71.6372 51.4367 71.762 50.8969 71.8056 50.717C71.8625 50.4827 71.9176 50.325 71.9352 50.2755C71.9696 50.1792 71.9693 50.1962 71.8879 50.3704C71.7318 50.7042 71.4538 51.2421 71.0432 51.9787C70.2353 53.4285 69.106 55.3058 67.9061 57.2017C66.7062 59.0978 65.4948 60.9193 64.5337 62.2651C64.0451 62.9492 63.6809 63.4263 63.4501 63.7049C63.3291 63.8509 63.3182 63.8531 63.3968 63.7749C63.4369 63.7351 63.5623 63.6121 63.7591 63.4547C63.9086 63.335 64.3676 62.9754 65.0666 62.6572L67.9338 68.9564L70.801 75.2555C72.1148 74.6575 72.9876 73.7586 73.1563 73.5909C73.5196 73.2296 73.8469 72.8523 74.1091 72.5358C74.6446 71.8895 75.227 71.1091 75.798 70.3096C76.9561 68.688 78.316 66.637 79.6027 64.6038C80.8894 62.5705 82.1621 60.4617 83.1343 58.7171C83.6139 57.8566 84.0706 56.9952 84.4267 56.2337C84.6013 55.8603 84.8015 55.4056 84.9723 54.9268C85.0569 54.6897 85.4791 53.5595 85.4791 52.1681H78.5582ZM67.9338 68.9564L65.0666 62.6573C65.2933 62.554 65.4667 62.4929 65.5451 62.4663C65.6329 62.4366 65.6887 62.421 65.7007 62.4177C65.7202 62.4123 65.6725 62.4258 65.5356 62.4545C65.2636 62.5114 64.8411 62.5862 64.2773 62.6688C63.1587 62.8327 61.7222 62.993 60.2779 63.101L60.794 70.0027L61.3102 76.9044C63.0518 76.7741 64.8148 76.5798 66.2843 76.3645C67.0146 76.2575 67.7334 76.1364 68.3717 76.0028C68.8083 75.9114 69.8388 75.6935 70.801 75.2555L67.9338 68.9564ZM60.794 70.0027L60.2779 63.101L54.4852 63.5342L55.0014 70.4359L55.5176 77.3376L61.3102 76.9044L60.794 70.0027ZM55.0014 70.4359L48.1043 69.8614L47.8686 72.6914L54.7657 73.2659L61.6627 73.8405L61.8985 71.0104L55.0014 70.4359ZM54.7657 73.2659L47.8686 72.6914C47.8164 73.3173 47.7439 73.1965 47.9661 72.7079C48.153 72.2968 49.2344 70.2246 52.0293 69.6908C54.6563 69.1891 56.3133 70.5494 56.4848 70.6932C56.7892 70.9482 56.7183 70.985 56.3606 70.4129L50.4923 74.082L44.6239 77.7512C45.3641 78.935 46.3348 80.247 47.5942 81.3025C48.7209 82.2466 51.2465 83.9324 54.6258 83.2871C58.173 82.6096 59.8903 79.9246 60.5666 78.4373C61.2781 76.8724 61.5485 75.2119 61.6627 73.8405L54.7657 73.2659ZM52.9432 72.9011L59.0453 69.6355C58.7979 69.1733 58.4696 68.6148 58.0502 68.0613C57.7128 67.6159 56.9173 66.628 55.6026 65.882C54.0161 64.9818 51.1116 64.233 48.2545 66.0103C46.0925 67.3552 45.3579 69.3705 45.1439 70.0126L51.7097 72.2012L58.2755 74.3898C58.1681 74.712 57.568 76.5183 55.5658 77.7638C52.8687 79.4415 50.1496 78.7029 48.7716 77.921C47.6655 77.2934 47.102 76.5321 47.0173 76.4204C46.8507 76.2005 46.7961 76.0827 46.8411 76.1668L52.9432 72.9011ZM51.7097 72.2012L45.1439 70.0126C44.2512 72.6906 44.6883 75.3981 45.6107 77.349C46.0657 78.3112 46.9898 79.8417 48.7397 80.9342C50.9136 82.2915 53.984 82.6415 56.7057 80.9594L53.0671 75.072L49.4285 69.1847C50.3634 68.6069 51.5753 68.2093 52.9408 68.2511C54.2663 68.2917 55.3332 68.7326 56.0705 69.1929C57.4054 70.0264 57.9561 71.0763 58.1243 71.4322C58.4735 72.1706 58.6845 73.1629 58.2755 74.3898L51.7097 72.2012ZM53.0671 75.072L56.7058 80.9593C59.627 79.1539 60.4594 76.1379 60.3311 73.8904C60.2258 72.0456 59.5241 70.5302 59.0453 69.6354L52.9432 72.9011L46.8411 76.1668C46.9581 76.3854 46.5755 75.7966 46.5117 74.6794C46.4753 74.0416 46.5335 73.0365 47.0349 71.92C47.5673 70.7345 48.433 69.8 49.4285 69.1847L53.0671 75.072ZM52.2982 68.5843H59.2191C59.2191 70.8986 58.0944 72.4712 57.4235 73.2C56.7588 73.922 56.1008 74.3162 55.816 74.4759C55.2263 74.8066 54.7702 74.9312 54.7596 74.9343C54.6357 74.9707 54.7465 74.9311 55.2223 74.8602C56.0907 74.7309 57.4576 74.6015 59.073 74.5336L58.7826 67.6188L58.4922 60.7039C56.5412 60.7858 54.6658 60.9485 53.1837 61.1692C52.4842 61.2734 51.6425 61.4233 50.86 61.653C50.5202 61.7528 49.8082 61.975 49.045 62.4031C48.6735 62.6114 47.9493 63.0542 47.2401 63.8245C46.5247 64.6016 45.3772 66.2223 45.3772 68.5843H52.2982ZM58.7826 67.6188L59.0729 74.5336C61.5919 74.4279 63.8034 74.2623 65.6562 73.8704C67.676 73.4432 69.7087 72.6612 71.4961 71.0431L66.8512 65.9123L62.2063 60.7816C62.7806 60.2616 63.2618 60.2287 62.792 60.328C62.1552 60.4627 60.9389 60.6012 58.4924 60.7039L58.7826 67.6188ZM66.8512 65.9123L71.4961 71.0431C72.4982 70.1359 73.5462 68.692 74.1698 67.8198C74.9783 66.6892 75.8828 65.3437 76.7246 64.037C77.563 62.7355 78.3886 61.396 79.0258 60.2784C79.3376 59.7316 79.6558 59.1482 79.9158 58.6068C80.042 58.3439 80.2068 57.9834 80.355 57.5807C80.408 57.4365 80.845 56.3314 80.845 54.9334H73.9241H67.0031C67.0031 54.1503 67.1427 53.5629 67.1955 53.353C67.2632 53.0838 67.3322 52.8884 67.3647 52.8003C67.4289 52.6259 67.47 52.5481 67.438 52.6148C67.3815 52.7325 67.2443 52.9957 67.0011 53.4223C66.5284 54.2514 65.8451 55.3659 65.0883 56.5407C64.3347 57.7104 63.5575 58.8634 62.9101 59.7689C62.5844 60.2244 62.3212 60.5756 62.1297 60.8171C61.8651 61.1507 61.9245 61.0367 62.2063 60.7816L66.8512 65.9123ZM73.9241 54.9334H80.845C80.845 50.9812 77.7952 49.1804 77.5314 49.0184C76.7807 48.5575 76.1134 48.3488 75.8985 48.2829C75.3668 48.1199 74.9103 48.0492 74.7517 48.025C74.3387 47.9621 73.9156 47.926 73.603 47.9029C72.9215 47.8525 72.0332 47.8132 71.0468 47.7823C69.0449 47.7194 66.3355 47.6816 63.3893 47.6816V54.6026V61.5236C66.2373 61.5236 68.7952 61.5603 70.6122 61.6174C71.5352 61.6464 72.1941 61.6785 72.5826 61.7072C72.805 61.7236 72.7975 61.729 72.6664 61.709C72.6487 61.7063 72.2998 61.6575 71.8403 61.5166C71.6616 61.4618 71.0215 61.2642 70.2892 60.8146C69.9187 60.5871 69.2195 60.1124 68.5541 59.2953C67.8467 58.4268 67.0031 56.9355 67.0031 54.9334H73.9241ZM63.3893 54.6026V47.6816C58.9197 47.6816 56.6396 47.6221 55.4096 47.4893C54.797 47.4232 54.9119 47.381 55.3234 47.5403C55.936 47.7776 56.8282 48.3112 57.5389 49.2833L51.952 53.3682L46.3652 57.4532C48.6436 60.5693 52.1245 61.0571 53.9244 61.2514C56.0353 61.4792 59.0986 61.5236 63.3893 61.5236V54.6026ZM51.952 53.3682L57.5388 49.2831C57.3143 48.9762 55.8204 46.7933 52.907 46.1427C49.2132 45.3178 46.6922 47.4767 45.897 48.2671C45.0243 49.1345 44.3854 50.1418 43.9961 50.7829C43.5424 51.5301 43.0503 52.4276 42.5258 53.4115L48.6335 56.6669L54.7411 59.9222C55.2454 58.9759 55.5864 58.3645 55.8278 57.967C56.1335 57.4635 56.0515 57.6903 55.6552 58.0843C55.3364 58.4012 53.2111 60.3935 49.8901 59.6519C48.4982 59.341 47.5726 58.6583 47.115 58.2578C46.6666 57.8653 46.4155 57.522 46.3653 57.4534L51.952 53.3682ZM48.6335 56.6669L42.5259 53.4115L40.1098 57.9444L46.2174 61.1998L52.325 64.4551L54.741 59.9222L48.6335 56.6669ZM46.2174 61.1998L40.2237 64.6602L42.5555 68.699L48.5492 65.2385L54.5429 61.778L52.2112 57.7393L46.2174 61.1998ZM48.5492 65.2385L42.5555 68.699C43.6649 70.6205 45.0582 72.7347 46.6106 74.1202C47.0353 74.4992 47.7473 75.0768 48.7114 75.5329C49.59 75.9485 51.5984 76.6922 54.0333 75.9481C56.7574 75.1156 58.112 73.0384 58.6632 71.6396C59.1653 70.3653 59.2191 69.2093 59.2191 68.5843H52.2982H45.3772C45.3772 68.4044 45.3801 67.5924 45.7849 66.5652C46.2387 65.4134 47.4496 63.4861 49.988 62.7104C52.2371 62.0231 54.0177 62.7304 54.6308 63.0205C55.3296 63.3511 55.7387 63.7139 55.8273 63.793C56.0354 63.9787 55.5543 63.5297 54.543 61.778L48.5492 65.2385ZM77.7858 51.8048H84.7068C84.7068 49.2975 83.5186 46.9035 81.3354 45.4105C79.6404 44.2513 77.8621 43.9969 76.9168 43.9126C74.93 43.7354 72.5643 44.0315 70.2853 44.4082L71.4139 51.2365L72.5425 58.0648C73.5785 57.8936 74.3603 57.7915 74.9381 57.7401C75.5514 57.6855 75.751 57.7055 75.6871 57.6998C75.6426 57.6958 75.4204 57.6745 75.088 57.5808C74.7628 57.4891 74.1784 57.2852 73.5216 56.836C72.8252 56.3598 72.0883 55.6321 71.5566 54.6087C71.0284 53.592 70.8648 52.5958 70.8648 51.8048H77.7858ZM71.4139 51.2365L70.2852 44.4082C69.0733 44.6085 67.75 44.9144 66.5559 45.4268C65.9954 45.6673 65.0589 46.1214 64.1561 46.9276C63.3625 47.6363 61.4467 49.6868 61.7103 52.9422C61.9743 56.2012 64.1991 57.9172 65.1002 58.4897C66.1236 59.1398 67.123 59.4356 67.7153 59.5817C68.9774 59.8928 70.3333 59.9788 71.5614 59.9788V53.0579V46.1369C70.8575 46.1369 70.7523 46.074 71.0287 46.1421C71.1281 46.1667 71.7535 46.3175 72.5223 46.8058C73.1689 47.2166 75.2584 48.7542 75.5071 51.8248C75.7555 54.892 73.9444 56.7444 73.3761 57.2519C72.6985 57.857 72.1077 58.107 72.014 58.1472C71.7535 58.259 71.848 58.1796 72.5426 58.0648L71.4139 51.2365ZM71.5614 53.0579V59.9788C71.9473 59.9788 72.2417 60.0257 72.3165 60.0428C72.3675 60.0545 72.1679 60.0167 71.8231 59.8611C71.6471 59.7816 71.3087 59.6158 70.9057 59.3263C70.5376 59.062 69.8259 58.4893 69.2184 57.5062L75.1058 53.8677L80.9932 50.2293C79.7836 48.2721 77.9936 47.4596 77.5194 47.2455C76.7458 46.8962 75.9912 46.6838 75.3998 46.5487C74.1898 46.2722 72.8497 46.1369 71.5614 46.1369V53.0579ZM75.1058 53.8677L69.2184 57.5063C70.9763 60.3505 73.9753 61.3161 76.442 61.0837C78.4752 60.8922 80.0078 59.9676 80.9059 59.2763C82.5757 57.991 84.7068 55.392 84.7068 51.8048L77.7858 51.8048L70.8648 51.8048C70.8648 50.6609 71.2324 49.8464 71.4805 49.4217C71.7377 48.9815 72.0628 48.6154 72.4628 48.3075C72.7704 48.0708 73.6728 47.4414 75.1439 47.3028C75.9524 47.2266 77.0627 47.2943 78.2428 47.8251C79.471 48.3776 80.3968 49.2643 80.9931 50.2291L75.1058 53.8677ZM53.7148 47.698L60.5628 48.7002C60.6436 48.1483 60.7169 47.4231 60.6803 46.6217C60.6471 45.8962 60.5047 44.559 59.7403 43.15C58.837 41.485 57.2203 40.0437 55.0253 39.5076C53.1529 39.0502 51.5859 39.4342 50.776 39.7012L52.9424 46.2743L55.1089 52.8475C54.649 52.999 53.3755 53.3535 51.7409 52.9542C49.7837 52.4762 48.3493 51.1806 47.5735 49.7506C46.9366 48.5767 46.8669 47.5637 46.8528 47.2536C46.8351 46.8674 46.8736 46.6486 46.8667 46.6957L53.7148 47.698ZM52.9424 46.2743L50.7756 39.7013C48.1826 40.5561 46.7919 42.5117 46.2376 43.4162C45.5261 44.5774 45.0155 45.9429 44.8059 47.375L51.6539 48.3772L58.5019 49.3795C58.4343 49.8418 58.2845 50.2492 58.0401 50.6481C57.911 50.8589 57.6808 51.1887 57.3018 51.5506C56.9528 51.8839 56.2346 52.4764 55.1092 52.8474L52.9424 46.2743ZM51.6539 48.3772L44.8059 47.375C44.7251 47.9269 44.6518 48.6522 44.6884 49.4536C44.7215 50.1791 44.864 51.5164 45.6284 52.9254C46.5317 54.5903 48.1484 56.0315 50.3434 56.5676C52.2158 57.025 53.7828 56.641 54.5927 56.3741L52.4263 49.8009L50.2598 43.2278C50.7197 43.0762 51.9931 42.7217 53.6277 43.121C55.5848 43.599 57.0193 44.8945 57.7951 46.3245C58.432 47.4984 58.5017 48.5114 58.5159 48.8216C58.5335 49.2077 58.495 49.4266 58.5019 49.3795L51.6539 48.3772ZM52.4263 49.8009L54.5931 56.374C57.1861 55.5191 58.5769 53.5635 59.1311 52.6589C59.8426 51.4978 60.3532 50.1323 60.5628 48.7003L53.7148 47.698L46.8667 46.6957C46.9344 46.2335 47.0841 45.8261 47.3285 45.4272C47.4577 45.2164 47.6878 44.8866 48.0668 44.5247C48.4159 44.1913 49.134 43.5989 50.2595 43.2279L52.4263 49.8009ZM76.2411 48.969L79.365 55.1449C80.8781 54.3795 82.1138 53.2708 82.9631 52.3657C83.8459 51.425 84.7955 50.1864 85.4727 48.7739L79.2321 45.7816L72.9914 42.7893C73.0267 42.7157 73.0511 42.6747 73.0566 42.6656C73.0627 42.6554 73.0584 42.6634 73.0412 42.6874C73.0244 42.711 73.0002 42.7429 72.969 42.7807C72.9379 42.8184 72.9041 42.8568 72.8692 42.894C72.8343 42.9313 72.8026 42.9626 72.7766 42.9868C72.7503 43.0114 72.7359 43.0231 72.736 43.023C72.7365 43.0226 72.7425 43.0178 72.7543 43.0091C72.766 43.0004 72.7855 42.9865 72.8129 42.9682C72.8402 42.9501 72.8782 42.9257 72.927 42.8969C72.9756 42.8683 73.0391 42.8327 73.1172 42.7932L76.2411 48.969ZM79.2321 45.7816L85.4727 48.7739C85.7616 48.1714 86.3285 46.9742 86.5666 45.4567C86.828 43.7911 86.6256 42.289 86.2603 40.9714C85.6802 38.8791 84.3528 36.2697 82.7696 33.1433L76.5951 36.2699L70.4207 39.3966C71.2959 41.125 71.9054 42.3461 72.3364 43.2743C72.5478 43.7297 72.6922 44.0633 72.7907 44.3105C72.8389 44.4313 72.8716 44.5202 72.8931 44.5823C72.9146 44.6444 72.9221 44.6716 72.9214 44.6693C72.9055 44.6118 72.7728 44.0707 72.892 43.3107C72.988 42.699 73.2009 42.3524 72.9914 42.7893L79.2321 45.7816ZM76.5951 36.2699L82.7696 33.1433C81.6888 31.0089 80.5661 28.9776 79.6044 27.4001C79.1322 26.6256 78.6384 25.8608 78.1663 25.2179C77.9381 24.9071 77.6277 24.5047 77.2607 24.1091C77.0776 23.9117 76.7989 23.6274 76.4397 23.3308C76.1502 23.0917 75.4396 22.5314 74.3935 22.13L71.9139 28.5915L69.4344 35.0531C68.456 34.6776 67.8253 34.1686 67.627 34.0049C67.3592 33.7837 67.1833 33.5989 67.1135 33.5236C66.9733 33.3725 66.9321 33.3055 67.0093 33.4105C67.148 33.5994 67.4094 33.9883 67.7857 34.6055C68.5209 35.8115 69.4681 37.5154 70.4207 39.3965L76.5951 36.2699ZM71.9139 28.5915L74.3936 22.13C72.4857 21.3978 70.7728 21.7203 70.5822 21.7498C70.0085 21.8387 69.5091 21.9766 69.1797 22.076C68.4929 22.2832 67.7769 22.56 67.148 22.8207C65.8504 23.3586 64.3217 24.0803 62.8904 24.8053C61.4618 25.5289 59.9843 26.3297 58.805 27.048C58.2405 27.3919 57.585 27.8128 57.0038 28.2618C56.7352 28.4693 56.2739 28.8411 55.8139 29.3415C55.5858 29.5896 55.2046 30.0334 54.8456 30.6486C54.5373 31.1771 53.8731 32.454 53.8731 34.224H60.794H67.715C67.715 35.1259 67.5369 35.8694 67.3592 36.3961C67.1809 36.9246 66.9679 37.3389 66.8012 37.6246C66.4809 38.1735 66.1572 38.5429 66.0043 38.7093C65.8293 38.8997 65.6861 39.0295 65.6144 39.0925C65.5363 39.1611 65.4828 39.2029 65.4663 39.2156C65.4478 39.2299 65.5979 39.118 66.0058 38.8695C66.7715 38.4032 67.9058 37.7812 69.1451 37.1535C70.3818 36.5271 71.5769 35.9689 72.4484 35.6076C72.6593 35.5202 72.8322 35.4523 72.9675 35.402C73.0342 35.3771 73.0862 35.3587 73.1242 35.3457C73.1631 35.3324 73.1801 35.3273 73.1777 35.328C73.1772 35.3282 73.1407 35.3393 73.0746 35.3554C73.0135 35.3703 72.8829 35.4005 72.7004 35.4288C72.5357 35.4543 72.2017 35.4986 71.7624 35.496C71.5351 35.4946 71.225 35.4806 70.8587 35.4268C70.499 35.3739 70.0011 35.2705 69.4343 35.053L71.9139 28.5915ZM60.794 34.224H53.8731C53.8731 35.3517 54.1654 36.2233 54.1831 36.281C54.2651 36.5485 54.3473 36.7598 54.3902 36.8673C54.481 37.0944 54.5711 37.2891 54.6238 37.4009C54.7389 37.645 54.8731 37.9094 54.9987 38.1514C55.2592 38.6535 55.6129 39.3101 56.0224 40.0565C56.8479 41.5612 57.9728 43.5635 59.2015 45.7079L65.2066 42.2672L71.2117 38.8265C70.0134 36.7351 68.9321 34.8098 68.1581 33.3988C67.7678 32.6875 67.4734 32.1392 67.2857 31.7774C67.2403 31.6897 67.2052 31.6209 67.1793 31.5693C67.152 31.515 67.1422 31.494 67.1444 31.4988C67.1459 31.502 67.1549 31.5211 67.1689 31.5527C67.1816 31.5811 67.2091 31.6438 67.2436 31.7302C67.2714 31.7998 67.3422 31.9797 67.4166 32.2222C67.4542 32.3447 67.5143 32.5528 67.5696 32.8169C67.6149 33.0332 67.715 33.5519 67.715 34.224H60.794ZM65.2066 42.2672L59.2015 45.7079C61.0733 48.9748 62.6174 51.66 64.1021 53.3494C65.0078 54.38 66.2586 55.4956 68.0174 56.1929C69.6991 56.8597 71.2228 56.8817 71.9983 56.878L71.9647 49.9571L71.9311 43.0362C71.6245 43.0377 72.2713 42.9893 73.1192 43.3255C74.044 43.6922 74.5039 44.2169 74.4995 44.2119C74.4347 44.1382 74.1632 43.7952 73.5545 42.8155C72.9725 41.8787 72.233 40.6089 71.2117 38.8265L65.2066 42.2672ZM71.9647 49.9571L71.996 56.878C74.2711 56.8677 77.267 56.2061 79.3649 55.145L76.2411 48.969L73.1173 42.7931C73.231 42.7356 73.2388 42.7428 73.1056 42.7874C72.9882 42.8268 72.8238 42.8743 72.63 42.9191C72.437 42.9637 72.2546 42.9965 72.1045 43.0167C71.9437 43.0383 71.888 43.0364 71.9334 43.0362L71.9647 49.9571ZM73.1517 26.7979H80.0727C80.0727 22.994 77.4168 20.9378 76.1485 20.2242C74.6739 19.3944 73.1017 19.1047 71.7395 19.1167L71.8001 26.0374L71.8607 32.9581C71.2418 32.9635 70.3455 32.8416 69.3608 32.2876C68.5825 31.8497 66.2307 30.1769 66.2307 26.7979H73.1517ZM71.8001 26.0374L71.7476 19.1166C71.4668 19.1187 70.8191 19.1235 70.1493 19.2207C69.8525 19.2638 69.0504 19.389 68.1381 19.7982C67.3384 20.1568 64.9664 21.4192 64.1904 24.48C63.4427 27.4289 64.8154 29.6101 65.2464 30.2299C65.7803 30.9975 66.3542 31.4965 66.5786 31.687C67.0777 32.1105 67.6066 32.453 67.8499 32.6103L71.607 26.7979L75.364 20.9854C75.1123 20.8228 75.2735 20.9113 75.5354 21.1336C75.6413 21.2234 76.1294 21.6351 76.6104 22.3268C76.9886 22.8706 78.3416 24.9874 77.6078 27.8818C76.8456 30.8881 74.5209 32.1059 73.8025 32.4281C72.9715 32.8007 72.2847 32.8977 72.1374 32.9191C71.7668 32.9729 71.5558 32.9604 71.8525 32.9581L71.8001 26.0374ZM71.607 26.7979L67.8505 32.6107C68.1782 32.8225 68.6584 33.1326 69.1166 33.3858C69.3528 33.5163 69.7518 33.7269 70.2445 33.917C70.6707 34.0815 71.6493 34.4253 72.9259 34.4253C74.4379 34.4253 76.3001 33.9284 77.8351 32.4579C79.1647 31.1841 79.6341 29.7524 79.809 29.0868C80.1107 27.9387 80.0727 26.8092 80.0727 26.7979H73.1517H66.2307C66.2307 27.2575 66.1818 26.4812 66.4216 25.5686C66.5656 25.0208 66.9913 23.6775 68.2595 22.4625C69.733 21.0509 71.5159 20.5834 72.9259 20.5834C74.1005 20.5834 74.9544 20.8978 75.2281 21.0034C75.5682 21.1346 75.7869 21.257 75.8099 21.2697C75.8419 21.2874 75.7646 21.2443 75.3635 20.9851L71.607 26.7979Z" fill="#FFC727" mask="url(#path-8-inside-3_282_275)"/>
<path d="M17.5201 69.2676C17.3776 68.7019 17.4716 67.4663 17.7795 65.9257C18.2423 63.6096 18.9908 61.9111 19.206 60.7917C19.3661 59.9591 19.6578 58.9155 19.8944 58.0127C19.9561 57.7771 19.9428 57.5389 19.9428 59.5105C19.9428 61.4822 19.9428 65.6678 20.0134 67.8005C20.0839 69.9332 20.225 69.8861 20.9796 68.0983C21.7342 66.3105 23.098 62.7833 23.8477 60.7076C24.7739 58.1429 24.9293 57.2524 25.1901 56.589C25.32 56.2586 25.4039 55.9256 25.4523 56.7907C25.5008 57.6557 25.5008 59.725 25.5478 61.1437C25.6649 64.6769 26.7321 66.8364 26.9729 68.0762C27.1536 69.0063 27.3535 70.0229 27.7789 70.7148C27.8631 70.8519 28.0632 70.7412 28.1829 70.6464C28.925 70.0589 29.2517 68.7004 30.2222 66.0511C31.62 62.2354 32.1504 61.6689 32.34 61.4544C32.7461 60.9949 32.9086 63.5101 33.2193 64.9638C33.6696 66.2706 34.0986 67.3181 34.1698 68.0028C34.194 68.4995 34.194 69.299 34.194 69.9802" stroke="#FFC727" stroke-width="2.74524" stroke-linecap="round"/>
<path d="M8.54321 31.959C9.72463 32.2426 11.027 32.7596 11.7002 32.9198C16.3671 34.0306 13.6599 33.3316 15.8181 33.8807C17.3486 34.27 19.0369 34.968 19.7744 35.0884C20.0868 35.1394 20.3694 35.3014 20.5361 35.538C20.6196 35.6564 20.4677 35.8686 20.3252 35.9891C19.6185 36.5863 18.521 36.8206 17.8797 36.9881C16.8588 37.2547 15.7705 37.7698 14.7687 38.1987C12.975 38.9667 10.0216 39.2433 9.11521 39.3638C8.35165 39.4652 7.69008 39.5768 6.64618 39.8618C5.95059 40.0518 5.3144 40.0998 4.88758 40.1946C4.69474 40.2374 4.55481 40.2894 7.25685 40.3136C9.95888 40.3378 15.5083 40.3378 18.3671 40.4084C21.2259 40.4789 21.2259 40.62 21.1083 40.8103C20.5325 41.7421 18.3899 42.2788 15.1328 43.5401C13.4669 44.1852 12.2533 44.5163 10.2838 44.8968C8.91072 45.1621 7.73996 45.5609 7.0502 45.9172C5.94322 46.489 11.7118 45.4683 13.6599 45.5623C14.2975 45.5931 14.1972 45.8445 14.1017 46.012C13.7196 46.682 13.1996 47.5062 12.7008 48.1974C12.1337 48.9832 11.632 49.9774 11.0862 50.5018C10.3702 51.1897 8.93279 52.2063 8.06774 52.9488C8.3941 53.0214 9.01402 52.9744 10.1947 52.9031C11.0463 52.8789 12.4101 52.8789 13.8153 52.8789" stroke="#FFC727" stroke-width="2.74524" stroke-linecap="round"/>
<path d="M47.6055 56.9294C47.6796 57.0034 48.0511 58.6344 48.7229 61.5479C49.2658 63.9021 49.7752 65.0472 49.9055 65.3828C50.2717 66.327 50.8944 67.5481 51.2715 68.2834C51.5247 68.777 51.6083 69.2745 51.9069 69.5944C51.9843 69.6774 52.1673 69.4294 52.6511 68.3715C53.1349 67.3135 53.9498 65.3503 54.9067 63.487C55.8636 61.6236 56.9379 59.9197 57.5468 58.9122C58.6734 57.0484 59.2771 55.9595 59.7082 55.1923C60.0014 54.6703 60.2515 54.3117 60.3822 54.1428C60.6776 53.7612 60.5882 55.4297 60.6079 58.9543C60.6134 59.9571 60.5141 61.8515 60.4956 64.4512C60.4879 65.5335 60.4019 66.2775 60.513 67.0643C60.6229 67.8426 61.6344 66.136 62.0463 65.5568C62.834 64.4494 63.0195 63.7788 63.2816 63.1811C63.8348 61.9197 64.0298 61.2352 64.2363 60.729C64.4612 60.1777 64.7033 59.7378 64.9468 59.1384C65.2426 58.4107 66.0839 61.4844 66.4813 62.5761C66.8246 63.5193 66.9482 64.2233 67.1177 64.766C67.1739 65.2347 67.3972 65.6826 67.6599 66.1506C67.6981 66.282 67.6981 66.4301 67.8103 66.5828" stroke="#FFC727" stroke-width="2.74524" stroke-linecap="round"/>
<path d="M60.7373 33.9187C61.6263 33.8446 62.5153 33.7705 64.1031 33.7324C65.6909 33.6942 67.9504 33.6942 69.1885 33.7313C71.5652 33.8024 73.4192 34.3677 74.6141 34.8521C74.9901 35.0045 75.3275 35.1523 75.6827 35.3763C75.8303 35.4693 75.8528 35.6002 75.8719 35.713C75.8909 35.8258 75.8909 35.937 75.8354 36.0868C75.7053 36.4377 75.0356 36.8349 73.1201 37.3754C71.7412 37.7645 69.4636 38.1011 68.1328 38.3666C65.9209 38.8078 65.0454 39.1922 64.0509 39.9398C63.8926 40.0588 64.2125 40.2765 66.031 40.3528C67.8494 40.4292 71.2573 40.4292 73.0129 40.4847C74.7685 40.5403 74.7685 40.6514 74.7129 40.7457C74.3999 41.2768 72.8692 41.9198 71.5172 42.6534C70.8212 43.0309 70.2066 43.5699 69.6258 44.299C69.1607 44.8827 68.7833 45.7004 68.5021 46.3576C68.3997 46.5971 68.3332 46.8262 68.4253 47.0502C68.7833 47.9213 70.0495 47.5368 72.1974 47.6316C73.3895 47.6843 75.3948 47.9499 76.8035 48.1547C77.0494 48.2114 77.1975 48.2484 77.4776 48.2675C77.7576 48.2866 78.1651 48.2866 78.5849 48.2866" stroke="#FFC727" stroke-width="2.74524" stroke-linecap="round"/>
<path d="M18.2344 18.0369C20.1418 18.1748 22.0491 18.3127 24.445 18.3952C26.8409 18.4778 29.6675 18.5007 31.3419 18.5585C33.457 18.6315 33.9718 18.803 34.0992 18.7685C34.2411 18.7301 34.274 18.4791 34.2974 18.2476C34.3449 17.7761 33.9739 17.3656 33.164 16.0234C32.1862 14.4028 31.2107 13.6275 31.1181 13.4537C31.0737 13.3706 31.0254 13.303 31.1511 13.3134C31.5862 13.3496 32.6877 13.6024 34.4119 13.7417C36.3373 13.8972 37.4997 13.7661 37.6852 13.6968C38.111 13.5378 37.6647 12.1929 37.5592 11.5861C37.3848 10.6567 37.3618 10.2849 37.327 10.0767C37.3151 9.96036 37.3151 9.82248 37.3151 9.68042" stroke="#FFC727" stroke-width="2.74524" stroke-linecap="round"/>
<path d="M20.1831 14.1368C20.4359 14.1368 20.6887 14.1368 21.6347 14.1368C22.5807 14.1368 24.2123 14.1368 25.0069 14.0448C25.8015 13.9529 25.7096 13.7691 25.6162 13.6169C25.194 12.9284 24.6413 12.1201 24.2005 11.4467C23.864 10.9325 23.6664 10.471 23.5832 10.1221C23.6629 10.0518 23.8697 10.0058 26.2858 9.98217C28.7019 9.9585 33.321 9.9585 38.08 9.9585" stroke="#FFC727" stroke-width="2.74524" stroke-linecap="round"/>
<path d="M25.5454 6.26807C26.0969 6.31403 26.6485 6.35999 28.277 6.38367C29.9054 6.40734 32.5941 6.40734 34.0252 6.38436C35.4563 6.36138 35.5482 6.31542 35.6645 6.29174C35.7808 6.26807 35.9186 6.26807 36.0607 6.26807" stroke="#FFC727" stroke-width="2.74524" stroke-linecap="round"/>
<path d="M44.7412 12.4057C44.8823 11.4637 45.1687 9.55833 45.5471 8.01848C45.7858 6.56414 45.9754 5.71334 46.0709 4.61885C46.1179 4.37943 46.2119 4.19131 46.3088 3.85498" stroke="#FFC727" stroke-width="2.74524" stroke-linecap="round"/>
<path d="M46.7368 4.13965C46.7838 4.28074 46.8309 4.42182 47.1843 6.04646C47.5377 7.6711 48.1961 10.775 48.6764 12.9619C49.416 16.3296 49.9177 18.0061 50.2027 18.8127C50.3937 19.7191 50.6317 20.3832 50.7029 20.9048C50.7272 21.1442 50.7272 21.3323 50.7272 21.5262" stroke="#FFC727" stroke-width="2.74524" stroke-linecap="round"/>
<path d="M51.4398 24.2338C52.2449 22.2443 52.9105 20.6282 53.1962 19.7247C53.6906 18.1616 54.5722 16.3101 55.5213 14.1468C56.0627 12.9128 56.4733 12.4081 56.9486 11.459C57.3329 10.6914 57.5193 9.98543 57.7096 9.41467C57.905 8.82826 58.3259 8.18122 58.3523 7.70309C58.4183 6.50558 55.7664 9.45813 54.7938 10.0275C52.7224 11.2399 51.206 11.9293 50.5633 12.3796C49.927 12.8255 48.9287 13.115 47.8092 13.804C47.4523 14.1126 47.1188 14.399 46.6692 14.7774C46.4076 15.0147 46.0784 15.3439 45.7393 15.6831" stroke="#FFC727" stroke-width="2.74524" stroke-linecap="round"/>
<path d="M52.8638 23.9491C54.6509 23.0085 56.7472 21.4423 58.5757 19.7093C59.8805 18.4727 61.3575 16.4558 62.1492 15.2822C62.2682 15.1147 62.4092 14.9736 62.5054 14.8069C62.6016 14.6402 62.6487 14.4521 62.8396 14.1157" stroke="#FFC727" stroke-width="2.74524" stroke-linecap="round"/>
<path d="M23.5444 21.9453C25.6451 21.9162 27.7458 21.887 29.2802 21.872C30.8146 21.8569 31.7191 21.8569 32.6509 21.8569" stroke="#FFC727" stroke-width="1.37262" stroke-linecap="round"/>
<path d="M27.4331 14.3418C28.2792 14.4877 29.1253 14.6336 30.6553 14.7671C32.1853 14.9006 34.3735 15.0173 36.628 15.1375" stroke="#FFC727" stroke-width="1.37262" stroke-linecap="round"/>
<path d="M52.6318 3.73242C52.6027 3.84913 52.5735 3.96583 52.7919 6.22875C53.0103 8.49167 53.4771 12.8973 53.7176 15.9692C53.958 19.0411 53.958 20.6457 53.8696 22.4759" stroke="#FFC727" stroke-width="1.37262" stroke-linecap="round"/>
<path d="M61.297 12.3079C61.2095 12.4829 61.122 12.658 58.9908 14.63C56.8596 16.6021 52.6874 20.3658 50.4798 22.3776C48.2721 24.3894 48.1554 24.5353 48.0352 24.6856" stroke="#FFC727" stroke-width="1.37262" stroke-linecap="round"/>
<path d="M2.85498 44.3135L19.3881 41.0422" stroke="#FFC727" stroke-width="1.37262" stroke-linecap="round"/>
<path d="M13.2886 67.3011C13.9013 66.2799 14.514 65.2587 15.559 63.8282C16.604 62.3977 18.0629 60.5888 18.9165 59.584C20.3306 58.1371 21.0936 57.4908 21.8593 56.902C22.1581 56.6633 22.2748 56.5466 22.4835 56.2495" stroke="#FFC727" stroke-width="1.37262" stroke-linecap="round"/>
<path d="M29.3789 56.6033C29.4664 59.9002 29.554 63.1971 29.7303 65.2894C29.9067 67.3816 30.1693 68.1694 30.4399 69.0694" stroke="#FFC727" stroke-width="1.37262" stroke-linecap="round"/>
<path d="M23.5444 70.5725C24.3905 68.7927 25.2366 67.013 25.7163 65.9502C26.1959 64.8875 26.2835 64.5958 26.3736 64.2952" stroke="#FFC727" stroke-width="1.37262" stroke-linecap="round"/>
<path d="M55.1956 54.2158C55.1956 54.245 55.1956 54.2742 54.262 55.9085C53.3283 57.5428 51.4611 60.7813 50.47 62.581C49.4789 64.3806 49.4205 64.6432 49.3904 64.8222C49.3604 65.0013 49.3604 65.0888 49.272 65.2674" stroke="#FFC727" stroke-width="1.37262" stroke-linecap="round"/>
<path d="M52.1015 52.8896C51.3721 55.603 50.6427 58.3164 50.2378 59.9622C49.8328 61.608 49.7745 62.104 49.7144 62.615" stroke="#FFC727" stroke-width="1.37262" stroke-linecap="round"/>
<path d="M64.8318 54.835C64.7151 55.0975 64.5984 55.3601 64.0569 56.429C63.5154 57.4979 62.5526 59.3652 61.4722 61.3775" stroke="#FFC727" stroke-width="1.37262" stroke-linecap="round"/>
<path d="M67.0425 54.481C67.0425 54.5685 67.0425 54.656 67.378 55.8827C67.7135 57.1095 68.3846 59.4727 68.7303 60.8944C69.076 62.3161 69.076 62.7245 69.0906 62.9787C69.1051 63.2329 69.1343 63.3204 69.1644 63.5874" stroke="#FFC727" stroke-width="1.37262" stroke-linecap="round"/>
<path d="M72.0823 54.7461L71.375 61.0234" stroke="#FFC727" stroke-width="1.37262" stroke-linecap="round"/>
<path d="M59.529 62.6155L56.4346 68.5391" stroke="#FFC727" stroke-width="1.37262" stroke-linecap="round"/>
<path d="M71.6406 43.9599C74.0914 43.6974 76.5422 43.4348 78.2424 43.2266C79.9426 43.0183 80.8178 42.8725 81.7197 42.7222" stroke="#FFC727" stroke-width="1.37262" stroke-linecap="round"/>
<path d="M66.6016 29.9028C69.1399 30.2529 71.6782 30.6031 73.0588 30.7834C74.4393 30.9638 74.5852 30.9638 74.7355 30.9638" stroke="#FFC727" stroke-width="1.37262" stroke-linecap="round"/>
<path d="M6.53467 36.4909L17.8777 34.4299" stroke="#FFC727" stroke-width="1.37262" stroke-linecap="round"/>
</svg>
