<svg width="209" height="42" viewBox="0 0 209 42" fill="none" xmlns="http://www.w3.org/2000/svg">
<path d="M186.845 11.5069C186.845 8.01378 186.859 4.5206 186.832 1.02769C186.827 0.441477 186.992 0.280117 187.578 0.282434C193.028 0.304029 198.48 0.297821 203.93 0.293928C204.8 0.288021 205.658 0.501137 206.424 0.913659C207.19 1.32618 207.841 1.92485 208.315 2.65454C208.513 2.92421 208.616 3.25264 208.606 3.58738C208.594 5.73909 208.555 7.89228 208.625 10.0418C208.649 10.7726 207.828 10.9923 207.867 11.4953C207.903 11.9615 208.631 12.1855 208.62 12.8804C208.573 15.9257 208.585 18.9722 208.613 22.0179C208.619 22.5625 208.432 22.6532 207.943 22.6523C201.151 22.638 194.358 22.6393 187.567 22.6561C186.966 22.658 186.828 22.4758 186.832 21.9024C186.858 18.4373 186.845 14.9721 186.845 11.5069ZM198.039 14.7067C196.643 14.7067 195.246 14.7367 193.851 14.6937C193.191 14.6734 193.316 15.0771 193.315 15.4508C193.314 15.8303 193.205 16.2235 193.857 16.2169C196.62 16.1892 199.386 16.1853 202.15 16.2193C202.851 16.228 202.713 15.8115 202.735 15.4061C202.76 14.971 202.741 14.6733 202.143 14.6925C200.776 14.7366 199.407 14.7064 198.039 14.7067ZM197.952 8.22148C199.345 8.22148 200.74 8.19182 202.132 8.23576C202.71 8.25401 202.771 7.99525 202.736 7.54092C202.706 7.13868 202.855 6.72272 202.145 6.73264C199.387 6.77138 196.628 6.76489 193.869 6.73644C193.235 6.72995 193.306 7.09549 193.313 7.48874C193.319 7.86438 193.202 8.25772 193.856 8.23548C195.22 8.18895 196.587 8.22139 197.952 8.22148Z" fill="white"/>
<path d="M90.0591 13.6136C90.0591 16.3803 90.0424 19.1472 90.073 21.9136C90.0795 22.5022 89.9108 22.669 89.326 22.6552C87.6773 22.6163 86.0257 22.5998 84.3788 22.661C83.6651 22.6876 83.5743 22.4142 83.5827 21.8067C83.6151 19.6832 83.5743 17.5586 83.6095 15.4353C83.6188 14.8526 83.4687 14.6838 82.8746 14.6912C80.2193 14.7243 77.5637 14.7243 74.9078 14.6911C74.311 14.6836 74.1655 14.8569 74.1747 15.4368C74.209 17.5882 74.171 19.7406 74.2007 21.8922C74.2081 22.4413 74.121 22.675 73.4917 22.6577C71.7873 22.611 70.0811 22.6218 68.3767 22.6538C67.8595 22.6634 67.715 22.5172 67.7168 21.9993C67.7344 16.5218 67.7011 11.044 67.7391 5.56676C67.7198 4.8649 67.8449 4.16657 68.1064 3.51497C68.3679 2.86337 68.7603 2.27238 69.2594 1.77855C69.7585 1.28473 70.3537 0.898579 71.008 0.644005C71.6623 0.389431 72.3619 0.271845 73.0635 0.298527C76.9486 0.282122 80.8341 0.281844 84.7198 0.297692C85.4278 0.27567 86.1328 0.399148 86.7911 0.660484C87.4494 0.921821 88.0471 1.31546 88.5473 1.81705C89.0474 2.31864 89.4393 2.91751 89.6987 3.57662C89.9581 4.23573 90.0795 4.94106 90.0554 5.64897C90.0721 8.30366 90.0582 10.9587 90.0591 13.6136ZM78.8328 8.22043C80.2536 8.22043 81.6753 8.19513 83.0961 8.2322C83.7022 8.24805 83.6077 7.87853 83.591 7.53032C83.5743 7.1811 83.768 6.73233 83.0868 6.73798C80.3009 6.76134 77.5149 6.7605 74.729 6.73548C74.0783 6.72881 74.1896 7.11826 74.1886 7.49668C74.1877 7.87658 74.0821 8.26065 74.7382 8.236C76.1016 8.18475 77.4677 8.22071 78.8328 8.22043Z" fill="white"/>
<path d="M185.342 13.5711C185.342 16.366 185.328 19.1611 185.354 21.9557C185.36 22.4989 185.217 22.6666 184.662 22.6549C182.958 22.6189 181.252 22.6186 179.546 22.654C179.023 22.6641 178.89 22.5097 178.897 21.9958C178.926 19.8161 178.892 17.6356 178.921 15.456C178.93 14.8987 178.826 14.682 178.204 14.6903C175.52 14.7262 172.836 14.7264 170.153 14.6911C169.567 14.6838 169.475 14.8971 169.481 15.4095C169.505 17.5893 169.474 19.7696 169.503 21.9493C169.51 22.4873 169.376 22.667 168.813 22.6551C167.081 22.6184 165.347 22.6277 163.613 22.651C163.15 22.6573 162.988 22.5375 162.989 22.0475C163.005 16.5137 162.969 10.9795 163.012 5.44596C163.014 4.76547 163.151 4.09213 163.414 3.46471C163.678 2.83729 164.063 2.26816 164.547 1.79009C165.031 1.31202 165.605 0.934448 166.236 0.679094C166.867 0.423741 167.542 0.295653 168.222 0.302202C172.221 0.272915 176.219 0.273378 180.216 0.303592C181.575 0.308514 182.876 0.851666 183.834 1.81406C184.793 2.77645 185.331 4.07962 185.331 5.43809C185.364 8.14876 185.338 10.8601 185.338 13.5711H185.342ZM174.132 8.22086C175.526 8.22086 176.92 8.19055 178.312 8.23523C178.895 8.25395 178.946 7.98832 178.915 7.53807C178.885 7.13379 179.03 6.72173 178.321 6.73174C175.562 6.77085 172.801 6.76436 170.041 6.73526C169.399 6.72849 169.486 7.10256 169.49 7.49025C169.495 7.86533 169.377 8.25831 170.033 8.23523C171.398 8.1874 172.766 8.22086 174.132 8.22086Z" fill="white"/>
<path d="M43.9285 11.4127C43.9285 7.94665 43.9434 4.48062 43.9146 1.01496C43.91 0.419012 44.0805 0.266736 44.6616 0.280453C46.3104 0.31975 47.962 0.330316 49.6098 0.27656C50.2715 0.254873 50.3818 0.480924 50.3726 1.07798C50.3374 3.2296 50.3763 5.38241 50.3466 7.53421C50.3392 8.07381 50.4764 8.23998 51.0343 8.23387C53.7174 8.20439 56.4023 8.19967 59.0854 8.23628C59.7101 8.2449 59.8055 8.02431 59.7981 7.47258C59.7675 5.32069 59.7972 3.16814 59.7768 1.01607C59.7721 0.51818 59.838 0.264879 60.4413 0.279523C62.1744 0.321415 63.9084 0.307607 65.6416 0.285364C66.1003 0.279432 66.2718 0.391112 66.2709 0.887332C66.256 7.93098 66.2566 14.9746 66.2727 22.0183C66.2746 22.5695 66.0725 22.658 65.5906 22.651C63.8853 22.6265 62.179 22.6192 60.4737 22.6543C59.9232 22.6656 59.7647 22.5082 59.7731 21.9559C59.8037 19.8041 59.7666 17.6514 59.7981 15.4996C59.8064 14.9199 59.723 14.6752 59.0446 14.6868C56.3893 14.7322 53.7322 14.7245 51.0769 14.6907C50.4791 14.6831 50.3355 14.8557 50.3448 15.4354C50.379 17.5871 50.3411 19.74 50.3707 21.8918C50.3781 22.4391 50.2947 22.6756 49.6636 22.6577C47.987 22.6101 46.3095 22.6098 44.6311 22.657C44.0101 22.6738 43.9128 22.4479 43.9165 21.8943C43.9406 18.4005 43.9285 14.9065 43.9285 11.4127Z" fill="white"/>
<path d="M133.972 11.4701C135.105 12.1276 136.11 12.7303 137.136 13.2946C137.314 13.3657 137.464 13.4918 137.565 13.6544C137.666 13.817 137.712 14.0076 137.697 14.1984C137.672 16.7975 137.672 19.3968 137.697 21.9962C137.701 22.5028 137.576 22.6654 137.049 22.655C135.317 22.6209 133.582 22.6252 131.849 22.6531C131.359 22.6609 131.244 22.4945 131.249 22.0309C131.271 19.8509 131.238 17.6705 131.273 15.4911C131.282 14.8913 131.164 14.6785 130.506 14.689C127.88 14.731 125.251 14.7354 122.623 14.6871C121.918 14.6741 121.817 14.9251 121.826 15.5372C121.859 17.6888 121.823 19.8415 121.851 21.9932C121.858 22.4999 121.737 22.6658 121.207 22.6553C119.474 22.621 117.74 22.6241 116.008 22.6537C115.492 22.6625 115.348 22.5096 115.349 21.9955C115.364 14.9802 115.365 7.9649 115.35 0.949548C115.349 0.444061 115.481 0.274638 116.003 0.283814C117.736 0.314213 119.469 0.313905 121.203 0.282887C121.729 0.272878 121.858 0.433031 121.851 0.943524C121.823 3.15121 121.853 5.35955 121.829 7.56732C121.823 8.05706 121.915 8.24177 122.462 8.23565C125.173 8.20498 127.884 8.2051 130.596 8.23603C131.181 8.24307 131.275 8.03231 131.269 7.51811C131.244 5.33832 131.278 3.15779 131.246 0.97819C131.238 0.423488 131.401 0.271765 131.947 0.282979C133.624 0.316993 135.302 0.312452 136.979 0.285111C137.494 0.276677 137.707 0.376774 137.699 0.959374C137.667 3.55827 137.677 6.15782 137.694 8.75699C137.711 8.93366 137.671 9.11123 137.581 9.26383C137.49 9.41643 137.353 9.53609 137.19 9.6054C136.139 10.1785 135.114 10.8026 133.972 11.4701Z" fill="white"/>
<path d="M104.829 22.6417C102.256 22.6417 99.6842 22.6475 97.1114 22.6401C96.3682 22.6989 95.6211 22.5957 94.9217 22.3378C94.2222 22.0799 93.587 21.6733 93.0599 21.1461C92.5328 20.6189 92.1263 19.9837 91.8684 19.2841C91.6106 18.5846 91.5075 17.8375 91.5664 17.0943C91.5608 13.3206 91.5608 9.54689 91.5664 5.77321C91.5195 5.044 91.6282 4.31314 91.8852 3.62912C92.1422 2.9451 92.5418 2.32353 93.0572 1.80564C93.5727 1.28776 94.1924 0.885373 94.8752 0.625181C95.5581 0.36499 96.2884 0.252934 97.0178 0.296444C102.387 0.289492 107.755 0.303025 113.124 0.28245C113.71 0.280225 113.963 0.368366 113.941 1.04374C113.887 2.69126 113.887 4.34016 113.941 5.99046C113.962 6.65851 113.714 6.76222 113.123 6.75953C108.369 6.73794 103.616 6.7637 98.8621 6.72997C98.1531 6.72496 97.9844 6.92284 97.9956 7.61036C98.0373 10.1814 98.0493 12.7544 97.99 15.3247C97.9715 16.1086 98.2282 16.2251 98.9289 16.2207C103.654 16.1906 108.379 16.2182 113.105 16.1898C113.766 16.1859 113.96 16.3629 113.939 17.0257C113.891 18.6456 113.887 20.2691 113.942 21.8886C113.964 22.5548 113.731 22.6617 113.133 22.6552C110.366 22.6248 107.597 22.6417 104.829 22.6417Z" fill="white"/>
<path d="M150.378 22.6416C146.911 22.6416 143.443 22.6244 139.977 22.6573C139.345 22.6633 139.187 22.4972 139.188 21.8694C139.212 14.9371 139.212 8.0047 139.188 1.07224C139.187 0.450988 139.335 0.258579 139.975 0.278228C141.568 0.327164 143.164 0.33143 144.756 0.277489C145.468 0.253299 145.693 0.40715 145.686 1.17641C145.644 5.90014 145.68 10.6245 145.649 15.3484C145.645 16.0424 145.823 16.227 146.523 16.222C151.22 16.189 155.918 16.2262 160.615 16.1841C161.417 16.177 161.586 16.4275 161.561 17.1671C161.508 18.7307 161.516 20.2981 161.559 21.8624C161.575 22.4761 161.426 22.665 160.779 22.6583C157.313 22.6228 153.846 22.6416 150.378 22.6416Z" fill="white"/>
<path d="M43.8096 33.7854C43.8096 31.4949 43.831 29.2041 43.7967 26.9141C43.7874 26.2454 43.9514 25.9825 44.6762 25.9891C48.2805 26.0221 51.8848 25.9916 55.4892 26.0088C56.0156 25.9763 56.543 26.0563 57.0361 26.2437C57.5292 26.4311 57.9767 26.7214 58.3487 27.0954C58.7208 27.4693 59.0088 27.9183 59.1936 28.4124C59.3785 28.9064 59.4559 29.4342 59.4206 29.9606C59.4243 30.603 59.3956 31.2469 59.4299 31.8875C59.4749 32.1628 59.4461 32.4452 59.3465 32.7057C59.2468 32.9663 59.0799 33.1958 58.8627 33.3709C58.7797 33.4132 58.7101 33.4778 58.6617 33.5575C58.6134 33.6372 58.5882 33.7287 58.5889 33.8219C58.5897 33.9151 58.6164 34.0062 58.6661 34.0851C58.7157 34.1639 58.7864 34.2274 58.8701 34.2683C59.0836 34.4468 59.2474 34.6775 59.3455 34.938C59.4436 35.1984 59.4727 35.4798 59.4299 35.7549C59.4058 37.3746 59.3891 38.9958 59.4364 40.6145C59.4577 41.356 59.2696 41.6326 58.467 41.6259C53.9127 41.5888 49.3587 41.5891 44.805 41.6268C43.9672 41.6341 43.7763 41.3549 43.793 40.5725C43.8402 38.311 43.8096 36.0478 43.8096 33.7854ZM51.6022 30.5253C50.7097 30.5253 49.8171 30.5363 48.9246 30.5205C48.489 30.5129 48.3361 30.7001 48.3417 31.123C48.3472 31.533 48.5493 31.6532 48.9154 31.6524C50.7004 31.6485 52.4854 31.6492 54.2704 31.6545C54.6662 31.6561 54.8988 31.5491 54.8979 31.0903C54.8979 30.6396 54.6856 30.5144 54.2797 30.5205C53.3872 30.5336 52.4947 30.5245 51.6022 30.5253ZM51.6216 37.1874C52.4845 37.1874 53.3473 37.1805 54.2102 37.1905C54.6235 37.1952 54.909 37.1237 54.8988 36.6038C54.8886 36.127 54.6217 36.0669 54.2463 36.0679C52.4928 36.0728 50.739 36.0727 48.9849 36.0677C48.6049 36.0665 48.3482 36.1359 48.3389 36.6092C48.3296 37.1331 48.6234 37.1948 49.0322 37.1903C49.895 37.1811 50.7578 37.1875 51.6216 37.1874Z" fill="#25C04F"/>
<path d="M152.705 41.6077C150.86 41.6065 149.014 41.62 147.169 41.6029C146.706 41.6032 146.248 41.5118 145.821 41.3339C145.395 41.156 145.007 40.8952 144.682 40.5666C144.356 40.2379 144.099 39.848 143.926 39.4194C143.752 38.9908 143.665 38.5319 143.67 38.0695C143.655 35.3298 143.663 32.59 143.667 29.8504C143.638 29.3512 143.713 28.8514 143.886 28.3825C144.06 27.9135 144.329 27.4857 144.676 27.126C145.024 26.7663 145.442 26.4824 145.904 26.2924C146.367 26.1024 146.864 26.0103 147.363 26.0219C151.11 25.968 154.858 26.0126 158.605 25.9986C159.12 25.9965 159.293 26.1924 159.28 26.6921C159.255 27.6699 159.236 28.6507 159.286 29.6266C159.321 30.3118 159.109 30.5466 158.398 30.5386C155.294 30.5041 152.19 30.5203 149.086 30.5302C148.8 30.5311 148.451 30.3977 148.248 30.7378C147.997 31.1629 148.289 31.5456 148.897 31.5477C151.47 31.557 154.043 31.5327 156.616 31.5634C157.469 31.5736 158.562 31.1737 159.114 31.7586C159.621 32.2944 159.257 33.3619 159.266 34.194C159.288 36.0698 159.274 36.07 157.361 36.07C154.62 36.07 151.88 36.0622 149.139 36.0795C148.778 36.0817 148.219 35.8515 148.204 36.5613C148.188 37.2651 148.734 37.0792 149.109 37.0806C152.186 37.0926 155.262 37.1086 158.338 37.0721C159.066 37.0635 159.339 37.2587 159.289 38.0126C159.23 38.9336 159.229 39.8574 159.287 40.7785C159.327 41.4704 159.043 41.6304 158.41 41.62C156.509 41.589 154.607 41.6088 152.705 41.6077Z" fill="#25C04F"/>
<path d="M200.107 41.6069C198.179 41.6069 196.25 41.5912 194.321 41.6168C193.749 41.6243 193.511 41.4467 193.533 40.8528C193.568 39.9319 193.582 39.0066 193.529 38.0874C193.486 37.33 193.733 37.0597 194.52 37.0699C197.538 37.1092 200.558 37.0857 203.576 37.0856C203.772 37.0856 203.967 37.0807 204.163 37.0836C204.482 37.0882 204.711 36.9977 204.714 36.6207C204.718 36.227 204.513 36.0716 204.142 36.0719C202.884 36.0728 201.626 36.0694 200.369 36.0685C199.362 36.0677 198.356 36.0724 197.349 36.0672C196.887 36.1026 196.422 36.0454 195.983 35.8989C195.543 35.7524 195.137 35.5196 194.788 35.2141C194.44 34.9085 194.156 34.5364 193.953 34.1197C193.75 33.7029 193.633 33.2498 193.608 32.7871C193.48 31.648 193.474 30.4988 193.589 29.3585C193.661 28.4226 194.094 27.5514 194.796 26.9285C195.498 26.3055 196.415 25.9795 197.353 26.0191C200.874 25.9693 204.396 26.0139 207.918 25.9945C208.497 25.9913 208.627 26.2405 208.613 26.7537C208.587 27.7311 208.567 28.7117 208.619 29.6869C208.656 30.37 208.393 30.5396 207.75 30.5338C204.787 30.5069 201.825 30.5187 198.862 30.5276C198.579 30.5284 198.192 30.3975 198.091 30.8256C197.959 31.3844 198.243 31.5609 198.781 31.5568C200.905 31.5403 203.029 31.5403 205.154 31.5568C205.572 31.5568 205.988 31.6022 206.396 31.6923C207.053 31.7693 207.653 32.1017 208.067 32.6177C208.48 33.1337 208.674 33.7918 208.606 34.4495V38.8086C208.634 39.1753 208.584 39.5437 208.459 39.8894C208.333 40.2352 208.136 40.5502 207.879 40.8135C207.622 41.0767 207.312 41.2823 206.97 41.4163C206.627 41.5503 206.26 41.6098 205.893 41.5907C203.965 41.6297 202.036 41.5998 200.107 41.5998V41.6069Z" fill="#25C04F"/>
<path d="M60.4406 33.7307C60.4406 31.4397 60.461 29.1485 60.4286 26.858C60.4193 26.2073 60.6065 25.9854 61.2794 25.9909C64.8846 26.02 68.4899 25.9928 72.0942 26.009C72.6279 25.9709 73.1634 26.0491 73.664 26.238C74.1645 26.427 74.6181 26.7223 74.9935 27.1035C75.3689 27.4847 75.6572 27.9428 75.8384 28.4462C76.0196 28.9496 76.0895 29.4864 76.0433 30.0194C76.0451 30.6061 76.0192 31.1941 76.0507 31.7792C76.1071 32.081 76.0812 32.3925 75.9757 32.6809C75.8702 32.9693 75.689 33.224 75.4511 33.4181C75.3751 33.4593 75.3119 33.5205 75.2685 33.5953C75.2254 33.6701 75.2039 33.7554 75.2064 33.8418C75.2088 33.9281 75.2351 34.012 75.2824 34.0843C75.3297 34.1565 75.3961 34.2141 75.4742 34.2509C75.699 34.4381 75.8706 34.6811 75.972 34.9556C76.0733 35.23 76.1008 35.5262 76.0516 35.8146C76.0294 37.4906 76.0247 39.1674 76.0535 40.8432C76.0637 41.426 75.8663 41.6386 75.2815 41.6176C74.3046 41.5825 73.3241 41.5788 72.3472 41.6189C71.7328 41.6443 71.4992 41.4452 71.5177 40.8109C71.5557 39.4989 71.502 38.1843 71.54 36.8723C71.5585 36.2422 71.3296 36.0473 70.7151 36.0588C69.0395 36.0903 67.362 36.0852 65.6854 36.0613C65.1404 36.0536 64.9467 36.2445 64.9579 36.7907C64.9857 38.1311 64.9393 39.4733 64.9782 40.8132C64.9968 41.4505 64.7614 41.6452 64.1497 41.6186C63.2284 41.5722 62.3053 41.5732 61.3841 41.6217C60.6584 41.6651 60.4091 41.4412 60.424 40.6869C60.4703 38.3689 60.4406 36.0495 60.4406 33.7307ZM68.2832 30.5242C67.3907 30.5242 66.4982 30.5306 65.6057 30.5212C65.222 30.5172 64.9653 30.5935 64.9625 31.0649C64.9597 31.5031 65.1432 31.6575 65.5612 31.6554C67.374 31.6468 69.1868 31.6493 70.9996 31.6535C71.4028 31.6544 71.6317 31.507 71.6215 31.0672C71.6123 30.6151 71.3481 30.5175 70.9598 30.5217C70.0682 30.5317 69.1757 30.5249 68.2832 30.5242Z" fill="#25C04F"/>
<path d="M183.377 41.6082C181.477 41.6086 179.577 41.593 177.678 41.618C177.105 41.6256 176.894 41.4448 176.896 40.8524C176.915 36.1602 176.915 31.468 176.896 26.7757C176.894 26.2027 177.066 25.9911 177.659 25.9945C181.346 26.0154 185.035 25.9794 188.722 26.0154C189.234 25.9932 189.746 26.0793 190.223 26.2682C190.7 26.4572 191.132 26.7446 191.49 27.1118C191.848 27.479 192.125 27.9177 192.302 28.3992C192.479 28.8806 192.553 29.3941 192.518 29.9059C192.525 32.5872 192.524 35.2685 192.516 37.9498C192.543 38.44 192.466 38.9304 192.289 39.3885C192.113 39.8466 191.841 40.2621 191.492 40.6076C191.144 40.9531 190.725 41.2207 190.266 41.3927C189.806 41.5648 189.315 41.6374 188.825 41.6058C187.009 41.6151 185.194 41.6078 183.377 41.6082ZM181.437 33.8699C181.437 34.708 181.453 35.5465 181.431 36.384C181.418 36.8691 181.573 37.0987 182.097 37.0931C183.83 37.074 185.563 37.0737 187.295 37.0922C187.788 37.0968 188.001 36.9287 187.995 36.4138C187.977 34.6819 187.977 32.9497 187.995 31.2175C188 30.7276 187.845 30.511 187.324 30.5171C185.592 30.5371 183.859 30.5418 182.127 30.5148C181.549 30.5057 181.413 30.7571 181.429 31.272C181.456 32.1371 181.436 33.0037 181.437 33.8699Z" fill="#25C04F"/>
<path d="M160.286 35.2116C160.286 33.4229 160.279 31.6341 160.288 29.8454C160.264 29.3464 160.343 28.8477 160.52 28.3803C160.696 27.9129 160.967 27.4867 161.315 27.128C161.662 26.7693 162.08 26.4858 162.542 26.2949C163.004 26.104 163.5 26.0098 163.999 26.0182C166.738 25.9651 169.479 25.9587 172.218 26.021C172.717 26.0177 173.212 26.1168 173.671 26.3122C174.131 26.5076 174.546 26.7952 174.889 27.1572C175.233 27.5192 175.5 27.9479 175.671 28.4167C175.843 28.8856 175.917 29.3847 175.888 29.8832C175.892 33.4887 175.874 37.0942 175.902 40.6994C175.907 41.3706 175.742 41.6611 175.019 41.6206C174.043 41.566 173.061 41.585 172.084 41.6149C171.534 41.6319 171.348 41.4192 171.358 40.8801C171.384 39.5669 171.341 38.2523 171.376 36.9397C171.393 36.3131 171.239 36.0347 170.542 36.0539C168.894 36.0992 167.243 36.0932 165.595 36.0562C164.953 36.0418 164.777 36.2792 164.793 36.8881C164.83 38.2006 164.784 39.5154 164.814 40.8283C164.827 41.3955 164.657 41.639 164.055 41.6169C163.05 41.5798 162.042 41.5799 161.037 41.6169C160.437 41.6389 160.27 41.3974 160.277 40.8294C160.303 38.9571 160.286 37.0842 160.286 35.2116ZM168.009 31.6518C168.904 31.6518 169.797 31.6439 170.691 31.6552C171.114 31.6605 171.382 31.5666 171.371 31.0546C171.36 30.5746 171.09 30.5197 170.715 30.5208C168.956 30.526 167.196 30.5257 165.437 30.5201C165.045 30.5185 164.801 30.6057 164.8 31.0728C164.8 31.5194 165.003 31.6593 165.412 31.6541C166.278 31.6429 167.144 31.6506 168.009 31.6518Z" fill="#25C04F"/>
<path d="M142.641 33.8363C142.641 36.1563 142.624 38.4766 142.652 40.7963C142.659 41.4144 142.466 41.645 141.836 41.6176C140.859 41.5754 139.878 41.5743 138.901 41.6176C138.251 41.6466 138.092 41.373 138.106 40.7775C138.138 39.4366 138.101 38.0941 138.123 36.7528C138.131 36.2522 137.958 36.055 137.444 36.0609C135.711 36.081 133.977 36.0849 132.244 36.0596C131.659 36.0511 131.545 36.3283 131.552 36.8312C131.572 38.1446 131.539 39.459 131.568 40.7721C131.582 41.3604 131.433 41.6463 130.777 41.6181C129.743 41.5738 128.708 41.5943 127.674 41.6102C127.21 41.6175 127.027 41.4326 127.028 40.967C127.036 36.1872 127.036 31.4074 127.028 26.6276C127.027 26.1472 127.236 25.9924 127.687 25.9989C128.721 26.0138 129.756 26.024 130.79 25.9954C131.379 25.9791 131.576 26.2248 131.566 26.7928C131.542 28.1341 131.576 29.4763 131.552 30.8176C131.543 31.3551 131.734 31.564 132.282 31.5571C133.987 31.5354 135.692 31.5357 137.398 31.5578C137.949 31.5654 138.134 31.3554 138.123 30.8188C138.099 29.5055 138.152 28.1901 138.102 26.8783C138.074 26.1603 138.342 25.956 139.021 25.9909C139.941 26.0383 140.867 26.0341 141.788 25.9925C142.459 25.9622 142.658 26.2327 142.651 26.8764C142.625 29.1961 142.641 31.5163 142.641 33.8363Z" fill="#25C04F"/>
<path d="M99.3317 33.8049C99.3317 31.4863 99.3521 29.1673 99.3187 26.8493C99.3085 26.1819 99.5319 25.9596 100.189 25.9921C101.108 26.0374 102.034 26.036 102.954 25.9925C103.598 25.9621 103.772 26.222 103.755 26.8274C103.72 28.1114 103.771 29.3979 103.734 30.6819C103.715 31.3194 103.892 31.5818 104.579 31.5644C106.254 31.522 107.932 31.5286 109.608 31.562C110.229 31.5743 110.449 31.3712 110.432 30.7451C110.396 29.4052 110.432 28.0635 110.415 26.7229C110.41 26.2534 110.522 25.9857 111.063 25.9977C112.124 26.0214 113.186 26.0174 114.248 25.9997C114.758 25.9911 114.942 26.2191 114.939 26.707C114.927 28.4389 114.931 30.1709 114.934 31.9029C114.954 32.1413 114.898 32.3797 114.775 32.5849C114.652 32.79 114.468 32.9516 114.248 33.0469C113.947 33.191 113.665 33.3748 113.372 33.5374C112.998 33.7445 112.913 33.9946 113.375 34.1439C114.868 34.626 115.063 35.7259 114.957 37.0928C114.89 38.3203 114.886 39.5505 114.945 40.7785C114.96 41.3712 114.799 41.6487 114.147 41.6188C113.172 41.5741 112.19 41.5765 111.214 41.6181C110.576 41.6453 110.395 41.39 110.411 40.7853C110.444 39.4732 110.403 38.1593 110.428 36.8468C110.439 36.2686 110.22 36.0533 109.641 36.061C107.937 36.0837 106.233 36.0838 104.528 36.0611C103.955 36.0537 103.726 36.2586 103.738 36.8423C103.764 38.1266 103.714 39.4132 103.757 40.6968C103.779 41.3698 103.592 41.6631 102.87 41.62C101.977 41.5707 101.082 41.5702 100.189 41.6183C99.5346 41.6509 99.3085 41.4284 99.3187 40.7607C99.352 38.4425 99.3317 36.1235 99.3317 33.8049Z" fill="#25C04F"/>
<path d="M91.6116 41.6067C89.8516 41.6065 88.0879 41.5366 86.3316 41.6249C85.849 41.6389 85.3684 41.5558 84.9184 41.3807C84.4684 41.2055 84.0581 40.9419 83.7118 40.6053C83.3656 40.2688 83.0903 39.8662 82.9024 39.4213C82.7145 38.9765 82.6178 38.4985 82.618 38.0156C82.5763 35.2506 82.5766 32.4852 82.6189 29.7193C82.6155 29.2125 82.7166 28.7105 82.9157 28.2445C83.1149 27.7786 83.4079 27.3586 83.7765 27.0109C84.1451 26.6631 84.5814 26.395 85.0581 26.2233C85.5349 26.0515 86.0419 25.9798 86.5476 26.0126C90.1797 25.9814 93.8128 26.0133 97.4449 25.9945C98.026 25.9914 98.2428 26.185 98.2206 26.7696C98.1863 27.6901 98.1706 28.6153 98.2252 29.5339C98.2697 30.2842 98.0473 30.5519 97.2512 30.5404C94.1779 30.496 91.1037 30.539 88.0305 30.5096C87.3585 30.5031 87.0879 30.6699 87.1102 31.3919C87.1584 33.0107 87.1537 34.6327 87.1111 36.2518C87.0935 36.9361 87.3557 37.1021 87.9915 37.0969C91.0092 37.072 94.0268 37.0855 97.0445 37.0862C98.2113 37.0865 98.2113 37.0875 98.2123 38.2913C98.2123 39.1572 98.19 40.0238 98.2188 40.8889C98.2373 41.4384 98.0158 41.6203 97.4801 41.6147C95.5236 41.5945 93.5681 41.6068 91.6116 41.6067Z" fill="#25C04F"/>
<path d="M41.5394 14.3752C41.3382 14.8823 41.0444 14.7483 40.8229 14.7529C40.012 14.7697 39.201 14.7651 38.3901 14.7572C38.0166 14.7535 37.6505 14.7018 37.6718 15.2728C37.6848 15.5999 37.3966 15.5572 37.1778 15.5575C35.6681 15.559 34.158 15.5584 32.6477 15.5557C32.4642 15.5551 32.1527 15.6146 32.1574 15.3775C32.175 14.5048 31.5513 14.7792 31.1147 14.7664C30.3047 14.7428 29.4928 14.7765 28.6828 14.7529C28.2648 14.7407 28.0841 14.8534 28.0859 15.31C28.0999 19.3077 28.0992 23.3054 28.0841 27.3031C28.0822 27.7702 28.2667 27.8538 28.6745 27.8462C29.8487 27.8245 31.0248 27.8101 32.1982 27.8472C32.77 27.8653 33.1185 27.7862 33.0091 27.0981C32.9424 26.683 33.0721 26.522 33.5133 26.7695C34.0916 27.0943 34.7024 27.3634 35.277 27.6459C35.4781 27.5311 35.391 27.3757 35.4234 27.254C35.4744 27.0582 35.2964 26.7013 35.5754 26.6906C35.9786 26.6749 35.796 27.0802 35.7821 27.2719C35.7441 27.8036 36.0193 27.8475 36.442 27.8426C37.8674 27.8259 39.2937 27.8303 40.7201 27.8464C40.9703 27.8492 41.2808 27.7072 41.4736 28.0276C41.2984 28.3722 40.9823 28.2386 40.7321 28.2418C39.3901 28.2587 38.0472 28.2811 36.7061 28.2451C36.0759 28.2283 35.6588 28.3067 35.7895 29.0794C35.8145 29.2249 35.8266 29.4303 35.5133 29.4568C35.3242 29.1821 35.4985 28.8241 35.3604 28.4795C34.5569 28.6751 33.8979 29.2171 33.1342 29.4703C33.0677 29.4114 33.0202 29.334 32.9979 29.248C32.9756 29.162 32.9795 29.0713 33.0091 28.9875C33.0888 28.3857 32.8237 28.2285 32.251 28.247C31.1055 28.2841 29.9581 28.271 28.8126 28.2401C28.2954 28.2262 28.0767 28.3511 28.0813 28.9301C28.1063 32.3965 28.0962 35.8631 28.0897 39.3297C28.0726 39.4923 28.0978 39.6565 28.1629 39.8065C28.228 39.9564 28.3308 40.087 28.4613 40.1855C28.567 40.2579 28.6543 40.3541 28.7162 40.4663C28.7782 40.5785 28.8131 40.7037 28.8181 40.8317C28.8232 40.9599 28.7981 41.0874 28.7448 41.204C28.6915 41.3207 28.6115 41.4232 28.5113 41.5032C28.3829 41.6247 28.2207 41.7045 28.046 41.732C27.8714 41.7595 27.6925 41.7335 27.5329 41.6572C27.3734 41.581 27.2406 41.4583 27.1522 41.3051C27.0638 41.152 27.0239 40.9757 27.0377 40.7994C27.0476 40.6823 27.0807 40.5683 27.1351 40.4641C27.1891 40.3599 27.2638 40.2678 27.3547 40.1934C27.4858 40.0958 27.5877 39.9643 27.6494 39.813C27.7113 39.6617 27.7312 39.4965 27.7069 39.3349C27.7041 35.8683 27.693 32.4016 27.7171 28.9352C27.7208 28.3827 27.5632 28.2335 27.0164 28.2367C23.1572 28.2591 19.2981 28.2592 15.4389 28.237C14.868 28.2337 14.6678 28.3735 14.6724 28.9778C14.6993 32.4441 14.6882 35.9109 14.6808 39.3774C14.6617 39.5538 14.6888 39.7322 14.7595 39.895C14.8301 40.0577 14.942 40.1993 15.0839 40.3058C15.1828 40.3755 15.2643 40.467 15.3221 40.5732C15.38 40.6794 15.4126 40.7975 15.4176 40.9184C15.4222 41.0392 15.3991 41.1595 15.3499 41.27C15.3008 41.3805 15.2269 41.4783 15.134 41.5557C15.0594 41.6507 14.9644 41.7278 14.8561 41.7812C14.7477 41.8346 14.6287 41.863 14.5079 41.8644C14.3871 41.8657 14.2676 41.8399 14.1581 41.7888C14.0486 41.7378 13.952 41.6628 13.8754 41.5694C13.7323 41.4551 13.6339 41.2943 13.5972 41.1149C13.5604 40.9356 13.5877 40.749 13.6743 40.5877C13.7311 40.4805 13.8124 40.3882 13.9115 40.3183C14.0516 40.2105 14.1609 40.0679 14.2285 39.9045C14.2959 39.741 14.3186 39.5625 14.2943 39.3874C14.2878 35.9209 14.2776 32.4542 14.3035 28.9878C14.3073 28.42 14.1812 28.2285 13.576 28.2341C10.0811 28.2665 6.58526 28.2755 3.09021 28.2393C2.36824 28.2319 2.06304 28.391 2.17658 29.1489C2.21327 29.3937 2.34071 29.7584 2.01383 29.9041C1.67897 30.0534 1.5205 29.6985 1.35895 29.5071C1.05375 29.1454 0.487115 28.9469 0.553937 28.1869L1.74154 29.2794V26.9572C1.19704 27.0363 1.05163 27.6483 0.5 27.8396C0.594457 27.4874 0.762534 27.1591 0.993139 26.8765C1.22374 26.5939 1.51163 26.3635 1.83783 26.2003C2.14645 25.9758 2.17277 26.4021 2.19048 26.6453C2.27703 27.8348 2.27741 27.8373 3.45119 27.838C6.83475 27.8396 10.2182 27.8275 13.6019 27.8509C14.1358 27.8546 14.3258 27.7316 14.3045 27.1668C14.259 25.9944 14.247 24.8167 14.3072 23.6457C14.3425 22.9614 14.171 22.6523 13.4546 22.7864C13.3304 22.7917 13.2059 22.7825 13.0839 22.7588C13.2516 21.9148 13.8522 21.274 14.069 20.4779C13.9921 20.4465 13.9412 20.4263 13.8902 20.4047C13.6381 20.2974 13.145 20.5919 13.1469 20.1485C13.1487 19.7961 13.6075 19.97 13.8494 19.9774C14.2535 19.9899 14.298 19.7991 14.2952 19.4702C14.2831 18.0724 14.2785 16.6744 14.298 15.2769C14.3035 14.8773 14.1775 14.7433 13.7734 14.7519C12.6835 14.7752 11.5917 14.7835 10.5027 14.7467C10.1311 14.734 9.96612 14.9947 9.7094 15.136C9.587 15.2083 9.44184 15.2318 9.30288 15.2019C9.16391 15.1719 9.04134 15.0907 8.95961 14.9744C8.86075 14.8719 8.80163 14.7375 8.7928 14.5954C8.78396 14.4532 8.82601 14.3126 8.91142 14.1986C9.08658 13.936 9.43785 13.7669 9.62784 13.9502C10.348 14.6446 11.2108 14.3351 12.0106 14.3587C12.7493 14.3804 13.7419 14.6987 14.1636 14.2134C14.5306 13.7919 14.2869 12.8283 14.2878 12.1043C14.2943 8.91732 14.2887 5.73035 14.2933 2.5433C14.3215 2.35492 14.2994 2.16245 14.2295 1.9853C14.1595 1.80815 14.0441 1.65258 13.8948 1.53427C13.7976 1.46175 13.7185 1.36758 13.664 1.25922C13.6095 1.15085 13.5809 1.03128 13.5806 0.909962C13.5797 0.788575 13.6076 0.668703 13.6622 0.560272C13.7908 0.365463 13.9599 0.200693 14.158 0.0772117C14.2607 0.0281924 14.3727 0.00188951 14.4864 9.81e-05C14.6001 -0.00169331 14.7129 0.021069 14.817 0.0668314C14.9209 0.112862 15.0138 0.180583 15.0895 0.265451C15.1893 0.3343 15.2716 0.425697 15.3295 0.532243C15.3875 0.638788 15.4195 0.757488 15.4231 0.878729C15.4271 1.00003 15.4023 1.12055 15.3507 1.23043C15.2992 1.34031 15.2224 1.43643 15.1265 1.51091C14.9558 1.6476 14.8246 1.82739 14.7466 2.03172C14.6685 2.23606 14.6464 2.45752 14.6826 2.67324C14.6872 6.30749 14.6965 9.94191 14.6733 13.576C14.6696 14.1715 14.7966 14.3966 15.4537 14.391C19.3129 14.3587 23.1718 14.3579 27.0303 14.3886C27.5966 14.3924 27.7189 14.214 27.7162 13.6836C27.6948 9.99345 27.6828 6.30304 27.7226 2.61327C27.731 1.84577 27.1415 1.59553 26.7903 1.12814C26.6763 0.976138 26.3241 0.846009 26.6096 0.60587C26.8153 0.43237 26.9284 0.730065 27.0702 0.836649C27.1612 0.902531 27.2412 0.982317 27.3074 1.07308C27.7022 1.64169 28.0924 1.68302 28.5012 1.08458C28.5818 0.970123 28.6818 0.870684 28.7968 0.790772C28.9312 0.695865 29.0331 0.385843 29.2519 0.639978C29.4539 0.873536 29.1685 1.00885 29.0489 1.08949C28.6746 1.37525 28.3861 1.75837 28.2148 2.19701C28.0435 2.63564 27.996 3.11292 28.0776 3.5767C28.1202 6.90297 28.111 10.2303 28.0785 13.5567C28.072 14.2235 28.2667 14.4396 28.9275 14.3881C29.6504 14.3317 30.3816 14.3947 31.1073 14.3679C31.5429 14.3519 32.1778 14.6364 32.1462 13.7504C32.1379 13.5034 32.4475 13.5624 32.631 13.5619C34.1416 13.5574 35.6517 13.5577 37.1611 13.5627C37.3409 13.5635 37.6514 13.4878 37.6486 13.7375C37.6403 14.5869 38.2381 14.3652 38.6959 14.3715C39.6209 14.3842 40.5458 14.3752 41.5394 14.3752ZM16.0061 22.763C15.8366 22.7858 15.6654 22.7936 15.4945 22.7862C14.83 22.6751 14.6409 22.948 14.6696 23.6033C14.7225 24.8026 14.6984 26.0062 14.678 27.2075C14.6706 27.6381 14.7354 27.8534 15.2554 27.8506C19.2248 27.8294 23.1943 27.8288 27.1638 27.849C27.6253 27.851 27.7143 27.6879 27.7124 27.2687C27.6995 23.3005 27.7001 19.3323 27.7143 15.3641C27.7162 14.8927 27.5883 14.7472 27.1063 14.7494C23.1647 14.7676 19.2233 14.7677 15.2822 14.7498C14.7846 14.7475 14.6706 14.9333 14.677 15.3859C14.6993 16.7269 14.7021 18.0688 14.6761 19.4097C14.6668 19.8616 14.8253 19.9931 15.2544 19.977C15.4583 19.9693 15.8624 19.8004 15.8448 20.1862C15.8291 20.5242 15.4379 20.3432 15.2137 20.3952C15.1349 20.4133 15.058 20.4364 14.8893 20.4815L16.0061 22.763ZM34.9165 15.1421C35.5309 15.1421 36.1482 15.1128 36.7599 15.1515C37.2483 15.1823 37.2928 14.9429 37.2928 14.5505C37.2928 14.1536 37.2353 13.9333 36.7524 13.945C35.5235 13.9751 34.294 13.9752 33.0638 13.9453C32.5754 13.9335 32.5318 14.1688 32.5253 14.5585C32.5179 14.9664 32.6004 15.1788 33.0721 15.151C33.6847 15.1149 34.3011 15.1421 34.9165 15.1421ZM27.9043 41.3523C28.0251 41.3491 28.1404 41.3011 28.2279 41.2177C28.3154 41.1343 28.3688 41.0215 28.3779 40.901C28.3903 40.8399 28.3887 40.7768 28.3733 40.7164C28.3583 40.656 28.3301 40.5996 28.2907 40.5514C28.2512 40.5032 28.2016 40.4644 28.1453 40.4378C28.0891 40.4111 28.0277 40.3971 27.9655 40.397C27.8638 40.3729 27.7569 40.3857 27.6637 40.433C27.5705 40.4803 27.4972 40.5591 27.4567 40.6554C27.4299 40.7194 27.4185 40.7887 27.4233 40.8578C27.4187 41.1364 27.6114 41.2959 27.9043 41.3523ZM14.9727 40.9593C14.978 40.8945 14.9692 40.8294 14.9467 40.7683C14.9243 40.7073 14.8889 40.6519 14.843 40.6059C14.7971 40.5599 14.7417 40.5244 14.6808 40.5018C14.6198 40.4792 14.5546 40.4701 14.4898 40.4753C14.4262 40.4703 14.3622 40.4796 14.3026 40.5025C14.243 40.5257 14.1892 40.5616 14.1451 40.6079C14.1012 40.6543 14.0682 40.71 14.0487 40.7708C14.0291 40.8316 14.0234 40.896 14.032 40.9593C14.0335 41.083 14.0838 41.2011 14.1718 41.2881C14.2598 41.375 14.3786 41.4238 14.5023 41.4238C14.626 41.4238 14.7448 41.3751 14.8328 41.2881C14.9209 41.2012 14.9711 41.0831 14.9727 40.9593ZM14.9727 0.957416C14.9588 0.62719 14.7985 0.469444 14.5047 0.45999C14.438 0.461418 14.3724 0.47725 14.3124 0.506405C14.2524 0.53556 14.1994 0.577348 14.157 0.628901C14.1147 0.680453 14.084 0.74055 14.067 0.805077C14.0501 0.869603 14.0473 0.93703 14.0589 1.00273C14.0753 1.09051 14.1164 1.17177 14.1775 1.23694C14.2387 1.30184 14.3174 1.34759 14.4041 1.36865C14.4908 1.38971 14.5818 1.38517 14.6659 1.35559C14.7501 1.326 14.8239 1.27264 14.8783 1.20197C14.9328 1.13129 14.9656 1.04635 14.9727 0.957416Z" fill="white"/>
<path d="M77.0592 33.8702C77.0592 31.5218 77.0758 29.1733 77.048 26.8253C77.0415 26.22 77.2037 25.9641 77.8488 25.993C78.8534 26.0378 79.8627 26.0271 80.8683 25.9967C81.4253 25.9799 81.5875 26.2014 81.5866 26.7365C81.5717 31.4332 81.5717 36.1299 81.5866 40.8266C81.5893 41.388 81.4401 41.6417 80.8331 41.6186C79.8275 41.5804 78.8192 41.5819 77.8136 41.6182C77.2149 41.6398 77.0443 41.401 77.0499 40.8314C77.0721 38.5112 77.0592 36.1907 77.0592 33.8702Z" fill="#25C04F"/>
<path d="M8.09011 38.5883C7.05757 38.5883 6.02335 38.554 4.99285 38.6014C4.39765 38.6288 4.23584 38.4312 4.24547 37.852C4.25326 37.3755 4.61397 36.6489 3.5501 36.6468C3.18458 36.6461 3.38495 36.0253 3.3755 35.6935C3.36214 35.2276 3.12071 34.5806 4.04965 34.6615C4.34334 34.6871 4.25845 34.3234 4.26096 34.121C4.27134 33.2562 4.26597 32.3912 4.26523 31.5262C4.26495 31.1906 4.20406 30.8527 4.7442 30.8622C5.16858 30.8696 5.46506 30.908 5.38471 31.4352C5.33512 31.7608 5.48526 31.8722 5.80927 31.8698C7.31633 31.8586 8.82321 31.8552 10.3302 31.8722C10.7 31.8763 10.8427 31.7455 10.7964 31.3904C10.7306 30.8957 11.0299 30.8753 11.4099 30.8647C11.8464 30.8526 11.9132 31.0661 11.9076 31.4288C11.8919 32.3214 11.8946 33.2146 11.9085 34.1072C11.9113 34.3265 11.7834 34.6769 12.1847 34.6809C13.3655 34.6926 12.6249 35.5686 12.7797 36.0254C12.9215 36.4434 12.7834 36.7634 12.1995 36.7206C11.725 36.6859 11.9187 37.1145 11.9104 37.3441C11.8668 38.5878 11.8761 38.5882 10.6017 38.5882L8.09011 38.5883ZM8.14109 36.5459C8.86492 36.5459 9.59153 36.507 10.3126 36.5569C11.029 36.6064 10.8946 36.1301 10.8714 35.7407C10.8492 35.3582 11.1189 34.8053 10.3209 34.8238C8.84545 34.858 7.36964 34.8582 5.8935 34.8245C5.13307 34.8084 5.395 35.3427 5.39971 35.6855C5.40435 36.024 5.11761 36.5846 5.88536 36.5527C6.63597 36.5215 7.38898 36.5459 8.14109 36.5459Z" fill="white"/>
<path d="M120.956 36.0681C119.533 36.0681 118.111 36.0525 116.688 36.0763C116.154 36.0852 115.934 35.9059 115.948 35.3548C115.977 34.3238 115.972 33.291 115.95 32.2596C115.94 31.7766 116.087 31.5439 116.611 31.5463C119.512 31.5596 122.413 31.5603 125.315 31.5482C125.806 31.5467 126.028 31.7339 126.021 32.2381C126.005 33.2976 126.001 34.3578 126.024 35.4171C126.035 35.9449 125.787 36.0807 125.308 36.0746C123.858 36.0566 122.406 36.0681 120.956 36.0681Z" fill="#25C04F"/>
<path d="M34.4417 38.7574C33.7429 38.7574 33.0413 38.7195 32.3462 38.7696C31.8049 38.8086 31.6854 38.6066 31.7058 38.1074C31.7262 37.6231 31.9838 36.9055 31.0125 37.0255C30.8995 36.2873 30.424 36.1192 29.7502 35.9299C29.4731 35.8521 29.6223 34.8426 29.6909 34.2686C29.7391 33.865 30.146 34.0888 30.3916 34.055C31.0737 33.9609 31.7141 32.9269 31.7076 31.7879C31.7049 31.3064 31.7836 31.1169 32.3351 31.0988C32.9912 31.0772 33.1896 31.3006 33.0886 31.9042C33.0098 32.3756 33.209 32.5649 33.6873 32.5149C33.9936 32.4839 34.3022 32.4836 34.6085 32.5139C35.3768 32.5888 35.9839 32.5503 35.8096 31.4834C35.7253 30.9666 36.2137 31.123 36.4686 31.1394C36.7438 31.1572 37.2341 30.905 37.2313 31.4693C37.25 31.9632 37.3183 32.4539 37.4352 32.9341C37.5038 33.2858 38.2953 34.064 38.6512 34.0401C39.1183 34.0087 39.3231 34.1548 39.2694 34.643C39.2515 34.9498 39.2493 35.2573 39.2629 35.5644C39.2644 35.6715 39.2604 35.7787 39.2508 35.8854C38.4584 35.9046 38.2193 36.6913 37.6883 36.9863C37.3046 37.1991 37.2508 37.3408 37.2452 37.6736C37.2267 38.7574 37.223 38.7574 36.1192 38.7575C35.5594 38.7575 35.0002 38.7574 34.4417 38.7574ZM34.4889 37.9214C34.9616 37.9214 35.4343 37.9081 35.906 37.9254C36.299 37.94 36.2526 37.6842 36.2656 37.431C36.2814 37.1463 36.1757 37.0378 35.8856 37.0414C34.9412 37.053 33.9968 37.0529 33.0524 37.0411C32.7197 37.0365 32.6289 37.181 32.6279 37.4912C32.627 37.8179 32.7568 37.9351 33.0728 37.9259C33.5445 37.9122 34.0172 37.9223 34.4889 37.9214ZM33.5686 34.2842C33.5686 34.081 33.5705 33.9419 33.5686 33.8028C33.5649 33.5049 33.6437 33.2014 33.1405 33.1924C32.6159 33.1829 32.6307 33.4751 32.64 33.8287C32.6567 34.1344 32.6557 34.4408 32.6372 34.7465C32.5955 35.2075 32.8671 35.2492 33.2081 35.2077C33.9662 35.115 33.3499 34.5138 33.5686 34.2842ZM36.2888 34.3055C36.2888 34.1032 36.2962 33.9636 36.2869 33.8252C36.2675 33.5467 36.4028 33.2105 35.8828 33.1942C35.3231 33.1768 35.4213 33.5271 35.4194 33.8491C35.4167 34.1828 35.4315 34.5171 35.4157 34.85C35.4018 35.1575 35.5603 35.2107 35.8235 35.2139C36.6984 35.225 36.0886 34.5431 36.2888 34.3055Z" fill="white"/>
<path d="M34.4176 25.1898C33.1887 25.1897 31.9597 25.1796 30.7317 25.1957C30.3582 25.2005 30.146 25.1209 30.1905 24.6924C30.2192 24.4196 30.2479 24.1484 29.8198 24.1024C29.5695 24.0754 29.6659 23.7831 29.6622 23.6056C29.6511 22.9358 29.6576 22.2656 29.6585 21.5956C29.6585 21.4841 29.6251 21.3053 29.6789 21.2713C30.5918 20.6945 30.1034 19.7945 30.1738 19.0423C30.2183 18.5668 30.3508 18.4202 30.8151 18.4375C31.652 18.4685 32.4963 18.3858 33.3268 18.4634C34.1321 18.5387 34.2026 18.1364 34.0849 17.5408C34.0293 17.2576 33.7642 16.9745 34.146 16.7308C34.2125 16.6785 34.2954 16.6512 34.3799 16.6539C34.4645 16.6566 34.5455 16.689 34.6085 16.7455C34.8893 16.9847 34.7068 17.2316 34.6428 17.5001C34.4482 18.3218 34.5622 18.4439 35.4352 18.4458C36.2174 18.4475 37.0034 18.4923 37.78 18.432C38.4399 18.381 38.6225 18.6402 38.5557 19.2419C38.5289 19.576 38.5279 19.9118 38.553 20.2461C38.5678 20.5803 38.4121 20.9877 38.9608 21.0984C39.2138 21.1494 39.1053 21.426 39.11 21.6033C39.1348 22.1053 39.1333 22.6083 39.1053 23.1101C39.0748 23.5116 39.3806 24.0901 38.6373 24.2006C38.6067 24.2052 38.5622 24.2903 38.5678 24.332C38.7263 25.5204 37.8495 25.1651 37.2656 25.1825C36.3175 25.2107 35.3666 25.19 34.4176 25.1898ZM34.2934 23.9764C35.1878 23.9764 36.083 23.9587 36.9774 23.984C37.4093 23.9961 37.5808 23.8524 37.5678 23.4119C37.5446 22.6301 37.5428 21.8465 37.5678 21.0648C37.5835 20.6026 37.3676 20.4994 36.9589 20.5024C35.2258 20.5148 33.4927 20.5184 31.7595 20.5003C31.3175 20.4958 31.1729 20.6547 31.1877 21.0869C31.2137 21.8686 31.2192 22.6528 31.1858 23.4338C31.1664 23.8994 31.3619 23.9966 31.7781 23.9839C32.6159 23.9582 33.4546 23.9764 34.2934 23.9764Z" fill="white"/>
<path d="M21.1533 38.3501C20.0912 38.35 19.0281 38.3457 17.966 38.3515C17.2895 38.3552 16.8122 38.1432 16.8057 37.3635C16.8038 37.2372 16.8455 37.0874 16.6908 37.0057C15.6481 36.4537 15.3386 35.8393 15.7037 34.8911C15.9298 34.3582 16.0856 33.7982 16.1671 33.2251C16.2542 32.4626 16.9188 32.0507 17.8372 32.0261C18.2728 32.0145 18.8576 32.2524 18.7965 31.4045C18.7798 31.1646 19.0847 31.0987 19.3238 31.1242C19.5852 31.152 19.789 31.3479 19.7399 31.5634C19.6046 32.1611 20.0022 32.0255 20.3044 32.0262C21.7029 32.0299 23.1014 32.0221 24.499 32.03C25.6279 32.0364 26.1571 32.4894 26.2637 33.5946C26.3397 34.0285 26.4786 34.449 26.6761 34.8428C26.9523 35.5345 26.8281 36.5814 26.4574 36.7027C25.6232 36.9756 25.6334 37.6946 25.2173 38.1572C25.0041 38.3949 24.652 38.3527 24.3415 38.3517C23.2794 38.3481 22.2163 38.3502 21.1533 38.3501ZM21.2228 37.5947C22.2293 37.5947 23.2358 37.581 24.2414 37.6009C24.6937 37.6099 24.9068 37.477 24.8892 36.9842C24.8596 36.1468 24.8633 35.3071 24.8883 34.4693C24.9013 33.9995 24.727 33.8284 24.2544 33.8322C22.2145 33.8485 20.174 33.8489 18.1329 33.8334C17.6834 33.8306 17.4563 33.9686 17.4684 34.4549C17.4887 35.2928 17.4884 36.1311 17.4674 36.9699C17.4554 37.4492 17.6602 37.6084 18.1199 37.5999C19.1542 37.581 20.1885 37.594 21.2228 37.5947ZM25.6548 33.7856C25.5732 32.8195 25.2905 32.5368 24.4527 32.5283C23.0041 32.5135 21.5555 32.5154 20.1069 32.5338C19.8817 32.5369 19.4777 32.331 19.4637 32.798C19.4508 33.2595 19.8502 33.1036 20.0884 33.1061C21.4536 33.1205 22.8187 33.1213 24.1839 33.1083C24.4691 33.0534 24.7643 33.0892 25.0281 33.2107C25.2919 33.3321 25.5111 33.5332 25.6548 33.7856ZM16.6936 33.5069C17.2477 33.1401 17.921 32.9988 18.5759 33.1119C18.7649 33.1105 18.9864 33.1477 19.0226 32.8697C19.0422 32.8041 19.0373 32.7335 19.0087 32.6713C18.9798 32.609 18.929 32.5596 18.866 32.5325C18.4473 32.4011 17.9951 32.4277 17.5948 32.6073C17.1944 32.7868 16.8738 33.1069 16.6936 33.5069Z" fill="white"/>
<path d="M15.6218 8.84375C15.6218 8.39711 15.6394 7.94964 15.6171 7.50412C15.5903 6.96712 15.7858 6.64366 16.3558 6.61094C16.5662 6.5988 16.8934 6.64496 16.7747 6.29453C16.5541 5.6464 16.9888 5.76596 17.3336 5.76411C17.7516 5.76198 18.4365 5.61489 18.5449 5.7997C19.0973 6.74728 19.9434 6.30426 20.6608 6.36042C21.4652 6.42326 22.279 6.37655 23.0881 6.37284C23.2262 6.37219 23.4783 6.37154 23.4857 6.3316C23.7062 5.26279 24.5385 5.9187 25.0723 5.77801C25.4449 5.67986 25.8064 5.72944 25.6507 6.32789C25.558 6.68361 25.9139 6.5912 26.1011 6.60909C26.5914 6.65598 26.7665 6.93023 26.761 7.39652C26.7489 8.37329 26.7452 9.35062 26.7619 10.3272C26.7721 10.9055 26.4996 11.1204 25.9454 11.1189C22.7896 11.1104 19.6345 11.1103 16.48 11.1185C15.8868 11.12 15.5986 10.8739 15.619 10.2671C15.6348 9.79318 15.6218 9.31828 15.6218 8.84375ZM21.1789 10.7078C22.6052 10.7078 24.0316 10.6928 25.457 10.7149C26.0585 10.7243 26.3421 10.4936 26.33 9.88308C26.3152 9.18444 26.3235 8.48534 26.3263 7.78643C26.3291 7.26861 26.0909 7.02699 25.558 7.02847C22.6497 7.037 19.7414 7.03768 16.8331 7.03051C16.2965 7.02959 16.0889 7.2852 16.1065 7.81071C16.1297 8.4809 16.1399 9.15405 16.1037 9.82293C16.0685 10.4769 16.3345 10.7279 16.9842 10.7159C18.3818 10.69 19.7803 10.708 21.1789 10.7078Z" fill="white"/>
<path d="M9.26625 13.0934C9.03918 13.5737 8.58414 13.661 8.21713 13.8806C7.73519 14.168 7.12693 14.2559 6.91107 14.928C6.88014 15 6.83284 15.0638 6.77292 15.1142C6.713 15.1647 6.64213 15.2005 6.56594 15.2187C6.48975 15.237 6.41036 15.2372 6.33407 15.2194C6.25779 15.2015 6.18673 15.1661 6.12654 15.116C4.94245 14.3759 3.64087 14.9085 2.40044 14.7781C1.9591 14.7318 2.12175 15.153 2.07216 15.3987C1.99413 15.7844 2.23334 16.5258 1.89848 16.4902C1.43629 16.441 1.71442 15.7559 1.69302 15.3532C1.65039 14.5468 1.67781 13.7366 1.68375 12.9279C1.68485 12.776 1.63843 12.5553 1.89848 12.5748C2.08032 12.5884 2.05716 12.764 2.07216 12.898C2.12397 13.3604 1.85752 13.9754 2.20886 14.2537C2.63334 14.5898 3.28739 14.3999 3.82929 14.3575C4.58132 14.326 5.33086 14.2505 6.07407 14.1314C7.20266 13.9113 8.16615 13.3343 9.26625 13.0934Z" fill="white"/>
<path d="M11.8531 20.7573L11.4259 19.8971C12.2201 19.6449 12.4027 20.413 12.8513 20.6854C12.8615 20.7198 12.8634 20.7561 12.8568 20.7914C12.8508 20.8267 12.8369 20.8602 12.8161 20.8894C12.513 21.1233 12.411 20.7085 12.1849 20.6807C12.044 20.5647 11.9254 20.5677 11.842 20.7467C11.8698 20.9276 11.9376 21.1 12.0403 21.2514C12.1424 21.4031 12.2766 21.5305 12.4333 21.6246C12.5538 21.7133 12.6344 21.826 12.4954 21.9627C12.4768 21.9837 12.4537 22.0002 12.4277 22.0109C12.4018 22.0216 12.3737 22.0264 12.3457 22.0249C12.3176 22.0234 12.2902 22.0157 12.2655 22.0023C12.2411 21.9886 12.22 21.9698 12.2034 21.9472C11.9115 21.6224 11.2841 21.7226 11.1997 21.1234C11.1552 20.8043 11.3981 20.9551 11.5065 20.8866C11.6548 20.9334 11.8531 21.1118 11.8531 20.7573Z" fill="white"/>
<path d="M0.92334 15.9228V13.207L1.10201 13.2V15.9186L0.92334 15.9228Z" fill="white"/>
<path d="M11.8525 20.7557C11.8534 21.1102 11.6551 20.9317 11.5059 20.8851L11.8525 20.7557Z" fill="#333440"/>
<path d="M11.8423 20.7452C11.9266 20.5663 12.0452 20.5631 12.1861 20.6792L11.8423 20.7452Z" fill="#333440"/>
<path d="M36.6153 22.0549C36.6302 22.1821 36.6008 22.3105 36.5321 22.4185C36.4634 22.5266 36.3596 22.6077 36.2381 22.6482C36.1572 22.6748 36.0713 22.6825 35.9869 22.6708C35.8717 22.6829 35.7558 22.6569 35.6569 22.5968C35.5579 22.5366 35.4814 22.4456 35.4392 22.3378C35.4106 22.2664 35.3983 22.1895 35.403 22.1127C35.3971 22.0316 35.4071 21.9502 35.4327 21.873C35.4583 21.7959 35.4992 21.7248 35.5529 21.6638C35.6066 21.6028 35.672 21.5532 35.7452 21.518C35.8185 21.4828 35.898 21.4626 35.9792 21.4588C36.0603 21.4549 36.1414 21.4674 36.2177 21.4954C36.2941 21.5234 36.3641 21.5665 36.4234 21.6222C36.4827 21.6779 36.5302 21.7448 36.5634 21.8191C36.5958 21.8936 36.6135 21.9737 36.6153 22.0549Z" fill="white"/>
<path d="M33.4411 22.0163C33.4216 22.5085 33.1816 22.6868 32.7914 22.6686C32.7147 22.674 32.6377 22.6627 32.5659 22.6354C32.494 22.6081 32.4289 22.5654 32.3752 22.5104C32.3215 22.4554 32.2804 22.3893 32.2548 22.3168C32.2292 22.2443 32.2197 22.1671 32.227 22.0905C32.2212 21.9319 32.2776 21.7772 32.3843 21.6596C32.4909 21.542 32.6393 21.4707 32.7978 21.461C32.9563 21.4513 33.1123 21.504 33.2325 21.6077C33.3527 21.7115 33.4275 21.8581 33.4411 22.0163Z" fill="white"/>
<path d="M21.0809 36.9395C20.2996 36.9392 19.5183 36.9186 18.738 36.9465C18.2245 36.9649 18.0512 36.7521 18.0568 36.2569C18.0781 34.1066 17.8983 34.5471 19.6824 34.5169C20.9929 34.4948 22.3043 34.5326 23.6139 34.5033C24.1662 34.491 24.3469 34.6934 24.3349 35.2341C24.2895 37.2372 24.575 36.9081 22.6704 36.9383C22.1403 36.9468 21.611 36.9397 21.0809 36.9395ZM23.7927 35.7303C23.7343 35.375 23.5369 35.1055 23.1616 35.1015C22.9961 35.0993 22.8365 35.1626 22.7174 35.2774C22.5983 35.3923 22.5294 35.5496 22.5256 35.715C22.5218 35.8804 22.5835 36.0407 22.6972 36.1609C22.8109 36.2811 22.9675 36.3515 23.1328 36.3569C23.5156 36.3726 23.7084 36.0959 23.7927 35.7303ZM19.1949 35.079C18.8399 35.1853 18.5943 35.3802 18.6323 35.7877C18.6326 35.8652 18.6487 35.9419 18.6796 36.013C18.71 36.0843 18.7545 36.1487 18.8106 36.2022C18.8667 36.2558 18.9331 36.2973 19.0058 36.3242C19.0783 36.3515 19.1555 36.3638 19.2329 36.3604C19.3174 36.3639 19.4016 36.3491 19.4798 36.3169C19.558 36.2847 19.6283 36.2359 19.6859 36.174C19.7434 36.112 19.7868 36.0383 19.8131 35.9579C19.8394 35.8775 19.8479 35.7924 19.8381 35.7084C19.8307 35.297 19.5637 35.1366 19.1949 35.079Z" fill="white"/>
<path d="M21.2259 10.1289C20.136 10.1291 19.0461 10.143 17.9561 10.1248C17.0803 10.11 16.7263 9.7433 16.7142 8.90388C16.7003 8.03072 17.0859 7.58603 17.9561 7.57862C20.1351 7.55989 22.3146 7.56014 24.4947 7.57936C25.3103 7.58677 25.6931 8.03304 25.6949 8.8618C25.6968 9.71188 25.3418 10.1073 24.4947 10.1235C23.4057 10.1443 22.3158 10.1286 21.2259 10.1289ZM19.1869 8.82584C19.1871 8.69925 19.1606 8.57406 19.1092 8.45839C19.0578 8.34272 18.9826 8.23916 18.8885 8.15444C18.7945 8.06973 18.6836 8.00576 18.5632 7.96669C18.4428 7.92762 18.3156 7.91432 18.1897 7.92766C18.069 7.92526 17.949 7.94794 17.8375 7.99429C17.726 8.04063 17.6253 8.10963 17.5419 8.1969C17.4581 8.28398 17.3934 8.38756 17.3519 8.50103C17.3104 8.61451 17.2931 8.73539 17.3009 8.85596C17.2916 8.98349 17.3093 9.11156 17.3528 9.23179C17.397 9.35188 17.4665 9.46103 17.5568 9.55178C17.647 9.64254 17.7557 9.71276 17.8755 9.75766C17.9953 9.80259 18.1233 9.82115 18.2509 9.81207C18.4442 9.81779 18.6344 9.76195 18.794 9.65262C18.9535 9.54328 19.0743 9.38609 19.1387 9.20371C19.1815 9.08261 19.1979 8.95379 19.1869 8.82584ZM25.1259 8.85494C25.123 8.72645 25.0943 8.59984 25.0414 8.48269C24.9886 8.36554 24.9126 8.26024 24.8182 8.17309C24.7237 8.08594 24.6126 8.01873 24.4916 7.97546C24.3706 7.93219 24.2421 7.91376 24.1138 7.92126C23.9928 7.92071 23.873 7.94462 23.7615 7.99156C23.65 8.03849 23.5492 8.10749 23.465 8.1944C23.3811 8.2815 23.3155 8.38461 23.2722 8.49757C23.2289 8.61054 23.2087 8.73106 23.2129 8.85198C23.2055 8.97982 23.2251 9.1078 23.2704 9.22757C23.3158 9.34733 23.3859 9.45619 23.4761 9.54705C23.5664 9.6379 23.6747 9.70871 23.7942 9.75485C23.9137 9.801 24.0415 9.82144 24.1694 9.81485C24.2954 9.81511 24.4201 9.79044 24.5365 9.74225C24.6529 9.69406 24.7586 9.62331 24.8475 9.53407C24.9364 9.44484 25.0068 9.33889 25.0546 9.22233C25.1023 9.10577 25.1266 8.98091 25.1259 8.85494Z" fill="white"/>
</svg>
