<svg width="176" height="36" viewBox="0 0 176 36" fill="none" xmlns="http://www.w3.org/2000/svg">
<path d="M157.032 10.217C157.032 7.28627 157.044 4.35551 157.021 1.42497C157.017 0.933139 157.156 0.797759 157.647 0.799703C162.22 0.817821 166.794 0.812613 171.367 0.809347C172.097 0.804391 172.816 0.983194 173.459 1.3293C174.102 1.6754 174.648 2.17768 175.045 2.78989C175.212 3.01615 175.298 3.2917 175.29 3.57254C175.279 5.37781 175.247 7.18433 175.306 8.98774C175.326 9.60095 174.637 9.78525 174.67 10.2072C174.7 10.5984 175.311 10.7863 175.301 11.3694C175.262 13.9243 175.272 16.4804 175.296 19.0357C175.3 19.4926 175.143 19.5687 174.734 19.5679C169.035 19.5559 163.336 19.557 157.638 19.5711C157.134 19.5727 157.018 19.4198 157.021 18.9387C157.043 16.0315 157.032 13.1243 157.032 10.217ZM166.424 12.9016C165.253 12.9016 164.081 12.9267 162.91 12.8907C162.357 12.8736 162.461 13.2124 162.46 13.5259C162.459 13.8443 162.368 14.1742 162.915 14.1686C165.234 14.1454 167.554 14.1421 169.873 14.1707C170.462 14.178 170.346 13.8285 170.364 13.4884C170.385 13.1233 170.369 12.8736 169.867 12.8897C168.721 12.9267 167.572 12.9014 166.424 12.9016ZM166.351 7.46053C167.52 7.46053 168.69 7.43565 169.858 7.47251C170.343 7.48783 170.394 7.27072 170.365 6.88954C170.339 6.55207 170.465 6.20308 169.869 6.2114C167.555 6.2439 165.24 6.23846 162.925 6.21459C162.393 6.20915 162.453 6.51583 162.459 6.84576C162.464 7.16093 162.365 7.49094 162.914 7.47228C164.059 7.43324 165.206 7.46046 166.351 7.46053Z" fill="white"/>
<path d="M75.8311 11.9844C75.8311 14.3057 75.8171 16.6271 75.8427 18.948C75.8482 19.4419 75.7067 19.5819 75.216 19.5703C73.8327 19.5376 72.447 19.5238 71.0653 19.5752C70.4665 19.5975 70.3903 19.3681 70.3973 18.8584C70.4246 17.0767 70.3903 15.2943 70.4199 13.5128C70.4277 13.0239 70.3017 12.8823 69.8033 12.8885C67.5755 12.9163 65.3475 12.9163 63.1192 12.8884C62.6184 12.8821 62.4964 13.0276 62.5041 13.5141C62.5329 15.3191 62.501 17.125 62.5259 18.9301C62.5321 19.3908 62.459 19.5869 61.9311 19.5724C60.5011 19.5332 59.0696 19.5423 57.6396 19.5691C57.2057 19.5772 57.0844 19.4545 57.086 19.02C57.1007 14.4244 57.0727 9.82851 57.1046 5.23314C57.0885 4.64428 57.1934 4.05839 57.4128 3.5117C57.6322 2.96501 57.9615 2.46917 58.3802 2.05485C58.7989 1.64053 59.2983 1.31655 59.8472 1.10297C60.3962 0.889382 60.9832 0.790727 61.5718 0.813113C64.8314 0.79935 68.0913 0.799116 71.3514 0.812413C71.9454 0.793936 72.5369 0.897534 73.0892 1.11679C73.6415 1.33605 74.143 1.66631 74.5626 2.08715C74.9822 2.50798 75.311 3.01043 75.5287 3.56342C75.7463 4.11641 75.8482 4.70818 75.828 5.30211C75.842 7.52939 75.8303 9.75697 75.8311 11.9844ZM66.4122 7.45956C67.6043 7.45956 68.7971 7.43833 69.9891 7.46943C70.4976 7.48273 70.4183 7.1727 70.4043 6.88056C70.3903 6.58756 70.5529 6.21105 69.9813 6.21579C67.6439 6.23539 65.3065 6.23469 62.9691 6.21369C62.4233 6.20809 62.5166 6.53484 62.5158 6.85233C62.515 7.17107 62.4264 7.49331 62.9769 7.47262C64.1207 7.42962 65.2669 7.45979 66.4122 7.45956Z" fill="white"/>
<path d="M155.771 11.9484C155.771 14.2934 155.759 16.6384 155.781 18.9831C155.786 19.4388 155.666 19.5795 155.2 19.5697C153.77 19.5395 152.34 19.5393 150.908 19.569C150.47 19.5775 150.358 19.4479 150.364 19.0167C150.388 17.188 150.359 15.3585 150.384 13.5298C150.391 13.0623 150.304 12.8805 149.782 12.8875C147.53 12.9175 145.279 12.9177 143.027 12.8881C142.536 12.8819 142.459 13.0609 142.464 13.4908C142.484 15.3196 142.458 17.1489 142.482 18.9777C142.488 19.4291 142.376 19.5799 141.903 19.5698C140.45 19.539 138.995 19.5469 137.541 19.5664C137.152 19.5717 137.016 19.4712 137.017 19.0601C137.031 14.4172 137 9.77412 137.036 5.13147C137.038 4.56053 137.153 3.99561 137.374 3.4692C137.595 2.9428 137.918 2.4653 138.324 2.06421C138.73 1.66311 139.212 1.34632 139.741 1.13208C140.27 0.917843 140.837 0.810377 141.408 0.815872C144.762 0.7913 148.116 0.791688 151.47 0.817038C152.61 0.821167 153.702 1.27687 154.506 2.08431C155.31 2.89176 155.762 3.98511 155.762 5.12486C155.789 7.3991 155.767 9.67389 155.767 11.9484H155.771ZM146.365 7.4596C147.535 7.4596 148.705 7.43417 149.873 7.47165C150.362 7.48736 150.405 7.2645 150.379 6.88674C150.354 6.54755 150.475 6.20183 149.88 6.21023C147.565 6.24304 145.249 6.2376 142.933 6.21318C142.395 6.20751 142.467 6.52135 142.471 6.84662C142.475 7.16131 142.376 7.49101 142.927 7.47165C144.072 7.43152 145.219 7.4596 146.365 7.4596Z" fill="white"/>
<path d="M37.1289 10.1377C37.1289 7.22969 37.1414 4.32171 37.1173 1.41403C37.1134 0.914038 37.2565 0.786279 37.744 0.797787C39.1273 0.830757 40.5129 0.839622 41.8955 0.794521C42.4507 0.776325 42.5432 0.965982 42.5354 1.46691C42.5059 3.27211 42.5386 5.07831 42.5137 6.88366C42.5075 7.33638 42.6225 7.4758 43.0906 7.47067C45.3417 7.44594 47.5944 7.44198 49.8455 7.47269C50.3696 7.47992 50.4496 7.29486 50.4434 6.83195C50.4178 5.02652 50.4426 3.22055 50.4255 1.41496C50.4216 0.997239 50.4769 0.784721 50.9831 0.797007C52.4371 0.832154 53.892 0.82057 55.3461 0.801907C55.731 0.796931 55.8748 0.89063 55.874 1.30696C55.8616 7.21655 55.8621 13.1261 55.8756 19.0357C55.8772 19.4983 55.7076 19.5724 55.3033 19.5666C53.8726 19.546 52.441 19.5399 51.0103 19.5693C50.5484 19.5788 50.4154 19.4468 50.4224 18.9834C50.4481 17.1781 50.417 15.3719 50.4434 13.5666C50.4504 13.0802 50.3804 12.8749 49.8113 12.8847C47.5835 12.9227 45.3542 12.9163 43.1264 12.888C42.6249 12.8816 42.5043 13.0264 42.5121 13.5128C42.5409 15.318 42.509 17.1242 42.5339 18.9296C42.5401 19.3888 42.4701 19.5872 41.9406 19.5722C40.5339 19.5322 39.1265 19.532 37.7183 19.5716C37.1974 19.5857 37.1157 19.3962 37.1188 18.9317C37.139 16.0005 37.1289 13.069 37.1289 10.1377Z" fill="white"/>
<path d="M112.672 10.1861C113.623 10.7377 114.466 11.2434 115.327 11.7169C115.476 11.7765 115.602 11.8823 115.687 12.0187C115.771 12.1551 115.81 12.3151 115.798 12.4752C115.777 14.6558 115.777 16.8366 115.797 19.0174C115.801 19.4425 115.696 19.5789 115.254 19.5702C113.8 19.5416 112.345 19.5452 110.891 19.5686C110.48 19.5751 110.384 19.4355 110.388 19.0466C110.406 17.2176 110.378 15.3882 110.408 13.5597C110.416 13.0565 110.317 12.878 109.765 12.8868C107.561 12.922 105.355 12.9256 103.151 12.8851C102.559 12.8742 102.474 13.0848 102.482 13.5984C102.51 15.4036 102.48 17.2097 102.503 19.0149C102.508 19.4401 102.407 19.5792 101.962 19.5705C100.508 19.5417 99.0535 19.5443 97.6002 19.5691C97.1679 19.5765 97.0466 19.4482 97.0474 19.0169C97.0606 13.1311 97.0609 7.24526 97.0482 1.35941C97.0474 0.935307 97.1586 0.793162 97.5963 0.80086C99.0504 0.826366 100.505 0.826107 101.959 0.800083C102.4 0.791685 102.508 0.926053 102.503 1.35435C102.48 3.20659 102.504 5.05938 102.484 6.9117C102.48 7.32258 102.557 7.47756 103.015 7.47242C105.29 7.44668 107.565 7.44679 109.84 7.47273C110.331 7.47864 110.409 7.30182 110.405 6.87041C110.384 5.04157 110.412 3.21212 110.385 1.38344C110.378 0.918047 110.515 0.790751 110.973 0.80016C112.38 0.828698 113.788 0.824888 115.195 0.801949C115.627 0.794873 115.806 0.878854 115.799 1.36765C115.772 3.54812 115.781 5.72913 115.795 7.90982C115.809 8.05805 115.776 8.20703 115.7 8.33506C115.624 8.46309 115.509 8.56349 115.372 8.62164C114.49 9.10243 113.631 9.62606 112.672 10.1861Z" fill="white"/>
<path d="M88.2232 19.559C86.0646 19.559 83.9068 19.5639 81.7483 19.5577C81.1247 19.607 80.4979 19.5205 79.9111 19.3041C79.3243 19.0877 78.7913 18.7466 78.3491 18.3042C77.9068 17.8619 77.5658 17.3289 77.3494 16.7421C77.1331 16.1552 77.0466 15.5283 77.096 14.9048C77.0913 11.7387 77.0913 8.57254 77.096 5.40644C77.0567 4.79463 77.1479 4.18145 77.3635 3.60756C77.5792 3.03367 77.9144 2.51218 78.3468 2.07767C78.7793 1.64316 79.2993 1.30557 79.8721 1.08727C80.445 0.868967 81.0578 0.774952 81.6697 0.811457C86.1742 0.805625 90.678 0.816979 95.1825 0.799716C95.6747 0.79785 95.887 0.871799 95.8683 1.43844C95.8232 2.82069 95.8232 4.20412 95.8683 5.58871C95.8855 6.14921 95.6778 6.23622 95.1817 6.23396C91.1935 6.21585 87.2053 6.23746 83.2171 6.20916C82.6223 6.20496 82.4808 6.37098 82.4901 6.9478C82.5251 9.10486 82.5352 11.2636 82.4854 13.4201C82.4699 14.0778 82.6853 14.1756 83.2731 14.1718C87.2372 14.1466 91.2021 14.1697 95.167 14.146C95.7214 14.1427 95.8839 14.2911 95.8668 14.8473C95.8264 16.2064 95.8232 17.5685 95.8691 18.9272C95.8878 19.4861 95.6918 19.5758 95.1903 19.5704C92.8684 19.5448 90.5458 19.559 88.2232 19.559Z" fill="white"/>
<path d="M126.439 19.5587C123.531 19.5587 120.622 19.5443 117.714 19.5719C117.183 19.5769 117.05 19.4375 117.052 18.9109C117.071 13.0947 117.071 7.2784 117.052 1.46209C117.05 0.940865 117.175 0.779435 117.712 0.79592C119.048 0.836978 120.387 0.840557 121.723 0.7953C122.32 0.775005 122.509 0.904085 122.503 1.54949C122.468 5.51268 122.498 9.47641 122.472 13.4398C122.468 14.022 122.618 14.1768 123.206 14.1727C127.146 14.145 131.088 14.1762 135.029 14.1409C135.701 14.1349 135.844 14.3451 135.823 14.9656C135.777 16.2774 135.784 17.5925 135.82 18.9049C135.834 19.4199 135.709 19.5784 135.166 19.5728C132.258 19.543 129.349 19.5587 126.439 19.5587Z" fill="white"/>
<path d="M37.026 28.9082C37.026 26.9865 37.0439 25.0645 37.0152 23.1432C37.0074 22.5822 37.145 22.3616 37.7531 22.3672C40.7771 22.3949 43.8011 22.3693 46.8251 22.3837C47.2668 22.3564 47.7093 22.4236 48.123 22.5808C48.5367 22.738 48.9122 22.9816 49.2243 23.2953C49.5364 23.6091 49.7781 23.9857 49.9332 24.4003C50.0882 24.8148 50.1532 25.2576 50.1236 25.6992C50.1267 26.2382 50.1026 26.7784 50.1314 27.3159C50.1691 27.5469 50.145 27.7838 50.0614 28.0024C49.9778 28.221 49.8377 28.4136 49.6555 28.5604C49.5858 28.5959 49.5274 28.6501 49.4869 28.717C49.4463 28.7838 49.4252 28.8606 49.4258 28.9388C49.4264 29.017 49.4489 29.0935 49.4905 29.1596C49.5322 29.2258 49.5915 29.279 49.6617 29.3134C49.8409 29.4631 49.9783 29.6567 50.0606 29.8752C50.1429 30.0937 50.1672 30.3298 50.1314 30.5606C50.1112 31.9195 50.0972 33.2797 50.1368 34.6378C50.1547 35.2599 49.9969 35.4919 49.3235 35.4863C45.5024 35.4552 41.6817 35.4555 37.8612 35.4871C37.1582 35.4933 36.9981 35.259 37.0121 34.6025C37.0517 32.7052 37.026 30.8064 37.026 28.9082ZM43.5639 26.173C42.8151 26.173 42.0663 26.1822 41.3175 26.169C40.952 26.1625 40.8237 26.3196 40.8284 26.6744C40.8331 27.0185 41.0026 27.1193 41.3097 27.1186C42.8073 27.1153 44.305 27.1159 45.8026 27.1204C46.1346 27.1217 46.3298 27.032 46.329 26.647C46.329 26.2689 46.1509 26.1639 45.8104 26.1689C45.0615 26.18 44.3127 26.1723 43.5639 26.173ZM43.5803 31.7625C44.3042 31.7625 45.0281 31.7567 45.752 31.7651C46.0988 31.769 46.3383 31.709 46.3298 31.2728C46.3212 30.8728 46.0973 30.8224 45.7824 30.8232C44.3112 30.8273 42.8397 30.8272 41.368 30.823C41.0492 30.822 40.8339 30.8802 40.8261 31.2774C40.8183 31.7169 41.0648 31.7686 41.4077 31.7649C42.1316 31.7572 42.8555 31.7626 43.5803 31.7625Z" fill="#2B9453"/>
<path d="M128.391 35.4709C126.843 35.4699 125.294 35.4813 123.746 35.4669C123.358 35.4671 122.974 35.3904 122.616 35.2412C122.258 35.0919 121.933 34.8731 121.66 34.5974C121.387 34.3217 121.171 33.9946 121.025 33.6349C120.88 33.2753 120.807 32.8904 120.811 32.5024C120.798 30.2038 120.805 27.9051 120.808 25.6066C120.784 25.1877 120.846 24.7684 120.992 24.375C121.138 23.9816 121.363 23.6226 121.655 23.3208C121.946 23.019 122.297 22.7809 122.685 22.6214C123.073 22.462 123.49 22.3847 123.909 22.3945C127.053 22.3493 130.198 22.3867 133.341 22.3749C133.773 22.3732 133.918 22.5375 133.908 22.9568C133.887 23.7772 133.87 24.6 133.912 25.4188C133.942 25.9937 133.764 26.1907 133.167 26.184C130.563 26.1551 127.959 26.1686 125.355 26.1769C125.115 26.1777 124.821 26.0658 124.652 26.3511C124.441 26.7078 124.686 27.0289 125.196 27.0306C127.355 27.0384 129.513 27.018 131.672 27.0438C132.388 27.0523 133.305 26.7168 133.768 27.2076C134.194 27.6571 133.888 28.5527 133.896 29.2508C133.915 30.8246 133.902 30.8248 132.297 30.8248C129.998 30.8248 127.699 30.8183 125.399 30.8328C125.096 30.8347 124.627 30.6415 124.615 31.237C124.601 31.8275 125.059 31.6715 125.374 31.6727C127.955 31.6828 130.536 31.6962 133.117 31.6656C133.728 31.6584 133.957 31.8221 133.915 32.4546C133.865 33.2274 133.865 34.0024 133.913 34.7752C133.947 35.3557 133.708 35.49 133.177 35.4813C131.583 35.4552 129.987 35.4719 128.391 35.4709Z" fill="#2B9453"/>
<path d="M168.16 35.4703C166.542 35.4703 164.924 35.4571 163.305 35.4785C162.826 35.4848 162.626 35.3358 162.644 34.8376C162.673 34.0649 162.685 33.2886 162.641 32.5174C162.605 31.882 162.812 31.6552 163.473 31.6637C166.004 31.6967 168.538 31.677 171.07 31.6769C171.234 31.6769 171.398 31.6728 171.562 31.6752C171.83 31.6791 172.022 31.6031 172.025 31.2869C172.028 30.9566 171.856 30.8262 171.545 30.8264C170.489 30.8272 169.434 30.8243 168.379 30.8235C167.535 30.8229 166.69 30.8268 165.846 30.8224C165.458 30.8522 165.068 30.8042 164.699 30.6813C164.33 30.5584 163.99 30.363 163.697 30.1067C163.405 29.8503 163.167 29.5382 162.997 29.1885C162.826 28.8388 162.728 28.4587 162.707 28.0704C162.6 27.1148 162.595 26.1506 162.691 25.1939C162.752 24.4087 163.115 23.6777 163.704 23.1551C164.293 22.6324 165.062 22.3589 165.849 22.3922C168.803 22.3503 171.758 22.3878 174.713 22.3715C175.198 22.3688 175.308 22.5779 175.296 23.0085C175.275 23.8285 175.258 24.6512 175.301 25.4694C175.332 26.0425 175.111 26.1848 174.573 26.1799C172.087 26.1574 169.601 26.1673 167.115 26.1747C166.878 26.1754 166.553 26.0656 166.469 26.4248C166.357 26.8936 166.596 27.0417 167.047 27.0382C168.829 27.0244 170.612 27.0244 172.394 27.0382C172.744 27.0382 173.094 27.0763 173.436 27.1519C173.987 27.2165 174.491 27.4954 174.838 27.9284C175.185 28.3613 175.347 28.9134 175.29 29.4652V33.1225C175.314 33.4301 175.272 33.7393 175.167 34.0293C175.062 34.3194 174.896 34.5836 174.68 34.8045C174.465 35.0254 174.205 35.1979 173.918 35.3103C173.63 35.4228 173.322 35.4727 173.014 35.4567C171.396 35.4893 169.778 35.4643 168.16 35.4643V35.4703Z" fill="#2B9453"/>
<path d="M50.9813 28.8623C50.9813 26.9402 50.9984 25.0178 50.9712 23.0961C50.9634 22.5502 51.1205 22.364 51.685 22.3686C54.7098 22.393 57.7346 22.3702 60.7586 22.3838C61.2063 22.3519 61.6557 22.4174 62.0757 22.576C62.4956 22.7345 62.8762 22.9822 63.1911 23.3021C63.5061 23.6219 63.7479 24.0063 63.9 24.4286C64.052 24.851 64.1107 25.3013 64.0719 25.7485C64.0734 26.2407 64.0517 26.7341 64.0781 27.2249C64.1254 27.4782 64.1037 27.7396 64.0152 27.9815C63.9267 28.2235 63.7746 28.4371 63.575 28.6001C63.5112 28.6346 63.4582 28.686 63.4218 28.7487C63.3857 28.8115 63.3677 28.883 63.3697 28.9555C63.3718 29.0279 63.3938 29.0983 63.4335 29.159C63.4732 29.2195 63.5289 29.2679 63.5944 29.2987C63.783 29.4558 63.927 29.6597 64.012 29.8899C64.0971 30.1202 64.1201 30.3687 64.0789 30.6107C64.0602 32.0168 64.0563 33.4237 64.0804 34.8296C64.089 35.3186 63.9234 35.497 63.4327 35.4794C62.6131 35.4499 61.7905 35.4468 60.9709 35.4805C60.4554 35.5018 60.2594 35.3347 60.2749 34.8026C60.3068 33.7018 60.2617 32.5989 60.2936 31.4981C60.3092 30.9694 60.1171 30.8059 59.6016 30.8156C58.1957 30.8419 56.7883 30.8377 55.3816 30.8177C54.9244 30.8112 54.7619 30.9713 54.7712 31.4296C54.7946 32.5542 54.7557 33.6803 54.7883 34.8045C54.8039 35.3392 54.6064 35.5026 54.0932 35.4802C53.3202 35.4413 52.5458 35.4421 51.7729 35.4828C51.164 35.5192 50.9549 35.3313 50.9673 34.6985C51.0062 32.7538 50.9813 30.8077 50.9813 28.8623ZM57.5612 26.1721C56.8124 26.1721 56.0636 26.1774 55.3148 26.1695C54.9929 26.1662 54.7775 26.2302 54.7751 26.6257C54.7728 26.9934 54.9268 27.1229 55.2774 27.1211C56.7984 27.1139 58.3193 27.116 59.8403 27.1195C60.1785 27.1203 60.3706 26.9966 60.362 26.6276C60.3543 26.2483 60.1326 26.1664 59.8068 26.17C59.0588 26.1783 58.31 26.1726 57.5612 26.1721Z" fill="#2B9453"/>
<path d="M154.125 35.4713C152.531 35.4717 150.937 35.4586 149.343 35.4796C148.863 35.4859 148.685 35.3342 148.687 34.8373C148.703 30.9005 148.703 26.9637 148.687 23.0269C148.685 22.5461 148.829 22.3687 149.327 22.3715C152.421 22.3891 155.516 22.3588 158.609 22.3891C159.039 22.3704 159.468 22.4427 159.868 22.6012C160.268 22.7597 160.631 23.0009 160.931 23.3089C161.232 23.617 161.464 23.9851 161.613 24.389C161.761 24.793 161.823 25.2237 161.794 25.6532C161.799 27.9028 161.799 30.1524 161.792 32.402C161.815 32.8133 161.75 33.2247 161.602 33.609C161.454 33.9934 161.226 34.342 160.933 34.6319C160.641 34.9217 160.29 35.1462 159.904 35.2906C159.518 35.4349 159.106 35.4958 158.695 35.4693C157.172 35.4771 155.649 35.471 154.125 35.4713ZM152.497 28.9789C152.497 29.6821 152.51 30.3856 152.492 31.0883C152.481 31.4953 152.611 31.6879 153.051 31.6832C154.505 31.6671 155.958 31.6669 157.411 31.6825C157.825 31.6863 158.004 31.5453 157.999 31.1133C157.984 29.6602 157.984 28.2069 157.999 26.7536C158.003 26.3425 157.873 26.1608 157.436 26.1659C155.983 26.1827 154.529 26.1867 153.076 26.164C152.591 26.1564 152.477 26.3673 152.49 26.7993C152.513 27.5251 152.496 28.2522 152.497 28.9789Z" fill="#2B9453"/>
<path d="M134.751 30.1047C134.751 28.6039 134.745 27.1032 134.753 25.6025C134.733 25.1838 134.799 24.7654 134.947 24.3733C135.095 23.9811 135.322 23.6236 135.614 23.3226C135.906 23.0217 136.256 22.7838 136.644 22.6236C137.031 22.4635 137.447 22.3844 137.866 22.3915C140.164 22.3469 142.464 22.3415 144.762 22.3938C145.181 22.391 145.596 22.4742 145.981 22.6381C146.367 22.8021 146.715 23.0434 147.003 23.3471C147.292 23.6508 147.515 24.0104 147.659 24.4038C147.803 24.7972 147.865 25.216 147.841 25.6342C147.844 28.6592 147.829 31.6842 147.853 34.7089C147.856 35.2721 147.718 35.5158 147.112 35.4818C146.293 35.436 145.469 35.4519 144.65 35.4771C144.188 35.4913 144.032 35.3128 144.04 34.8605C144.062 33.7588 144.026 32.6558 144.056 31.5545C144.07 31.0289 143.941 30.7953 143.356 30.8114C141.973 30.8494 140.588 30.8444 139.205 30.8133C138.666 30.8012 138.518 31.0004 138.532 31.5112C138.564 32.6125 138.525 33.7156 138.55 34.8171C138.56 35.293 138.418 35.4973 137.913 35.4787C137.07 35.4476 136.224 35.4477 135.381 35.4787C134.877 35.4972 134.737 35.2946 134.743 34.818C134.765 33.2471 134.751 31.6758 134.751 30.1047ZM141.231 27.118C141.981 27.118 142.731 27.1114 143.48 27.1209C143.836 27.1253 144.06 27.0466 144.051 26.6169C144.042 26.2143 143.815 26.1682 143.5 26.1691C142.025 26.1735 140.549 26.1733 139.072 26.1685C138.744 26.1672 138.539 26.2404 138.538 26.6323C138.538 27.007 138.708 27.1243 139.052 27.12C139.778 27.1106 140.504 27.117 141.231 27.118Z" fill="#2B9453"/>
<path d="M119.947 28.951C119.947 30.8975 119.933 32.8441 119.956 34.7904C119.962 35.309 119.801 35.5024 119.272 35.4795C118.452 35.444 117.629 35.4431 116.809 35.4795C116.264 35.5038 116.13 35.2742 116.142 34.7746C116.169 33.6496 116.138 32.5232 116.156 31.3979C116.163 30.9779 116.018 30.8124 115.587 30.8174C114.133 30.8343 112.678 30.8375 111.224 30.8163C110.733 30.8092 110.638 31.0417 110.644 31.4637C110.66 32.5656 110.632 33.6684 110.657 34.7701C110.669 35.2637 110.544 35.5035 109.993 35.4799C109.126 35.4427 108.257 35.4599 107.39 35.4733C107.001 35.4793 106.847 35.3242 106.848 34.9336C106.855 30.9234 106.855 26.9132 106.848 22.9029C106.847 22.4999 107.023 22.37 107.401 22.3754C108.268 22.3879 109.137 22.3965 110.004 22.3725C110.498 22.3588 110.663 22.565 110.655 23.0415C110.635 24.1668 110.663 25.293 110.644 26.4183C110.636 26.8693 110.796 27.0446 111.256 27.0387C112.687 27.0205 114.117 27.0207 115.548 27.0394C116.011 27.0457 116.165 26.8695 116.157 26.4193C116.137 25.3174 116.181 24.2138 116.139 23.1133C116.116 22.5109 116.34 22.3395 116.91 22.3687C117.682 22.4084 118.458 22.4049 119.231 22.37C119.794 22.3446 119.962 22.5716 119.955 23.1116C119.934 25.0579 119.947 27.0045 119.947 28.951Z" fill="#2B9453"/>
<path d="M83.6088 28.9246C83.6088 26.9792 83.6259 25.0337 83.5979 23.0888C83.5894 22.5289 83.7768 22.3424 84.3281 22.3696C85.0994 22.4076 85.8763 22.4065 86.6476 22.37C87.188 22.3445 87.3342 22.5625 87.3202 23.0705C87.2907 24.1478 87.3334 25.2271 87.3023 26.3043C87.286 26.8393 87.4353 27.0594 88.0115 27.0448C89.4166 27.0092 90.8248 27.0148 92.2306 27.0428C92.7516 27.0531 92.9359 26.8827 92.9219 26.3574C92.8916 25.2332 92.9219 24.1076 92.9079 22.9828C92.9032 22.5889 92.9973 22.3643 93.4514 22.3744C94.3418 22.3943 95.2329 22.3909 96.124 22.376C96.5516 22.3688 96.7056 22.5601 96.7033 22.9695C96.6932 24.4225 96.6963 25.8757 96.6994 27.3288C96.7156 27.5288 96.6688 27.7289 96.5656 27.901C96.4624 28.0731 96.308 28.2086 96.124 28.2886C95.8713 28.4095 95.6341 28.5637 95.3884 28.7001C95.075 28.8739 95.0035 29.0837 95.3915 29.209C96.6434 29.6135 96.8075 30.5363 96.718 31.6831C96.6621 32.713 96.6589 33.7451 96.7087 34.7754C96.7212 35.2726 96.5859 35.5054 96.0392 35.4804C95.2204 35.4429 94.397 35.4449 93.5782 35.4798C93.0424 35.5026 92.8908 35.2884 92.904 34.7811C92.932 33.6803 92.8978 32.5779 92.9188 31.4767C92.9281 30.9916 92.7438 30.8109 92.2586 30.8175C90.8286 30.8365 89.3987 30.8365 87.9687 30.8175C87.4882 30.8113 87.2953 30.9832 87.3054 31.4729C87.3272 32.5505 87.286 33.6299 87.3218 34.7068C87.3404 35.2715 87.1834 35.5176 86.5776 35.4814C85.8284 35.44 85.0774 35.4396 84.3281 35.48C83.7791 35.5073 83.5894 35.3207 83.5979 34.7604C83.6259 32.8155 83.6088 30.8699 83.6088 28.9246Z" fill="#2B9453"/>
<path d="M77.1352 35.4701C75.6585 35.4699 74.1788 35.4113 72.7053 35.4854C72.3003 35.4971 71.8971 35.4274 71.5196 35.2804C71.142 35.1335 70.7978 34.9123 70.5073 34.6299C70.2168 34.3476 69.9858 34.0098 69.8282 33.6366C69.6706 33.2634 69.5894 32.8623 69.5895 32.4572C69.5545 30.1374 69.5548 27.8172 69.5903 25.4966C69.5875 25.0714 69.6723 24.6502 69.8394 24.2593C70.0065 23.8683 70.2523 23.516 70.5615 23.2242C70.8708 22.9325 71.2368 22.7075 71.6368 22.5634C72.0368 22.4193 72.4622 22.3592 72.8865 22.3867C75.9338 22.3605 78.9819 22.3873 82.0293 22.3715C82.5168 22.3689 82.6987 22.5314 82.6801 23.0218C82.6513 23.7941 82.6381 24.5704 82.684 25.3411C82.7213 25.9705 82.5347 26.1952 81.8667 26.1855C79.2883 26.1482 76.709 26.1843 74.1306 26.1596C73.5668 26.1542 73.3398 26.2942 73.3585 26.8999C73.3989 28.2581 73.395 29.6189 73.3592 30.9773C73.3445 31.5514 73.5645 31.6908 74.0979 31.6864C76.6297 31.6655 79.1615 31.6768 81.6933 31.6774C82.6723 31.6776 82.6723 31.6785 82.6731 32.6884C82.6731 33.4149 82.6544 34.1421 82.6785 34.8678C82.6941 35.3288 82.5082 35.4815 82.0588 35.4768C80.4173 35.4599 78.7766 35.4701 77.1352 35.4701Z" fill="#2B9453"/>
<path d="M35.1233 12.6232C34.9545 13.0487 34.708 12.9363 34.5222 12.9401C33.8418 12.9542 33.1614 12.9504 32.4811 12.9437C32.1677 12.9406 31.8605 12.8972 31.8784 13.3763C31.8893 13.6507 31.6475 13.615 31.464 13.6152C30.1973 13.6164 28.9304 13.6159 27.6632 13.6136C27.5092 13.6132 27.2479 13.6631 27.2518 13.4642C27.2666 12.732 26.7433 12.9622 26.377 12.9514C25.6974 12.9316 25.0163 12.9599 24.3367 12.9401C23.986 12.9299 23.8344 13.0245 23.8359 13.4075C23.8476 16.7616 23.8471 20.1157 23.8344 23.4697C23.8328 23.8616 23.9875 23.9318 24.3297 23.9254C25.3149 23.9072 26.3016 23.8951 27.286 23.9262C27.7658 23.9414 28.0582 23.875 27.9664 23.2977C27.9104 22.9494 28.0193 22.8143 28.3894 23.022C28.8746 23.2945 29.3871 23.5202 29.8692 23.7573C30.0379 23.661 29.9648 23.5306 29.992 23.4285C30.0348 23.2642 29.8855 22.9648 30.1195 22.9558C30.4578 22.9426 30.3046 23.2827 30.2929 23.4435C30.2611 23.8896 30.492 23.9265 30.8466 23.9223C32.0425 23.9083 33.2392 23.912 34.4359 23.9255C34.6458 23.9279 34.9063 23.8087 35.0681 24.0776C34.9211 24.3667 34.6559 24.2546 34.446 24.2573C33.3201 24.2714 32.1933 24.2902 31.0682 24.2601C30.5394 24.2459 30.1895 24.3117 30.2992 24.96C30.3202 25.0821 30.3303 25.2544 30.0674 25.2766C29.9088 25.0461 30.055 24.7458 29.9391 24.4567C29.265 24.6208 28.7121 25.0755 28.0714 25.288C28.0156 25.2386 27.9757 25.1736 27.9571 25.1015C27.9383 25.0293 27.9416 24.9532 27.9664 24.8829C28.0333 24.378 27.8109 24.2461 27.3304 24.2616C26.3693 24.2927 25.4066 24.2818 24.4455 24.2559C24.0117 24.2442 23.8281 24.3489 23.832 24.8348C23.853 27.7431 23.8445 30.6515 23.839 33.56C23.8247 33.6964 23.8458 33.8342 23.9005 33.96C23.9551 34.0858 24.0414 34.1953 24.1508 34.2779C24.2395 34.3388 24.3128 34.4195 24.3647 34.5136C24.4167 34.6077 24.446 34.7127 24.4502 34.8202C24.4545 34.9277 24.4334 35.0347 24.3887 35.1325C24.344 35.2304 24.2769 35.3164 24.1928 35.3835C24.0851 35.4855 23.949 35.5524 23.8024 35.5755C23.6559 35.5986 23.5058 35.5767 23.3719 35.5128C23.238 35.4488 23.1267 35.3458 23.0525 35.2173C22.9784 35.0889 22.9449 34.9409 22.9565 34.793C22.9648 34.6948 22.9925 34.5992 23.0381 34.5118C23.0835 34.4243 23.1462 34.347 23.2224 34.2846C23.3324 34.2028 23.4179 34.0924 23.4697 33.9654C23.5216 33.8385 23.5383 33.6999 23.5179 33.5643C23.5155 30.6559 23.5062 27.7474 23.5264 24.8391C23.5295 24.3755 23.3974 24.2503 22.9386 24.253C19.7007 24.2718 16.4629 24.2719 13.2251 24.2532C12.7461 24.2505 12.5781 24.3678 12.582 24.8747C12.6046 27.783 12.5952 30.6916 12.589 33.5999C12.573 33.748 12.5957 33.8976 12.655 34.0342C12.7143 34.1708 12.8082 34.2896 12.9272 34.3789C13.0102 34.4374 13.0786 34.5142 13.1271 34.6033C13.1757 34.6924 13.2031 34.7915 13.2072 34.8929C13.2111 34.9943 13.1917 35.0952 13.1505 35.1879C13.1092 35.2806 13.0472 35.3626 12.9692 35.4275C12.9067 35.5073 12.827 35.5719 12.7361 35.6168C12.6452 35.6616 12.5454 35.6854 12.444 35.6865C12.3427 35.6876 12.2424 35.666 12.1505 35.6231C12.0587 35.5803 11.9776 35.5174 11.9133 35.439C11.7933 35.3432 11.7107 35.2082 11.6799 35.0578C11.649 34.9073 11.6719 34.7508 11.7446 34.6154C11.7923 34.5255 11.8604 34.4481 11.9436 34.3894C12.0612 34.299 12.1529 34.1793 12.2095 34.0422C12.2661 33.9051 12.2852 33.7553 12.2647 33.6083C12.2593 30.7 12.2508 27.7914 12.2725 24.8831C12.2756 24.4068 12.1699 24.2461 11.6621 24.2508C8.72987 24.2779 5.79692 24.2856 2.86459 24.2552C2.25885 24.2489 2.00279 24.3825 2.09805 25.0183C2.12883 25.2237 2.23576 25.5297 1.96151 25.652C1.68056 25.7772 1.5476 25.4794 1.41206 25.3188C1.156 25.0153 0.680596 24.8489 0.736659 24.2112L1.73305 25.1278V23.1795C1.27622 23.2458 1.15422 23.7593 0.691406 23.9199C0.770655 23.6243 0.911671 23.3489 1.10515 23.1118C1.29862 22.8747 1.54016 22.6813 1.81384 22.5444C2.07277 22.3561 2.09485 22.7137 2.10971 22.9178C2.18233 23.9158 2.18265 23.9179 3.16744 23.9185C6.00624 23.9198 8.84494 23.9097 11.6839 23.9293C12.1318 23.9324 12.2912 23.8292 12.2733 23.3553C12.2352 22.3717 12.2251 21.3836 12.2756 20.4011C12.3052 19.827 12.1613 19.5677 11.5603 19.6802C11.456 19.6846 11.3516 19.6769 11.2492 19.6571C11.39 18.9489 11.8938 18.4113 12.0758 17.7434C12.0112 17.717 11.9685 17.7001 11.9257 17.682C11.7142 17.5919 11.3005 17.839 11.3021 17.467C11.3037 17.1713 11.6886 17.3173 11.8915 17.3235C12.2305 17.3339 12.2679 17.1739 12.2655 16.8979C12.2554 15.7252 12.2515 14.5523 12.2679 13.3797C12.2725 13.0445 12.1668 12.9321 11.8277 12.9393C10.9133 12.9588 9.99732 12.9658 9.08366 12.9349C8.77186 12.9243 8.63344 13.143 8.41805 13.2615C8.31537 13.3222 8.19358 13.342 8.07698 13.3168C7.96039 13.2917 7.85756 13.2235 7.78899 13.1259C7.70605 13.0399 7.65644 12.9272 7.64903 12.8079C7.64162 12.6887 7.67689 12.5707 7.74855 12.4751C7.89551 12.2547 8.19023 12.1129 8.34963 12.2667C8.95381 12.8493 9.67774 12.5896 10.3488 12.6094C10.9685 12.6276 11.8013 12.8947 12.1551 12.4874C12.463 12.1339 12.2585 11.3254 12.2593 10.7179C12.2647 8.04409 12.2601 5.37024 12.264 2.69632C12.2876 2.53827 12.2691 2.37679 12.2104 2.22816C12.1517 2.07953 12.0548 1.94901 11.9296 1.84974C11.848 1.7889 11.7817 1.7099 11.736 1.61898C11.6902 1.52806 11.6663 1.42774 11.666 1.32595C11.6652 1.22411 11.6886 1.12354 11.7344 1.03257C11.8423 0.869122 11.9842 0.730881 12.1504 0.62728C12.2365 0.586153 12.3305 0.564085 12.4259 0.562582C12.5213 0.561079 12.6159 0.580177 12.7033 0.618571C12.7905 0.657191 12.8684 0.714008 12.9319 0.785212C13.0157 0.842977 13.0847 0.919658 13.1333 1.00905C13.182 1.09844 13.2088 1.19803 13.2118 1.29975C13.2152 1.40152 13.1944 1.50264 13.1511 1.59483C13.1079 1.68702 13.0434 1.76766 12.963 1.83015C12.8197 1.94483 12.7097 2.09568 12.6442 2.26711C12.5787 2.43854 12.5602 2.62435 12.5905 2.80534C12.5944 5.85446 12.6022 8.90373 12.5828 11.9527C12.5797 12.4523 12.6862 12.6412 13.2375 12.6365C16.4753 12.6094 19.7129 12.6087 22.9502 12.6345C23.4253 12.6377 23.528 12.488 23.5257 12.043C23.5078 8.94696 23.4977 5.85072 23.5311 2.75502C23.5381 2.11109 23.0435 1.90114 22.7488 1.509C22.6532 1.38148 22.3577 1.2723 22.5972 1.07082C22.7698 0.925256 22.8647 1.17502 22.9837 1.26445C23.06 1.31972 23.1272 1.38666 23.1827 1.46281C23.514 1.93987 23.8414 1.97455 24.1843 1.47245C24.2519 1.37643 24.3359 1.293 24.4323 1.22595C24.5451 1.14633 24.6306 0.886221 24.8141 1.09944C24.9836 1.29539 24.7441 1.40892 24.6438 1.47657C24.3298 1.71633 24.0877 2.03777 23.944 2.40578C23.8003 2.7738 23.7605 3.17423 23.8289 3.56334C23.8647 6.35406 23.8569 9.14564 23.8297 11.9365C23.8242 12.4959 23.9875 12.6773 24.5419 12.634C25.1485 12.5867 25.762 12.6396 26.3708 12.6171C26.7363 12.6037 27.2689 12.8423 27.2425 12.099C27.2355 11.8918 27.4952 11.9413 27.6492 11.9409C28.9166 11.9371 30.1835 11.9374 31.45 11.9416C31.6008 11.9422 31.8613 11.8787 31.859 12.0882C31.852 12.8008 32.3535 12.6148 32.7376 12.6201C33.5137 12.6308 34.2897 12.6232 35.1233 12.6232ZM13.7009 19.6606C13.5587 19.6797 13.4151 19.6862 13.2717 19.68C12.7142 19.5868 12.5556 19.8158 12.5797 20.3656C12.624 21.3718 12.6038 22.3816 12.5867 23.3895C12.5804 23.7507 12.6349 23.9314 13.0711 23.929C16.4015 23.9112 19.7318 23.9108 23.0622 23.9277C23.4495 23.9293 23.5241 23.7926 23.5225 23.4409C23.5117 20.1116 23.5122 16.7823 23.5241 13.4529C23.5257 13.0574 23.4184 12.9353 23.014 12.9372C19.707 12.9525 16.4002 12.9526 13.0937 12.9375C12.6761 12.9356 12.5805 13.0915 12.5859 13.4712C12.6046 14.5963 12.6069 15.7222 12.5851 16.8471C12.5773 17.2263 12.7103 17.3366 13.0703 17.3231C13.2414 17.3166 13.5804 17.175 13.5656 17.4986C13.5524 17.7822 13.2243 17.6303 13.0361 17.674C12.97 17.6892 12.9055 17.7086 12.764 17.7464L13.7009 19.6606ZM29.5667 13.2667C30.0822 13.2667 30.6001 13.2421 31.1133 13.2745C31.5231 13.3004 31.5604 13.0995 31.5604 12.7703C31.5604 12.4373 31.5122 12.2525 31.1071 12.2623C30.076 12.2875 29.0444 12.2876 28.0123 12.2626C27.6025 12.2527 27.566 12.45 27.5605 12.777C27.5543 13.1192 27.6235 13.2975 28.0193 13.2741C28.5333 13.2438 29.0504 13.2667 29.5667 13.2667ZM23.6835 35.2569C23.7849 35.2542 23.8816 35.214 23.955 35.144C24.0284 35.0741 24.0732 34.9794 24.0808 34.8782C24.0912 34.827 24.0899 34.7741 24.077 34.7234C24.0644 34.6727 24.0408 34.6254 24.0077 34.585C23.9746 34.5446 23.9329 34.512 23.8857 34.4897C23.8386 34.4672 23.787 34.4555 23.7348 34.4555C23.6495 34.4352 23.5598 34.4459 23.4816 34.4856C23.4035 34.5253 23.3419 34.5914 23.3079 34.6723C23.2855 34.7259 23.2759 34.784 23.2799 34.842C23.2761 35.0758 23.4378 35.2096 23.6835 35.2569ZM12.8339 34.9272C12.8384 34.8729 12.831 34.8182 12.8122 34.767C12.7933 34.7158 12.7636 34.6693 12.7251 34.6307C12.6866 34.5921 12.6401 34.5623 12.589 34.5433C12.5379 34.5244 12.4832 34.5168 12.4288 34.5211C12.3754 34.5169 12.3218 34.5247 12.2717 34.544C12.2217 34.5634 12.1766 34.5936 12.1396 34.6324C12.1027 34.6713 12.0751 34.718 12.0587 34.769C12.0423 34.82 12.0375 34.8741 12.0447 34.9272C12.046 35.031 12.0881 35.1301 12.162 35.203C12.2358 35.276 12.3355 35.3169 12.4393 35.3169C12.5431 35.3169 12.6427 35.276 12.7166 35.2031C12.7905 35.1301 12.8326 35.031 12.8339 34.9272ZM12.8339 1.36577C12.8223 1.08871 12.6878 0.956362 12.4413 0.94843C12.3853 0.949628 12.3303 0.962911 12.2799 0.987372C12.2296 1.01183 12.1851 1.04689 12.1496 1.09015C12.1141 1.1334 12.0883 1.18382 12.0741 1.23796C12.0599 1.29209 12.0575 1.34866 12.0672 1.40379C12.081 1.47744 12.1156 1.54561 12.1668 1.60029C12.2181 1.65474 12.2842 1.69313 12.3569 1.71079C12.4296 1.72846 12.506 1.72466 12.5766 1.69983C12.6472 1.67501 12.7091 1.63024 12.7548 1.57094C12.8004 1.51165 12.828 1.44038 12.8339 1.36577Z" fill="white"/>
<path d="M64.924 28.9793C64.924 27.0091 64.938 25.0386 64.9147 23.0686C64.9093 22.5609 65.0453 22.3462 65.5865 22.3704C66.4294 22.408 67.2762 22.399 68.1199 22.3735C68.5872 22.3594 68.7233 22.5452 68.7225 22.9941C68.7101 26.9347 68.7101 30.8752 68.7225 34.8158C68.7248 35.2867 68.5997 35.4996 68.0903 35.4802C67.2467 35.4482 66.4007 35.4494 65.557 35.4799C65.0547 35.498 64.9116 35.2976 64.9163 34.8197C64.9349 32.8731 64.924 30.9262 64.924 28.9793Z" fill="#2B9453"/>
<path d="M7.06136 32.938C6.19507 32.938 5.32736 32.9092 4.46278 32.949C3.96341 32.972 3.82765 32.8062 3.83573 32.3203C3.84226 31.9205 4.14489 31.3109 3.25232 31.3091C2.94564 31.3085 3.11375 30.7877 3.10582 30.5093C3.09461 30.1184 2.89206 29.5756 3.67143 29.6435C3.91784 29.6649 3.84661 29.3598 3.84872 29.19C3.85743 28.4644 3.85292 27.7387 3.8523 27.0129C3.85207 26.7314 3.80098 26.4479 4.25415 26.4559C4.61021 26.4621 4.85896 26.4943 4.79154 26.9366C4.74993 27.2098 4.8759 27.3033 5.14775 27.3013C6.41216 27.2919 7.67643 27.289 8.94078 27.3032C9.25103 27.3067 9.37078 27.1969 9.3319 26.899C9.2767 26.4839 9.52786 26.4668 9.84666 26.458C10.2129 26.4478 10.2689 26.6269 10.2642 26.9312C10.251 27.6801 10.2533 28.4295 10.265 29.1784C10.2673 29.3624 10.16 29.6564 10.4967 29.6597C11.4874 29.6695 10.8661 30.4045 10.9959 30.7878C11.1149 31.1385 10.999 31.407 10.5092 31.3711C10.111 31.3419 10.2735 31.7015 10.2666 31.8941C10.23 32.9376 10.2378 32.9379 9.16861 32.9379L7.06136 32.938ZM7.10413 31.2245C7.71142 31.2245 8.32105 31.1918 8.926 31.2337C9.52707 31.2753 9.41432 30.8756 9.39488 30.5489C9.37622 30.228 9.60249 29.7641 8.93299 29.7796C7.69509 29.8083 6.45689 29.8085 5.21842 29.7802C4.58042 29.7667 4.80017 30.215 4.80413 30.5026C4.80802 30.7866 4.56744 31.2569 5.21158 31.2302C5.84134 31.2039 6.47312 31.2245 7.10413 31.2245Z" fill="white"/>
<path d="M101.755 30.8234C100.561 30.8234 99.3679 30.8102 98.1743 30.8302C97.7264 30.8377 97.5414 30.6872 97.5538 30.2249C97.5779 29.3599 97.5732 28.4934 97.5554 27.628C97.5468 27.2228 97.6704 27.0275 98.1098 27.0296C100.544 27.0408 102.978 27.0413 105.412 27.0312C105.824 27.0299 106.011 27.1869 106.005 27.61C105.991 28.4989 105.988 29.3884 106.007 30.2772C106.016 30.72 105.809 30.8339 105.407 30.8288C104.19 30.8137 102.972 30.8234 101.755 30.8234Z" fill="#2B9453"/>
<path d="M29.1696 33.0799C28.5833 33.0799 27.9947 33.0481 27.4115 33.0902C26.9574 33.1229 26.8571 32.9534 26.8742 32.5346C26.8913 32.1283 27.1075 31.5262 26.2926 31.6269C26.1977 31.0075 25.7988 30.8665 25.2335 30.7077C25.001 30.6425 25.1262 29.7954 25.1838 29.3138C25.2242 28.9752 25.5656 29.163 25.7716 29.1346C26.3439 29.0557 26.8812 28.1882 26.8758 27.2325C26.8734 26.8286 26.9395 26.6696 27.4022 26.6544C27.9527 26.6363 28.1191 26.8237 28.0344 27.3301C27.9683 27.7256 28.1355 27.8845 28.5367 27.8426C28.7937 27.8165 29.0526 27.8162 29.3096 27.8417C29.9542 27.9045 30.4635 27.8723 30.3173 26.9771C30.2466 26.5435 30.6564 26.6747 30.8702 26.6884C31.1011 26.7034 31.5125 26.4918 31.5101 26.9653C31.5258 27.3796 31.5831 27.7914 31.6812 28.1943C31.7388 28.4893 32.4028 29.1422 32.7014 29.1222C33.0933 29.0958 33.2652 29.2184 33.2201 29.628C33.205 29.8854 33.2032 30.1434 33.2146 30.401C33.2159 30.4909 33.2125 30.5808 33.2045 30.6704C32.5397 30.6865 32.3391 31.3465 31.8935 31.594C31.5716 31.7725 31.5265 31.8914 31.5218 32.1707C31.5063 33.0799 31.5032 33.0799 30.5771 33.08C30.1074 33.08 29.6382 33.08 29.1696 33.0799ZM29.2093 32.3785C29.6059 32.3785 30.0024 32.3674 30.3982 32.3819C30.7279 32.3942 30.689 32.1795 30.6999 31.9671C30.7131 31.7282 30.6245 31.6372 30.3811 31.6403C29.5888 31.65 28.7964 31.6499 28.004 31.64C27.7249 31.6361 27.6487 31.7574 27.6479 32.0176C27.6471 32.2917 27.756 32.39 28.0211 32.3823C28.4169 32.3708 28.8135 32.3793 29.2093 32.3785ZM28.4372 29.327C28.4372 29.1565 28.4387 29.0397 28.4372 28.923C28.434 28.6731 28.5001 28.4185 28.0779 28.4109C27.6378 28.403 27.6502 28.6481 27.658 28.9448C27.672 29.2013 27.6712 29.4584 27.6557 29.7148C27.6207 30.1016 27.8485 30.1366 28.1347 30.1018C28.7707 30.024 28.2536 29.5196 28.4372 29.327ZM30.7194 29.3448C30.7194 29.1751 30.7256 29.0579 30.7178 28.9418C30.7015 28.7082 30.815 28.4261 30.3788 28.4125C29.9091 28.3978 29.9915 28.6918 29.99 28.9619C29.9876 29.2418 30.0001 29.5223 29.9869 29.8016C29.9752 30.0596 30.1082 30.1043 30.329 30.107C31.063 30.1163 30.5514 29.5442 30.7194 29.3448Z" fill="white"/>
<path d="M29.1476 21.6969C28.1165 21.6968 27.0854 21.6883 26.0551 21.7018C25.7417 21.7058 25.5637 21.639 25.601 21.2796C25.6251 21.0507 25.6492 20.8231 25.29 20.7845C25.08 20.7619 25.1609 20.5167 25.1578 20.3678C25.1485 19.8058 25.1539 19.2435 25.1547 18.6814C25.1547 18.5878 25.1267 18.4378 25.1718 18.4093C25.9377 17.9253 25.5279 17.1703 25.587 16.5392C25.6243 16.1402 25.7355 16.0172 26.1251 16.0317C26.8273 16.0578 27.5356 15.9883 28.2323 16.0535C28.9081 16.1166 28.9672 15.7791 28.8684 15.2794C28.8218 15.0417 28.5994 14.8043 28.9197 14.5998C28.9755 14.5559 29.045 14.5331 29.116 14.5353C29.1869 14.5376 29.2548 14.5648 29.3077 14.6121C29.5433 14.8128 29.3902 15.02 29.3365 15.2452C29.1732 15.9347 29.2689 16.0371 30.0013 16.0387C30.6576 16.0401 31.317 16.0777 31.9686 16.0271C32.5223 15.9843 32.6754 16.2018 32.6194 16.7066C32.5969 16.9869 32.5961 17.2686 32.6171 17.5491C32.6296 17.8295 32.4989 18.1713 32.9592 18.2642C33.1715 18.307 33.0806 18.5391 33.0844 18.6878C33.1053 19.109 33.104 19.531 33.0805 19.952C33.0549 20.2889 33.3115 20.7742 32.6879 20.867C32.6622 20.8708 32.6249 20.9422 32.6296 20.9772C32.7625 21.9743 32.0269 21.6761 31.5371 21.6908C30.7416 21.7144 29.9438 21.6971 29.1476 21.6969ZM29.0434 20.6788C29.7937 20.6788 30.5449 20.6639 31.2952 20.6852C31.6576 20.6954 31.8014 20.5748 31.7905 20.2052C31.7711 19.5493 31.7696 18.8919 31.7905 18.236C31.8038 17.8483 31.6226 17.7616 31.2797 17.7641C29.8256 17.7745 28.3715 17.7776 26.9175 17.7624C26.5466 17.7586 26.4252 17.892 26.4377 18.2546C26.4595 18.9104 26.4641 19.5683 26.4361 20.2236C26.4198 20.6143 26.5839 20.6957 26.933 20.6851C27.6359 20.6636 28.3396 20.6788 29.0434 20.6788Z" fill="white"/>
<path d="M18.0213 32.7382C17.1302 32.7381 16.2383 32.7345 15.3472 32.7393C14.7795 32.7425 14.3791 32.5646 14.3736 31.9104C14.3721 31.8044 14.4071 31.6788 14.2772 31.6102C13.4024 31.1471 13.1427 30.6316 13.4491 29.8361C13.6388 29.389 13.7695 28.9191 13.8379 28.4383C13.911 27.7986 14.4685 27.453 15.2391 27.4324C15.6045 27.4227 16.0952 27.6222 16.0439 26.9109C16.0299 26.7095 16.2857 26.6543 16.4863 26.6757C16.7056 26.699 16.8767 26.8633 16.8354 27.0441C16.7219 27.5456 17.0555 27.4318 17.309 27.4325C18.4824 27.4356 19.6557 27.4291 20.8283 27.4357C21.7754 27.441 22.2194 27.8211 22.3088 28.7483C22.3726 29.1124 22.4892 29.4652 22.6549 29.7956C22.8866 30.3759 22.7824 31.2542 22.4713 31.356C21.7715 31.585 21.7801 32.1882 21.4309 32.5764C21.2521 32.7757 20.9566 32.7404 20.6961 32.7395C19.805 32.7365 18.9131 32.7383 18.0213 32.7382ZM18.0796 32.1044C18.924 32.1044 19.7685 32.0929 20.6122 32.1097C20.9916 32.1172 21.1704 32.0057 21.1557 31.5922C21.1308 30.8896 21.1339 30.1851 21.1549 29.4822C21.1658 29.0881 21.0196 28.9445 20.623 28.9477C18.9116 28.9614 17.1996 28.9617 15.4871 28.9487C15.11 28.9464 14.9195 29.0621 14.9296 29.4701C14.9467 30.1731 14.9464 30.8765 14.9288 31.5802C14.9187 31.9824 15.0906 32.1159 15.4762 32.1088C16.344 32.0929 17.2118 32.1038 18.0796 32.1044ZM21.798 28.9086C21.7295 28.098 21.4924 27.8609 20.7894 27.8537C19.5741 27.8413 18.3587 27.8429 17.1434 27.8584C16.9544 27.8609 16.6154 27.6881 16.6037 28.08C16.5928 28.4672 16.928 28.3364 17.1278 28.3385C18.2732 28.3506 19.4186 28.3512 20.5639 28.3403C20.8032 28.2943 21.0509 28.3243 21.2722 28.4262C21.4936 28.5281 21.6774 28.6968 21.798 28.9086ZM14.2795 28.6748C14.7445 28.367 15.3094 28.2485 15.8588 28.3434C16.0174 28.3422 16.2033 28.3734 16.2336 28.1402C16.2501 28.0851 16.2459 28.0259 16.2219 27.9737C16.1977 27.9215 16.1551 27.88 16.1022 27.8572C15.751 27.747 15.3715 27.7693 15.0357 27.92C14.6998 28.0706 14.4308 28.3392 14.2795 28.6748Z" fill="white"/>
<path d="M13.379 7.98225C13.379 7.60753 13.3937 7.2321 13.3751 6.85831C13.3525 6.40777 13.5166 6.13639 13.9948 6.10894C14.1713 6.09876 14.4458 6.13748 14.3463 5.84347C14.1612 5.29969 14.5259 5.40001 14.8151 5.39845C15.1658 5.39666 15.7405 5.27326 15.8314 5.42831C16.2949 6.22333 17.0048 5.85163 17.6067 5.89876C18.2816 5.95148 18.9643 5.91229 19.6431 5.90918C19.759 5.90863 19.9705 5.90809 19.9767 5.87457C20.1618 4.97784 20.86 5.52815 21.3079 5.41011C21.6205 5.32777 21.9238 5.36937 21.7931 5.87146C21.7154 6.1699 22.014 6.09238 22.171 6.10738C22.5824 6.14673 22.7293 6.37682 22.7247 6.76803C22.7146 7.58754 22.7115 8.40752 22.7255 9.22688C22.734 9.7121 22.5054 9.89235 22.0404 9.8911C19.3928 9.88395 16.7456 9.88384 14.099 9.89079C13.6013 9.89204 13.3595 9.6855 13.3766 9.17641C13.3898 8.77882 13.379 8.38038 13.379 7.98225ZM18.0413 9.54616C19.238 9.54616 20.4347 9.53356 21.6306 9.55215C22.1353 9.56 22.3732 9.36646 22.3631 8.85425C22.3507 8.2681 22.3577 7.68156 22.36 7.09517C22.3623 6.66073 22.1625 6.458 21.7154 6.45925C19.2753 6.4664 16.8353 6.46697 14.3952 6.46096C13.945 6.46018 13.7709 6.67464 13.7856 7.11554C13.8051 7.67782 13.8136 8.24259 13.7833 8.80379C13.7537 9.35246 13.9769 9.56303 14.522 9.553C15.6946 9.53123 16.8679 9.54632 18.0413 9.54616Z" fill="white"/>
<path d="M8.04743 11.5475C7.85692 11.9506 7.47514 12.0238 7.16722 12.208C6.76288 12.4492 6.25255 12.5229 6.07144 13.0868C6.0455 13.1472 6.00581 13.2007 5.95554 13.243C5.90527 13.2854 5.8458 13.3154 5.78188 13.3307C5.71796 13.346 5.65134 13.3462 5.58734 13.3312C5.52334 13.3163 5.46372 13.2866 5.41322 13.2445C4.41978 12.6236 3.32775 13.0705 2.28704 12.961C1.91676 12.9222 2.05322 13.2756 2.01162 13.4817C1.94615 13.8053 2.14684 14.4273 1.8659 14.3974C1.47813 14.3562 1.71147 13.7814 1.69352 13.4435C1.65775 12.767 1.68076 12.0872 1.68574 11.4087C1.68666 11.2813 1.64772 11.0961 1.8659 11.1125C2.01847 11.1239 1.99903 11.2712 2.01162 11.3836C2.05508 11.7716 1.83154 12.2876 2.12631 12.521C2.48244 12.803 3.03119 12.6437 3.48584 12.6082C4.11679 12.5817 4.74566 12.5184 5.36921 12.4184C6.31608 12.2338 7.12445 11.7497 8.04743 11.5475Z" fill="white"/>
<path d="M10.2173 17.9778L9.8588 17.2561C10.5252 17.0446 10.6784 17.689 11.0547 17.9176C11.0633 17.9464 11.0649 17.9769 11.0594 18.0064C11.0543 18.0361 11.0426 18.0642 11.0252 18.0887C10.7709 18.2849 10.6854 17.9369 10.4956 17.9136C10.3774 17.8162 10.2779 17.8188 10.2079 17.969C10.2313 18.1207 10.2881 18.2654 10.3743 18.3924C10.46 18.5197 10.5725 18.6266 10.704 18.7055C10.8051 18.7799 10.8728 18.8745 10.7561 18.9892C10.7405 19.0068 10.7211 19.0206 10.6994 19.0296C10.6776 19.0386 10.654 19.0427 10.6305 19.0414C10.607 19.0402 10.584 19.0337 10.5633 19.0224C10.5428 19.0109 10.525 18.9951 10.5112 18.9762C10.2663 18.7036 9.73982 18.7878 9.66907 18.285C9.63174 18.0173 9.83547 18.1438 9.92645 18.0863C10.0509 18.1256 10.2173 18.2753 10.2173 17.9778Z" fill="white"/>
<path d="M1.04834 13.9216V11.6431L1.19825 11.6372V13.9181L1.04834 13.9216Z" fill="white"/>
<path d="M10.2142 17.9766C10.2149 18.274 10.0485 18.1242 9.92334 18.0851L10.2142 17.9766Z" fill="#333440"/>
<path d="M10.2095 17.9675C10.2802 17.8174 10.3798 17.8147 10.4979 17.9121L10.2095 17.9675Z" fill="#333440"/>
<path d="M30.9931 19.0663C31.0056 19.173 30.9809 19.2807 30.9233 19.3714C30.8656 19.4621 30.7785 19.5301 30.6766 19.5641C30.6087 19.5864 30.5366 19.5929 30.4659 19.5831C30.3693 19.5932 30.272 19.5714 30.189 19.5209C30.1059 19.4704 30.0418 19.3941 30.0063 19.3037C29.9824 19.2437 29.972 19.1792 29.976 19.1148C29.971 19.0468 29.9795 18.9784 30.0009 18.9137C30.0224 18.849 30.0567 18.7893 30.1018 18.7381C30.1468 18.687 30.2017 18.6454 30.2631 18.6158C30.3245 18.5863 30.3913 18.5694 30.4594 18.5661C30.5275 18.5629 30.5955 18.5733 30.6595 18.5969C30.7236 18.6203 30.7824 18.6565 30.8321 18.7033C30.8818 18.75 30.9217 18.8062 30.9495 18.8684C30.9768 18.9309 30.9915 18.9981 30.9931 19.0663Z" fill="white"/>
<path d="M28.3297 19.0338C28.3134 19.4468 28.112 19.5963 27.7846 19.5811C27.7203 19.5857 27.6557 19.5762 27.5954 19.5532C27.5351 19.5303 27.4805 19.4945 27.4354 19.4484C27.3904 19.4022 27.3559 19.3468 27.3344 19.286C27.3129 19.2251 27.305 19.1603 27.3111 19.0961C27.3062 18.963 27.3536 18.8332 27.443 18.7346C27.5325 18.6359 27.657 18.5761 27.79 18.568C27.923 18.5598 28.0538 18.604 28.1547 18.6911C28.2555 18.7781 28.3183 18.9011 28.3297 19.0338Z" fill="white"/>
<path d="M17.9607 31.5549C17.3052 31.5546 16.6497 31.5374 15.995 31.5608C15.5642 31.5762 15.4188 31.3976 15.4234 30.9822C15.4413 29.1781 15.2905 29.5477 16.7873 29.5224C17.8868 29.5038 18.9871 29.5355 20.0858 29.5109C20.5493 29.5006 20.7009 29.6704 20.6908 30.1241C20.6527 31.8047 20.8922 31.5286 19.2943 31.5539C18.8495 31.561 18.4055 31.5551 17.9607 31.5549ZM20.2359 30.5404C20.1869 30.2423 20.0213 30.0161 19.7064 30.0128C19.5676 30.011 19.4336 30.064 19.3337 30.1604C19.2338 30.2568 19.176 30.3887 19.1728 30.5275C19.1696 30.6663 19.2214 30.8008 19.3168 30.9016C19.4122 31.0025 19.5435 31.0616 19.6823 31.0661C20.0034 31.0793 20.1651 30.8471 20.2359 30.5404ZM16.3783 29.9939C16.0805 30.0831 15.8744 30.2466 15.9063 30.5885C15.9066 30.6536 15.9201 30.7179 15.946 30.7776C15.9715 30.8374 16.0089 30.8914 16.0559 30.9363C16.103 30.9812 16.1587 31.0161 16.2197 31.0387C16.2805 31.0616 16.3453 31.0719 16.4102 31.069C16.4811 31.072 16.5518 31.0595 16.6174 31.0325C16.683 31.0055 16.742 30.9646 16.7903 30.9126C16.8385 30.8606 16.8749 30.7987 16.897 30.7313C16.919 30.6639 16.9262 30.5924 16.918 30.522C16.9117 30.1769 16.6878 30.0423 16.3783 29.9939Z" fill="white"/>
<path d="M18.0795 9.06045C17.1651 9.06068 16.2506 9.07234 15.3362 9.05703C14.6014 9.04466 14.3044 8.73697 14.2942 8.0327C14.2826 7.30012 14.6061 6.92703 15.3362 6.92081C17.1643 6.9051 18.9929 6.90531 20.822 6.92143C21.5063 6.92765 21.8274 7.30206 21.829 7.99739C21.8306 8.71061 21.5327 9.04233 20.822 9.05594C19.9084 9.07343 18.9939 9.06021 18.0795 9.06045ZM16.3688 7.96722C16.369 7.86102 16.3467 7.75598 16.3036 7.65893C16.2605 7.56188 16.1974 7.475 16.1185 7.40392C16.0396 7.33285 15.9466 7.27918 15.8456 7.2464C15.7446 7.21362 15.6378 7.20246 15.5322 7.21365C15.4309 7.21164 15.3303 7.23067 15.2367 7.26955C15.1431 7.30844 15.0587 7.36632 14.9886 7.43954C14.9184 7.5126 14.8641 7.59951 14.8293 7.69471C14.7945 7.78992 14.7799 7.89134 14.7865 7.99249C14.7786 8.09949 14.7935 8.20694 14.83 8.30781C14.8671 8.40857 14.9254 8.50014 15.0011 8.57629C15.0768 8.65243 15.168 8.71135 15.2686 8.74902C15.369 8.78672 15.4764 8.80229 15.5835 8.79466C15.7457 8.79946 15.9053 8.75262 16.0391 8.66088C16.173 8.56915 16.2743 8.43727 16.3284 8.28425C16.3643 8.18265 16.3781 8.07457 16.3688 7.96722ZM21.3516 7.99164C21.3492 7.88383 21.3251 7.77761 21.2807 7.67932C21.2364 7.58103 21.1727 7.49269 21.0934 7.41957C21.0142 7.34645 20.921 7.29006 20.8194 7.25376C20.7179 7.21745 20.6101 7.20199 20.5025 7.20829C20.401 7.20782 20.3004 7.22788 20.2069 7.26726C20.1133 7.30664 20.0287 7.36453 19.9582 7.43744C19.8877 7.51053 19.8327 7.59703 19.7963 7.69181C19.76 7.78659 19.7431 7.88771 19.7466 7.98915C19.7404 8.09641 19.7568 8.20379 19.7949 8.30427C19.8329 8.40475 19.8917 8.49608 19.9674 8.57231C20.0432 8.64854 20.1341 8.70795 20.2343 8.74666C20.3345 8.78538 20.4418 8.80253 20.5491 8.797C20.6548 8.79722 20.7595 8.77652 20.8571 8.73609C20.9548 8.69566 21.0434 8.63629 21.118 8.56143C21.1926 8.48656 21.2517 8.39767 21.2918 8.29988C21.3318 8.20208 21.3522 8.09733 21.3516 7.99164Z" fill="white"/>
</svg>
