<svg width="106" height="71" viewBox="0 0 106 71" fill="none" xmlns="http://www.w3.org/2000/svg">
<path d="M18.2773 14.255L14.3941 17.782C13.783 16.9369 13.1265 16.3084 12.4316 15.8998C11.7332 15.4912 10.9161 15.2887 9.97322 15.2887C8.93958 15.2887 8.12245 15.5471 7.52881 16.0639C6.93167 16.5842 6.63485 17.1709 6.63485 17.8309C6.63485 18.2848 6.76056 18.6899 7.01199 19.0426C7.26341 19.3953 7.64754 19.6782 8.16436 19.8877C8.68118 20.0972 9.63799 20.3451 11.0348 20.628C13.1684 21.068 14.7608 21.5569 15.8084 22.0981C16.8595 22.6394 17.6696 23.3972 18.2423 24.368C18.815 25.3422 19.1014 26.4387 19.1014 27.6609C19.1014 29.0717 18.7487 30.3498 18.0433 31.4952C17.3379 32.6406 16.2414 33.5625 14.7503 34.2609C13.2592 34.9593 11.4084 35.3085 9.198 35.3085C7.00151 35.3085 5.17867 34.9802 3.72948 34.3202C2.2768 33.6602 1.03364 32.7663 0 31.6384L3.83424 27.9927C4.7282 29.0263 5.59073 29.7666 6.42183 30.2031C7.25294 30.6431 8.20277 30.8631 9.26784 30.8631C10.5215 30.8631 11.4713 30.5942 12.1138 30.053C12.7564 29.5117 13.0776 28.8727 13.0776 28.1359C13.0776 27.6644 12.9554 27.2454 12.7145 26.8787C12.47 26.5121 12.1383 26.2187 11.7157 26.0092C11.2932 25.7962 10.6088 25.5971 9.66942 25.4086C7.28437 24.9337 5.53137 24.4448 4.41043 23.9349C3.28949 23.4251 2.4095 22.6883 1.77744 21.7245C1.14189 20.7607 0.824118 19.6188 0.824118 18.3023C0.824118 16.1861 1.63427 14.4087 3.25806 12.9735C4.88185 11.5383 7.15167 10.8224 10.0675 10.8224C12.058 10.8224 13.8319 11.1925 15.3824 11.9294C16.4824 12.4427 17.4462 13.2214 18.2773 14.255Z" fill="#CC2838"/>
<path d="M42.8478 14.2098L38.8494 18.278C38.0358 17.4329 37.2431 16.8288 36.4749 16.4656C35.7066 16.106 34.8685 15.9244 33.9571 15.9244C32.1692 15.9244 30.6676 16.5809 29.4524 17.8869C28.2372 19.1964 27.6296 20.9564 27.6296 23.1668C27.6296 25.3144 28.2581 27.0535 29.5118 28.3769C30.7654 29.7004 32.2949 30.3639 34.1003 30.3639C35.0711 30.3639 35.9336 30.1684 36.6879 29.7772C37.4422 29.3861 38.2104 28.7192 38.9926 27.7763L42.8024 31.9877C40.6862 34.2296 37.7599 35.3505 34.0304 35.3505C30.4092 35.3505 27.4585 34.2261 25.1851 31.9737C22.9118 29.7249 21.7734 26.7706 21.7734 23.118C21.7734 19.4793 22.9328 16.5215 25.255 14.2377C27.5772 11.9574 30.5699 10.8156 34.24 10.8156C36.0419 10.8156 37.6866 11.1228 39.1672 11.734C40.6478 12.3486 41.8735 13.1727 42.8478 14.2098Z" fill="#CC2838"/>
<path d="M68.286 24.9578H50.8783C51.1611 26.854 51.8735 28.3032 53.0189 29.2984C54.1643 30.2937 55.6065 30.793 57.3455 30.793C58.442 30.793 59.4477 30.5451 60.3556 30.0527C61.2635 29.5603 62.1889 28.7327 63.1318 27.5699L67.2943 30.6987C65.9918 32.2841 64.5111 33.4539 62.8489 34.2152C61.1867 34.9765 59.2033 35.3571 56.8985 35.3571C53.197 35.3571 50.2602 34.1768 48.0881 31.8162C45.9161 29.4556 44.8301 26.5293 44.8301 23.0302C44.8301 19.4858 45.9615 16.577 48.2278 14.3037C50.4941 12.0304 53.3925 10.892 56.9195 10.892C59.1474 10.892 61.1483 11.4018 62.9292 12.4215C64.7102 13.4411 66.0546 14.8519 66.9625 16.6538C67.8705 18.4557 68.3279 20.6906 68.3279 23.3585C68.3314 23.7042 68.3174 24.235 68.286 24.9578ZM62.4054 20.8407C62.374 19.1646 61.8432 17.8167 60.8166 16.8075C59.7899 15.7983 58.4839 15.2919 56.902 15.2919C55.3481 15.2919 54.0211 15.7878 52.9141 16.7725C51.8071 17.7573 51.1402 19.1157 50.9027 20.8407H62.4054Z" fill="#CC2838"/>
<path d="M89.0677 14.255L85.1881 17.782C84.577 16.9369 83.9205 16.3084 83.2256 15.8998C82.5306 15.4912 81.71 15.2887 80.7672 15.2887C79.7335 15.2887 78.9164 15.5471 78.3228 16.0639C77.7256 16.5807 77.4288 17.1709 77.4288 17.8274C77.4288 18.2814 77.5545 18.6864 77.8059 19.0391C78.0574 19.3918 78.4415 19.6747 78.9583 19.8842C79.4751 20.0972 80.4319 20.3417 81.8287 20.6245C83.9624 21.0645 85.5547 21.5534 86.6023 22.0946C87.65 22.6359 88.4636 23.3937 89.0363 24.3645C89.609 25.3387 89.8953 26.4352 89.8953 27.6574C89.8953 29.0682 89.5426 30.3463 88.8372 31.4917C88.1319 32.6371 87.0354 33.559 85.5443 34.2574C84.0532 34.9558 82.2059 35.305 79.9919 35.305C77.7955 35.305 75.9726 34.9767 74.5234 34.3167C73.0742 33.6567 71.8311 32.7628 70.7939 31.6349L74.6282 27.9892C75.5222 29.0228 76.3847 29.7631 77.2158 30.1996C78.0469 30.6396 78.9967 30.8596 80.0618 30.8596C81.3154 30.8596 82.2652 30.5907 82.9078 30.0495C83.5503 29.5082 83.8716 28.8692 83.8716 28.1324C83.8716 27.6609 83.7494 27.2419 83.5084 26.8752C83.264 26.5086 82.9322 26.2152 82.5097 26.0057C82.0872 25.7927 81.4027 25.5937 80.4634 25.4051C78.0783 24.9337 76.3288 24.4448 75.2079 23.9349C74.0869 23.4251 73.2069 22.6883 72.5749 21.7245C71.9393 20.7607 71.6216 19.6188 71.6216 18.3023C71.6216 16.1861 72.4317 14.4087 74.0555 12.9735C75.6793 11.5383 77.9491 10.8224 80.865 10.8224C82.8554 10.8224 84.6293 11.1925 86.1798 11.9294C87.2728 12.4427 88.2366 13.2214 89.0677 14.255Z" fill="#CC2838"/>
<path d="M96.9391 0.000488281C97.9413 0.000488281 98.7933 0.353183 99.4917 1.05857C100.19 1.76396 100.539 2.61252 100.539 3.60077C100.539 4.60298 100.187 5.45503 99.4813 6.15344C98.7759 6.85184 97.9273 7.20105 96.9426 7.20105C95.9369 7.20105 95.0883 6.85184 94.3899 6.15344C93.6915 5.45503 93.3423 4.60647 93.3423 3.60077C93.3423 2.61252 93.6915 1.76745 94.3899 1.05857C95.0848 0.353183 95.9334 0.000488281 96.9391 0.000488281ZM99.8305 11.5277V34.6973H94.0442V11.5277H99.8305Z" fill="#CC2838"/>
<path d="M0.393555 47.3066V40.2842H2.31417V46.6746C2.31417 47.6698 2.4329 48.3787 2.66686 48.8117C3.044 49.5101 3.7878 49.8558 4.89478 49.8558C6.00175 49.8558 6.74206 49.5066 7.12269 48.8117C7.35665 48.3822 7.47538 47.6698 7.47538 46.6746V40.2842H9.396V47.3066C9.396 48.679 8.98743 49.7336 8.1668 50.4704C7.3776 51.1688 6.28809 51.5145 4.89478 51.5145C3.50146 51.5145 2.41544 51.1653 1.63672 50.4704C0.809106 49.7336 0.393555 48.679 0.393555 47.3066Z" fill="white"/>
<path d="M11.3486 51.2561V40.2842H14.0515L17.079 48.8746H17.1105L20.0612 40.2842H22.7361V51.2561H20.9063V42.7915H20.8749L17.8333 51.2561H16.2514L13.2099 42.7915H13.1785V51.2561H11.3486Z" fill="white"/>
<path d="M24.1465 47.5999H26.0671C26.0671 48.3996 26.3395 49.0037 26.8807 49.4123C27.3626 49.772 28.0191 49.95 28.8468 49.95C29.6359 49.95 30.2331 49.7754 30.6451 49.4262C30.9943 49.1294 31.1689 48.7488 31.1689 48.2878C31.1689 47.6104 30.8651 47.1599 30.261 46.9364C30.1772 46.905 29.0877 46.6047 26.989 46.0285C25.3722 45.5885 24.562 44.6596 24.562 43.2488C24.562 42.2152 24.9811 41.4016 25.8227 40.8044C26.5699 40.2806 27.4884 40.0222 28.5744 40.0222C29.7721 40.0222 30.7604 40.319 31.5391 40.9127C32.3702 41.5587 32.7823 42.4282 32.7823 43.5247H30.8616C30.7813 42.2327 29.9921 41.5901 28.4941 41.5901C27.9598 41.5901 27.5163 41.6879 27.1566 41.8835C26.7061 42.1384 26.4792 42.519 26.4792 43.0219C26.4792 43.7273 26.9157 44.1987 27.7852 44.4292C28.6547 44.6596 29.7093 44.9425 30.9489 45.2812C31.6334 45.4872 32.1712 45.8644 32.5623 46.4196C32.9115 46.9225 33.0861 47.4742 33.0861 48.0783C33.0861 49.2272 32.6321 50.1072 31.7172 50.7218C30.928 51.2561 29.9293 51.5215 28.721 51.5215C27.3906 51.5215 26.3185 51.2107 25.5084 50.5856C24.6249 49.8942 24.1674 48.8989 24.1465 47.5999Z" fill="white"/>
<path d="M33.8721 47.5999H35.7927C35.7927 48.3996 36.0651 49.0037 36.6063 49.4123C37.0882 49.772 37.7447 49.95 38.5723 49.95C39.3615 49.95 39.9587 49.7754 40.3707 49.4262C40.7199 49.1294 40.8945 48.7488 40.8945 48.2878C40.8945 47.6104 40.5907 47.1599 39.9866 46.9364C39.9028 46.905 38.8133 46.6047 36.7146 46.0285C35.0978 45.5885 34.2876 44.6596 34.2876 43.2488C34.2876 42.2152 34.7067 41.4016 35.5482 40.8044C36.2955 40.2806 37.2139 40.0222 38.3 40.0222C39.4977 40.0222 40.486 40.319 41.2647 40.9127C42.0958 41.5587 42.5079 42.4282 42.5079 43.5247H40.5872C40.5069 42.2327 39.7177 41.5901 38.2196 41.5901C37.6854 41.5901 37.2419 41.6879 36.8822 41.8835C36.4317 42.1384 36.2047 42.519 36.2047 43.0219C36.2047 43.7273 36.6412 44.1987 37.5108 44.4292C38.3803 44.6596 39.4349 44.9425 40.6745 45.2812C41.359 45.4872 41.8967 45.8644 42.2879 46.4196C42.6371 46.9225 42.8117 47.4742 42.8117 48.0783C42.8117 49.2272 42.3577 50.1072 41.4428 50.7218C40.6536 51.2561 39.6549 51.5215 38.4466 51.5215C37.1162 51.5215 36.0441 51.2107 35.234 50.5856C34.3505 49.8942 33.893 48.8989 33.8721 47.5999Z" fill="white"/>
<path d="M77.9919 65.2809C77.1084 66.0492 75.9944 66.4717 74.9189 66.8942C72.5373 67.8161 70.1174 68.738 67.6974 69.6215C66.9291 69.9288 66.0457 70.2361 65.2774 69.8904C64.5092 69.5831 64.1251 68.738 63.7793 67.9698C63.2416 66.7022 62.7422 65.473 62.2044 64.2054C61.9356 63.5908 61.7051 62.9762 61.7051 62.3616C61.7435 60.9019 63.1263 60.5562 64.2403 60.1337C65.7384 59.5191 67.2364 58.9429 68.6961 58.3283C69.5412 57.9826 70.3863 57.6753 71.2313 57.3296C72.3069 56.907 73.344 56.4845 74.4964 56.4461C76.5706 56.3309 78.6065 57.6753 79.3747 59.5959C80.143 61.5514 79.5668 63.9365 77.9919 65.2809Z" fill="white"/>
<path d="M66.0285 70.0788C65.7666 70.0788 65.5082 70.0334 65.2603 69.9217C64.4746 69.6074 64.087 68.7449 63.7447 67.9836C63.4759 67.3516 63.214 66.7195 62.959 66.1049C62.7041 65.4903 62.4387 64.8513 62.1698 64.2157C61.8695 63.5278 61.667 62.9481 61.667 62.358C61.7019 61.017 62.8648 60.5945 63.8914 60.2209C64.0032 60.1789 64.1149 60.137 64.2266 60.0986C64.8517 59.8437 65.4873 59.5888 66.1019 59.3444C66.9539 59.0056 67.8339 58.6529 68.6825 58.2967C69.105 58.1221 69.538 57.958 69.9536 57.7974C70.3691 57.6368 70.7986 57.4726 71.2177 57.298L71.3294 57.2561C72.384 56.8406 73.3758 56.4495 74.4967 56.4145C76.564 56.2958 78.6278 57.6333 79.41 59.5853C80.1817 61.5548 79.5951 63.9608 78.0167 65.3087C77.1576 66.056 76.0821 66.4786 75.0415 66.8871L74.9332 66.929C72.1151 68.0185 69.8209 68.8881 67.7117 69.6563C67.1565 69.8728 66.5838 70.0788 66.0285 70.0788ZM74.7446 56.4704C74.6643 56.4704 74.5805 56.4739 74.5002 56.4774C73.3932 56.5158 72.4015 56.9034 71.3574 57.3155L71.2456 57.3574C70.8231 57.5285 70.3936 57.6961 69.9815 57.8567C69.566 58.0174 69.1364 58.185 68.7139 58.3561C67.8653 58.7123 66.9819 59.065 66.1333 59.4072C65.5187 59.6516 64.8831 59.9066 64.2581 60.1615C64.1463 60.2034 64.0346 60.2453 63.9228 60.2872C62.8683 60.6713 61.7787 61.0659 61.7438 62.3615C61.7438 62.9376 61.9429 63.5103 62.2397 64.1913C62.5086 64.8268 62.774 65.4659 63.0289 66.0805C63.2838 66.6916 63.5457 67.3236 63.8146 67.9557C64.1498 68.703 64.5339 69.555 65.2952 69.8588C66.0425 70.1941 66.8876 69.9112 67.6907 69.59C69.7999 68.8182 72.0977 67.9522 74.9122 66.8627L75.0205 66.8208C76.0541 66.4157 77.1262 65.9932 77.9748 65.2564C79.5322 63.9259 80.1084 61.5513 79.3471 59.6097C78.6033 57.759 76.6967 56.4704 74.7446 56.4704Z" fill="white"/>
<path d="M78.5884 60.0075L78.2951 59.372C80.1947 58.4955 82.3493 57.5037 83.7706 55.8066C85.0382 54.2911 85.7017 51.7489 84.4376 50.0133C83.348 48.5187 81.3052 48.1835 79.7617 48.3721C78.2776 48.5502 76.8459 49.1438 75.4596 49.72C75.1662 49.8422 74.8729 49.9644 74.5796 50.0797C70.1796 51.8501 65.5422 52.8349 60.8035 53.0095C59.3089 53.0654 57.7271 53.0374 56.2534 52.4822C54.6157 51.8606 53.3865 50.5825 53.0512 49.1473C52.5938 47.2057 53.7461 45.2712 55.0871 44.2131C56.5572 43.0537 58.408 42.5474 60.0283 42.1632C75.0405 38.6014 91.1562 40.7804 105.372 42.7045L105.278 43.3959C91.1178 41.4788 75.0719 39.3103 60.1889 42.8407C58.642 43.2074 56.8785 43.6893 55.5201 44.7613C54.3503 45.6832 53.3446 47.3454 53.7322 48.9867C54.0185 50.1984 55.0801 51.2879 56.5048 51.8257C57.8632 52.339 59.3613 52.36 60.7826 52.3076C65.4409 52.133 69.998 51.1657 74.3246 49.4267C74.6145 49.3114 74.9078 49.1892 75.1977 49.067C76.6294 48.4733 78.1065 47.8587 79.6849 47.6702C81.4239 47.4607 83.7391 47.8553 85.0068 49.5943C86.4944 51.6336 85.782 54.4866 84.3083 56.2466C82.7858 58.0729 80.5579 59.0996 78.5884 60.0075Z" fill="white"/>
</svg>
